<svg width="17" height="15" viewBox="0 0 17 15" fill="none" xmlns="http://www.w3.org/2000/svg">
<path d="M14.685 14.7274L9.99886 11.9835L4.83691 14.75C5.22723 12.8553 5.61777 10.9606 6.00853 9.06592L2.21631 4.80488H7.17688L9.65307 0L11.9374 4.80455H16.9762L13.644 9.12294L14.685 14.7274ZM10.0244 10.9309L13.4325 12.9265L12.7937 9.48696C12.7648 9.25552 12.7358 9.0242 12.7066 8.79298L15.1081 5.73536H11.3751L9.62032 2.04415L7.71914 5.73536H4.26616L6.97877 8.78219L6.21482 12.9096L10.0244 10.9309Z" fill="white"/>
<path d="M6.66081 4.11158L5.69482 4.10247C6.44272 2.7352 7.19041 1.36771 7.93787 0H8.85473C8.12364 1.37064 7.39233 2.74116 6.66081 4.11158Z" fill="white"/>
<path d="M4.07939 14.746L3.21492 14.7487L4.3407 9.40634C2.89358 7.87533 1.44668 6.34422 0 4.81299H1.18767L5.27001 9.13138L4.07939 14.746Z" fill="white"/>
<path d="M3.5083 5.272L6.38987 8.73549L5.60399 13.3912L9.66865 11.3896L13.8777 13.7738L13.1573 8.93791L16.1483 5.09184H11.7604L9.66865 0.953613L7.52515 5.04697L3.5083 5.272Z" fill="white"/>
</svg>
