<svg width="24" height="24" viewBox="0 0 24 24" fill="none" xmlns="http://www.w3.org/2000/svg">
<path d="M18.2458 12.5682C18.2 12.5182 18.0083 12.3017 18.0042 11.9687C18 11.644 18.1792 11.4275 18.2208 11.3734C19.1 10.7531 19.9833 10.1369 20.8625 9.51664C20.2917 8.37596 19.7167 7.23528 19.1458 6.09877C18.0292 6.40684 16.9125 6.71907 15.7917 7.02713C15.6792 7.04378 15.2542 7.08541 14.8333 6.81898C14.4708 6.58585 14.325 6.25697 14.2792 6.1404C14.0667 5.14959 13.8542 4.15462 13.6417 3.16382C12.3792 3.17631 11.1125 3.1888 9.84999 3.20129C9.66666 4.18377 9.48332 5.16625 9.29999 6.14873C9.24166 6.26946 9.07499 6.58585 8.70416 6.80649C8.32499 7.03129 7.95832 7.02297 7.82916 7.01464C6.61666 6.85645 5.39999 6.69825 4.18749 6.54422C3.75416 7.55584 3.31666 8.56746 2.88332 9.57492C3.71666 10.1869 4.54582 10.7989 5.37916 11.4108C5.42916 11.4816 5.60416 11.748 5.56666 12.1061C5.54166 12.3642 5.42082 12.5473 5.36249 12.6264C4.52499 13.3175 3.69166 14.0044 2.85416 14.6955C3.31249 15.6904 3.77082 16.6896 4.23332 17.6845C5.37499 17.4764 6.52082 17.2682 7.66249 17.0601C7.82499 17.0643 8.19582 17.0934 8.58332 17.339C8.94582 17.568 9.12916 17.8677 9.20416 18.0134C9.39582 19.0334 9.59166 20.0492 9.78332 21.0691C11.0917 21.0733 12.3958 21.0733 13.7042 21.0774C13.8917 20.0741 14.0792 19.075 14.2667 18.0717C14.3458 17.9135 14.5417 17.5888 14.9208 17.339C15.3667 17.0434 15.8083 17.0226 15.9833 17.0226C17.0417 17.2932 18.1 17.5638 19.1583 17.8303C19.7375 16.7603 20.3208 15.6904 20.9 14.6164C20.0167 13.9336 19.1292 13.2509 18.2458 12.5682ZM11.7375 15.8278C9.66249 15.8278 7.98332 14.146 7.98332 12.0769C7.98332 10.0079 9.66666 8.326 11.7375 8.326C13.8125 8.326 15.4917 10.0079 15.4917 12.0769C15.4917 14.146 13.8125 15.8278 11.7375 15.8278Z" fill="black"/>
</svg>
