<svg width="12" height="17" viewBox="0 0 12 17" fill="none" xmlns="http://www.w3.org/2000/svg">
<path d="M3.186 14.0269C2.59173 14.0269 1.99745 14.0051 1.40318 14.0196C0.849012 14.0306 0.502657 14.0525 0.389636 13.8592C0.265678 13.6478 0.509949 13.3415 0.699533 12.9733C0.918283 12.5467 1.03495 11.9853 1.0787 10.8478C1.12974 9.52797 1.17349 8.24099 1.14797 7.78526V7.75609V5.6816C1.14797 4.20868 2.34745 3.0092 3.82038 3.0092H7.98028C9.45321 3.0092 10.6527 4.20868 10.6527 5.6816V7.97484C10.6527 8.09151 10.6527 8.24463 10.6527 8.41963C10.6527 9.03578 10.6563 9.96182 10.6819 10.8186C10.7511 11.8249 11.0209 12.492 11.2652 12.9222C11.3964 13.1556 11.586 13.4327 11.4839 13.6624C11.3454 13.9795 10.7475 14.0014 10.4522 14.0087C8.95372 14.0488 8.20633 13.9978 5.93132 14.0124C5.05632 14.0196 4.16673 14.0269 3.186 14.0269ZM1.85891 12.9259C3.38652 12.9368 4.6735 12.9259 5.92403 12.9186C7.17455 12.9113 8.46883 12.9004 10.0001 12.9113C9.78862 12.2077 9.60268 11.2743 9.59175 10.8514C9.56258 9.97641 9.56258 9.03943 9.56258 8.41599C9.56258 8.24099 9.56258 8.09151 9.56258 7.97119V5.67796C9.56258 4.8066 8.85529 4.09931 7.98393 4.09931H3.81673C2.94537 4.09931 2.23808 4.8066 2.23808 5.67796V7.73421C2.2636 8.21911 2.22714 9.34568 2.16881 10.8842C2.15058 11.3728 2.03391 12.2624 1.85891 12.9259Z" fill="black"/>
<path d="M4.27979 14.3988C4.27979 15.0623 4.81937 15.6019 5.48291 15.6019H6.31416C6.9777 15.6019 7.51729 15.0623 7.51729 14.3988V13.6842C7.51729 13.5639 7.41885 13.4654 7.29854 13.4654H4.49854C4.37822 13.4654 4.27979 13.5639 4.27979 13.6842V14.3988V14.3988Z" stroke="black" stroke-miterlimit="10"/>
<path d="M5.71625 3.45405C6.44177 3.50144 7.03969 2.89988 6.99594 2.17436C6.95948 1.57645 6.47094 1.08791 5.87302 1.05145C5.14749 1.00405 4.54957 1.60562 4.59332 2.33113C4.63343 2.93269 5.11833 3.41759 5.71625 3.45405Z" stroke="black" stroke-miterlimit="10"/>
</svg>
