<svg width="13" height="15" viewBox="0 0 13 15" fill="none" xmlns="http://www.w3.org/2000/svg">
<path d="M11.8855 5.56241V13.4652H1.98966V5.56241H11.8855ZM12.9272 4.52074H0.947998V14.5069H12.9272V4.52074Z" fill="black"/>
<path d="M7.00012 9.98941C7.69431 9.98941 8.25707 9.42665 8.25707 8.73245C8.25707 8.03825 7.69431 7.47549 7.00012 7.47549C6.30592 7.47549 5.74316 8.03825 5.74316 8.73245C5.74316 9.42665 6.30592 9.98941 7.00012 9.98941Z" fill="black"/>
<path d="M7.73612 9.05199C7.29168 9.05199 6.8507 9.05199 6.40625 9.05199C6.51737 9.39227 6.62153 9.8888 6.52778 10.486C6.42014 11.177 6.09375 11.7152 5.84375 12.0485C6.61459 12.0589 7.38196 12.0659 8.15279 12.0763C7.90626 11.8055 7.48959 11.2638 7.40973 10.5242C7.34029 9.86449 7.57293 9.34019 7.73612 9.05199Z" fill="black"/>
<path d="M3.60427 4.55544C3.5626 2.52766 5.26052 0.90613 7.1633 0.996408C8.95149 1.08321 10.4376 2.65613 10.3925 4.55544" stroke="black" stroke-miterlimit="10" stroke-linejoin="round"/>
</svg>
