<svg width="14" height="17" viewBox="0 0 14 17" fill="none" xmlns="http://www.w3.org/2000/svg">
<path d="M7.0313 16.316C7.02089 16.316 7.00353 16.3126 6.98269 16.3126C5.95492 16.2257 5.17714 15.8264 4.53478 15.4827C4.28825 15.3507 3.91672 15.1459 3.46533 14.8195C2.86811 14.3855 1.62158 13.4792 0.909776 11.7744C0.597276 11.0278 0.427138 10.2257 0.402832 9.39589V9.38547V9.37505C0.416721 8.257 0.434082 7.42019 0.447971 6.60769C0.46186 5.79866 0.475749 4.96186 0.49311 3.84727L0.496582 3.51394L0.802138 3.37852C1.48269 3.07991 2.11811 2.73269 2.72922 2.39589C3.18755 2.14589 3.61811 1.90977 4.06603 1.69102C4.59728 1.43408 4.9688 1.2188 5.44797 0.968803C5.83686 0.767414 6.37158 0.489636 7.02436 0.159775C7.10769 0.506997 7.1945 0.854219 7.27783 1.20144C6.88894 1.36811 6.43061 1.61811 5.9445 1.882C5.51742 2.11464 5.0313 2.37852 4.51742 2.62505C4.0938 2.82991 3.67367 3.05908 3.22575 3.30561C2.68408 3.60075 2.12505 3.9063 1.52436 4.18755C1.51047 5.14589 1.49658 5.89589 1.48617 6.62158C1.47228 7.42714 1.45839 8.26047 1.44103 9.37158C1.46186 10.0695 1.60422 10.7396 1.86464 11.3646C2.46533 12.7987 3.51047 13.5591 4.07297 13.9688C4.44103 14.2362 4.75005 14.4098 4.9445 14.5139C5.37505 14.7535 5.90978 14.9896 6.54519 15.1389C6.70144 15.1771 6.85422 15.2049 7.00005 15.2292C7.01742 15.5973 7.02436 15.9549 7.0313 16.316Z" fill="black"/>
<path d="M7.03136 16.316C6.99316 15.9757 6.95497 15.6354 6.91678 15.2951C8.05566 15.0868 9.09733 14.6424 10.0105 13.9792C10.573 13.5694 11.6182 12.809 12.2189 11.375C12.4793 10.75 12.6251 10.0799 12.6425 9.38194C12.6286 8.27083 12.6112 7.4375 12.5973 6.63541C12.5834 5.90625 12.5696 5.15625 12.5591 4.19791C11.955 3.91666 11.3994 3.61111 10.8577 3.31597C10.4098 3.07291 9.98969 2.84027 9.56608 2.63541C9.05219 2.38541 8.56608 2.125 8.139 1.89236C7.65289 1.62847 7.19455 1.37847 6.80566 1.2118C6.88205 0.86458 6.95497 0.517358 7.03136 0.170135C7.7015 0.499997 8.24664 0.777775 8.63553 0.979164C8.97928 1.15625 9.31261 1.36111 10.0175 1.70139C10.4654 1.91666 10.8959 2.15277 11.3543 2.40625C11.9689 2.74305 12.6008 3.0868 13.2814 3.38889L13.5869 3.5243L13.5904 3.85764C13.6043 4.97569 13.6216 5.8125 13.6355 6.62153C13.6494 7.43055 13.6633 8.26736 13.6807 9.38541V9.39583V9.40625C13.6598 10.2361 13.4897 11.0347 13.1737 11.7847C12.4584 13.4896 11.2154 14.3924 10.6182 14.8299C10.1807 15.1458 9.79525 15.3646 9.54872 15.4931C8.56261 15.9965 7.65636 16.2118 7.03136 16.316Z" fill="black"/>
<path d="M7.0105 1.11801V15.6632" stroke="black" stroke-miterlimit="10" stroke-linejoin="round"/>
</svg>
