<?xml version="1.0" standalone="no"?>
<!DOCTYPE svg PUBLIC "-//W3C//DTD SVG 20010904//EN"
 "http://www.w3.org/TR/2001/REC-SVG-20010904/DTD/svg10.dtd">
<svg version="1.0" xmlns="http://www.w3.org/2000/svg"
 width="34" height="35" viewBox="0 0 136.000000 136.000000"
 preserveAspectRatio="xMidYMid meet">

<g transform="translate(0.000000,136.000000) scale(0.100000,-0.100000)"
fill="#000000" stroke="none">
<path d="M136 1345 c-49 -17 -93 -59 -117 -110 -17 -37 -19 -75 -19 -555 0
-480 2 -518 19 -555 10 -22 31 -52 47 -67 63 -59 57 -58 616 -58 478 0 516 2
553 19 22 10 52 31 67 47 59 63 58 57 58 616 0 475 -2 516 -19 553 -23 51 -79
101 -128 114 -61 17 -1028 14 -1077 -4z m654 -324 c0 -37 -40 -85 -81 -100
l-32 -11 6 36 c7 42 20 60 62 86 40 24 45 23 45 -11z m-153 -126 c45 -13 55
-13 93 0 54 19 74 19 117 -2 46 -22 50 -37 19 -74 -20 -24 -26 -41 -26 -80 0
-42 5 -54 36 -88 l35 -40 -17 -33 c-27 -53 -64 -99 -89 -108 -16 -6 -39 -4
-69 6 -42 14 -50 14 -96 -1 -47 -16 -52 -16 -76 0 -34 22 -81 98 -99 159 -37
123 -6 224 80 262 38 17 32 17 92 -1z"/>
</g>
</svg>
