<svg width="17" height="16" viewBox="0 0 17 16" fill="none" xmlns="http://www.w3.org/2000/svg">
<path d="M7.375 7.81938C9.27348 7.81938 10.8125 6.28036 10.8125 4.38189C10.8125 2.48341 9.27348 0.944397 7.375 0.944397C5.47652 0.944397 3.9375 2.48341 3.9375 4.38189C3.9375 6.28036 5.47652 7.81938 7.375 7.81938Z" stroke="black" stroke-miterlimit="10"/>
<path d="M14.8333 9.34018L10.1458 14.0277" stroke="black" stroke-miterlimit="10"/>
<path d="M12.375 15.0069C14.2735 15.0069 15.8125 13.4679 15.8125 11.5694C15.8125 9.6709 14.2735 8.13188 12.375 8.13188C10.4765 8.13188 8.9375 9.6709 8.9375 11.5694C8.9375 13.4679 10.4765 15.0069 12.375 15.0069Z" stroke="black" stroke-miterlimit="10"/>
<path d="M12.3751 8.13188C9.05561 8.13188 5.73616 8.13188 2.41672 8.13188C2.31603 8.13535 1.59033 8.1666 1.132 8.75688C0.83686 9.13535 0.812554 9.5416 0.809082 9.69438C0.809082 11.2569 0.809082 12.8194 0.809082 14.3819C4.02089 14.3819 7.23269 14.3819 10.4445 14.3819" stroke="black" stroke-miterlimit="10"/>
</svg>
