<svg width="17" height="16" viewBox="0 0 17 16" fill="none" xmlns="http://www.w3.org/2000/svg">
<path d="M7.375 7.81932C9.27348 7.81932 10.8125 6.2803 10.8125 4.38183C10.8125 2.48335 9.27348 0.944336 7.375 0.944336C5.47652 0.944336 3.9375 2.48335 3.9375 4.38183C3.9375 6.2803 5.47652 7.81932 7.375 7.81932Z" stroke="#B6B7AD" stroke-miterlimit="10"/>
<path d="M14.8333 9.34021L10.1458 14.0277" stroke="#B6B7AD" stroke-miterlimit="10"/>
<path d="M12.375 15.0069C14.2735 15.0069 15.8125 13.4679 15.8125 11.5694C15.8125 9.67086 14.2735 8.13184 12.375 8.13184C10.4765 8.13184 8.9375 9.67086 8.9375 11.5694C8.9375 13.4679 10.4765 15.0069 12.375 15.0069Z" stroke="#B6B7AD" stroke-miterlimit="10"/>
<path d="M12.3751 8.13184C9.05561 8.13184 5.73616 8.13184 2.41672 8.13184C2.31603 8.13531 1.59033 8.16656 1.132 8.75684C0.83686 9.13531 0.812554 9.54156 0.809082 9.69434C0.809082 11.2569 0.809082 12.8194 0.809082 14.3819C4.02089 14.3819 7.23269 14.3819 10.4445 14.3819" stroke="#B6B7AD" stroke-miterlimit="10"/>
</svg>
