<svg width="18" height="15" viewBox="0 0 18 15" fill="none" xmlns="http://www.w3.org/2000/svg">
<path d="M5.25001 6.17188C4.8084 6.17188 4.45313 6.52715 4.45313 6.96875C4.45313 7.41035 4.8084 7.76562 5.25001 7.76562C5.69161 7.76562 6.04688 7.41035 6.04688 6.96875C6.04688 6.52715 5.69161 6.17188 5.25001 6.17188ZM9.50001 6.17188C9.0584 6.17188 8.70313 6.52715 8.70313 6.96875C8.70313 7.41035 9.0584 7.76562 9.50001 7.76562C9.94161 7.76562 10.2969 7.41035 10.2969 6.96875C10.2969 6.52715 9.94161 6.17188 9.50001 6.17188ZM13.75 6.17188C13.3084 6.17188 12.9531 6.52715 12.9531 6.96875C12.9531 7.41035 13.3084 7.76562 13.75 7.76562C14.1916 7.76562 14.5469 7.41035 14.5469 6.96875C14.5469 6.52715 14.1916 6.17188 13.75 6.17188ZM9.50001 0.0625C4.80508 0.0625 1.00001 3.15371 1.00001 6.96875C1.00001 8.54922 1.66075 9.99687 2.75645 11.1623C2.26173 12.4705 1.23243 13.5795 1.21583 13.5928C0.996686 13.8252 0.93692 14.1639 1.06309 14.4561C1.18926 14.7482 1.47813 14.9375 1.79688 14.9375C3.83887 14.9375 5.44922 14.0842 6.41544 13.4002C7.37501 13.7023 8.41094 13.875 9.50001 13.875C14.1949 13.875 18 10.7838 18 6.96875C18 3.15371 14.1949 0.0625 9.50001 0.0625ZM9.50001 12.8125C8.56036 12.8125 7.63067 12.6697 6.73751 12.3875L6.23282 12.2281L5.80118 12.5336C5.03751 13.0748 3.8588 13.7057 2.39454 13.8484C2.79297 13.3471 3.38399 12.507 3.74922 11.5375L3.98497 10.9166L3.53008 10.4318C2.57051 9.41582 2.06251 8.21719 2.06251 6.96875C2.06251 3.74805 5.39942 1.125 9.50001 1.125C13.6006 1.125 16.9375 3.74805 16.9375 6.96875C16.9375 10.1895 13.6006 12.8125 9.50001 12.8125Z" fill="#B3A25D"/>
</svg>
