
<svg id="svg" version="1.1" xmlns="http://www.w3.org/2000/svg" xmlns:xlink="http://www.w3.org/1999/xlink" width="50" height="50" viewBox="0, 0, 50,50"><g id="svgg"><path id="path0" d="M191.600 0.414 C 182.542 0.761,173.200 1.596,173.200 2.058 C 173.200 2.246,172.379 2.400,171.375 2.400 C 169.121 2.400,161.074 3.616,160.800 3.999 C 160.690 4.152,159.624 4.390,158.430 4.528 C 157.237 4.666,156.157 4.919,156.030 5.089 C 155.904 5.260,154.915 5.439,153.832 5.486 C 152.750 5.533,151.760 5.715,151.632 5.891 C 151.505 6.066,149.885 6.515,148.033 6.889 C 146.182 7.263,144.562 7.733,144.433 7.934 C 144.305 8.135,143.570 8.422,142.800 8.571 C 139.693 9.174,137.600 9.767,137.600 10.044 C 137.600 10.205,137.060 10.455,136.400 10.600 C 135.740 10.745,135.200 10.987,135.200 11.139 C 135.200 11.290,134.490 11.432,133.623 11.455 C 132.756 11.478,131.786 11.756,131.469 12.074 C 131.151 12.392,129.880 12.879,128.645 13.155 C 127.410 13.431,126.400 13.800,126.400 13.974 C 126.400 14.148,125.367 14.615,124.104 15.013 C 122.841 15.410,121.587 15.930,121.318 16.167 C 119.928 17.394,119.599 17.574,119.099 17.383 C 118.800 17.268,118.043 17.614,117.417 18.151 C 116.792 18.689,116.038 19.036,115.743 18.923 C 115.448 18.810,115.091 19.019,114.949 19.388 C 114.767 19.862,114.414 19.990,113.746 19.822 C 113.226 19.692,112.800 19.733,112.800 19.913 C 112.800 20.094,111.900 20.566,110.800 20.961 C 109.700 21.357,108.798 21.797,108.796 21.940 C 108.794 22.083,107.984 22.555,106.996 22.990 C 106.008 23.424,105.200 23.894,105.200 24.035 C 105.200 24.176,104.390 24.601,103.400 24.979 C 102.410 25.357,101.600 25.812,101.600 25.990 C 101.600 26.168,101.145 26.427,100.590 26.567 C 100.034 26.706,99.262 27.138,98.873 27.527 C 98.484 27.916,97.543 28.479,96.783 28.779 C 96.022 29.078,95.220 29.521,94.999 29.762 C 94.778 30.003,93.968 30.551,93.199 30.980 C 92.430 31.409,91.451 32.084,91.025 32.480 C 90.598 32.876,90.108 33.200,89.936 33.200 C 89.572 33.200,86.192 35.477,85.039 36.500 C 84.604 36.885,84.007 37.200,83.712 37.200 C 83.417 37.200,83.071 37.471,82.944 37.802 C 82.817 38.133,82.058 38.712,81.256 39.089 C 80.455 39.465,79.472 40.184,79.071 40.687 C 78.670 41.189,78.183 41.600,77.989 41.600 C 77.795 41.600,77.209 42.005,76.686 42.500 C 76.163 42.995,75.165 43.848,74.468 44.396 C 73.770 44.943,73.200 45.618,73.200 45.896 C 73.200 46.173,72.853 46.400,72.429 46.400 C 72.005 46.400,71.330 46.816,70.929 47.325 C 70.528 47.834,69.858 48.441,69.440 48.675 C 66.947 50.067,49.000 68.169,49.000 69.292 C 49.000 69.571,48.460 70.166,47.800 70.614 C 47.140 71.061,46.542 71.826,46.472 72.314 C 46.402 72.801,46.130 73.200,45.868 73.200 C 45.606 73.200,44.943 73.770,44.396 74.468 C 43.848 75.165,42.995 76.163,42.500 76.686 C 42.005 77.209,41.600 77.795,41.600 77.989 C 41.600 78.183,41.189 78.670,40.687 79.071 C 40.184 79.472,39.456 80.475,39.068 81.300 C 38.680 82.125,38.199 82.800,38.000 82.800 C 37.801 82.800,37.339 83.430,36.973 84.200 C 36.608 84.970,36.161 85.600,35.981 85.600 C 35.801 85.600,35.553 85.915,35.429 86.300 C 35.306 86.685,34.754 87.523,34.202 88.162 C 33.651 88.801,33.200 89.532,33.200 89.787 C 33.200 90.041,32.876 90.598,32.480 91.025 C 32.084 91.451,31.409 92.430,30.980 93.199 C 30.551 93.968,30.003 94.778,29.762 94.999 C 29.521 95.220,29.078 96.022,28.779 96.783 C 28.479 97.543,27.916 98.484,27.527 98.873 C 27.138 99.262,26.706 100.034,26.567 100.590 C 26.427 101.145,26.168 101.600,25.990 101.600 C 25.812 101.600,25.357 102.410,24.979 103.400 C 24.601 104.390,24.176 105.200,24.035 105.200 C 23.894 105.200,23.424 106.008,22.990 106.996 C 22.555 107.984,22.083 108.794,21.940 108.796 C 21.797 108.798,21.357 109.700,20.961 110.800 C 20.566 111.900,20.112 112.800,19.953 112.800 C 19.677 112.800,19.087 114.727,18.972 116.000 C 18.843 117.438,18.772 117.600,18.264 117.600 C 17.712 117.600,16.800 119.213,16.800 120.190 C 16.800 120.494,16.560 120.983,16.267 121.275 C 15.975 121.568,15.410 122.841,15.013 124.104 C 14.615 125.367,14.148 126.400,13.974 126.400 C 13.800 126.400,13.431 127.410,13.155 128.645 C 12.879 129.880,12.436 131.107,12.170 131.372 C 11.905 131.638,11.374 133.147,10.990 134.727 C 10.606 136.307,10.170 137.600,10.022 137.600 C 9.764 137.600,9.160 139.765,8.571 142.800 C 8.422 143.570,8.135 144.305,7.934 144.433 C 7.733 144.562,7.263 146.182,6.889 148.033 C 6.515 149.885,6.102 151.490,5.971 151.600 C 5.650 151.869,4.399 158.318,4.400 159.700 C 4.400 160.305,4.248 160.800,4.063 160.800 C 3.572 160.800,2.261 170.191,2.525 171.817 C 2.684 172.797,2.599 173.200,2.233 173.200 C 1.377 173.200,-0.454 200.329,0.377 200.700 C 0.500 200.754,0.537 202.734,0.459 205.100 C 0.303 209.876,1.088 222.138,1.562 222.311 C 1.728 222.372,1.782 223.407,1.682 224.611 C 1.534 226.406,1.613 226.800,2.125 226.800 C 2.614 226.800,2.701 227.100,2.525 228.183 C 2.261 229.809,3.572 239.200,4.063 239.200 C 4.248 239.200,4.400 239.695,4.400 240.300 C 4.399 241.682,5.650 248.131,5.971 248.400 C 6.102 248.510,6.515 250.115,6.889 251.967 C 7.263 253.818,7.733 255.438,7.934 255.567 C 8.135 255.695,8.422 256.430,8.571 257.200 C 9.174 260.307,9.767 262.400,10.044 262.400 C 10.205 262.400,10.455 262.940,10.600 263.600 C 10.745 264.260,10.987 264.800,11.139 264.800 C 11.290 264.800,11.432 265.510,11.455 266.377 C 11.478 267.244,11.756 268.214,12.074 268.531 C 12.392 268.849,12.879 270.120,13.155 271.355 C 13.431 272.590,13.800 273.600,13.974 273.600 C 14.148 273.600,14.614 274.635,15.010 275.900 C 15.406 277.165,16.053 278.430,16.448 278.711 C 16.843 278.992,17.070 279.473,16.952 279.780 C 16.711 280.409,17.350 281.765,18.440 282.935 C 18.843 283.368,19.091 283.853,18.991 284.015 C 18.784 284.350,19.593 286.898,20.002 287.200 C 20.151 287.310,20.596 288.255,20.991 289.300 C 21.386 290.345,21.819 291.202,21.954 291.204 C 22.089 291.206,22.555 292.016,22.990 293.004 C 23.424 293.992,23.894 294.800,24.035 294.800 C 24.176 294.800,24.601 295.610,24.979 296.600 C 25.357 297.590,25.812 298.400,25.990 298.400 C 26.168 298.400,26.427 298.855,26.567 299.410 C 26.706 299.966,27.138 300.738,27.527 301.127 C 27.916 301.516,28.479 302.457,28.779 303.217 C 29.078 303.978,29.521 304.780,29.762 305.001 C 30.003 305.222,30.551 306.032,30.980 306.801 C 31.409 307.570,32.084 308.549,32.480 308.975 C 32.876 309.402,33.200 309.987,33.200 310.275 C 33.200 310.564,33.579 310.800,34.043 310.800 C 34.640 310.800,34.816 310.981,34.647 311.421 C 34.370 312.143,35.286 313.722,36.917 315.334 C 37.548 315.958,37.961 316.572,37.835 316.698 C 37.708 316.825,37.943 317.165,38.357 317.455 C 38.770 317.744,39.229 318.463,39.377 319.051 C 39.525 319.639,40.085 320.467,40.623 320.889 C 41.160 321.312,41.600 321.817,41.600 322.011 C 41.600 322.205,42.005 322.796,42.500 323.325 C 42.995 323.853,43.760 324.767,44.200 325.355 C 44.640 325.943,45.402 326.593,45.892 326.799 C 46.425 327.023,46.697 327.402,46.568 327.739 C 46.448 328.051,46.777 328.639,47.301 329.052 C 47.823 329.463,48.441 330.142,48.675 330.560 C 49.910 332.772,67.228 350.090,69.440 351.325 C 69.858 351.559,70.528 352.166,70.929 352.675 C 71.330 353.184,71.810 353.600,71.996 353.600 C 72.182 353.600,73.114 354.307,74.067 355.172 C 75.020 356.036,76.211 357.116,76.714 357.572 C 77.217 358.027,77.789 358.400,77.985 358.400 C 78.181 358.400,78.688 358.840,79.111 359.377 C 79.533 359.915,80.361 360.475,80.949 360.623 C 81.537 360.771,82.256 361.230,82.545 361.643 C 82.835 362.057,83.175 362.292,83.302 362.165 C 83.428 362.039,84.042 362.452,84.666 363.083 C 86.073 364.507,87.776 365.600,88.586 365.600 C 88.924 365.600,89.200 365.870,89.200 366.200 C 89.200 366.530,89.425 366.800,89.700 366.800 C 89.975 366.801,90.729 367.256,91.375 367.812 C 92.022 368.368,92.972 368.928,93.486 369.057 C 94.000 369.186,94.585 369.599,94.786 369.974 C 94.987 370.349,95.873 370.894,96.755 371.185 C 97.637 371.476,98.445 371.940,98.551 372.217 C 98.657 372.493,99.387 372.932,100.172 373.191 C 100.957 373.450,101.600 373.813,101.600 373.998 C 101.600 374.183,102.410 374.643,103.400 375.021 C 104.390 375.399,105.202 375.819,105.205 375.954 C 105.207 376.089,105.972 376.559,106.905 376.997 C 107.837 377.436,108.851 378.034,109.158 378.327 C 109.621 378.768,109.774 378.769,110.052 378.330 C 110.313 377.918,110.389 377.913,110.394 378.309 C 110.397 378.588,110.895 379.036,111.500 379.304 C 112.105 379.572,112.862 380.042,113.182 380.349 C 113.581 380.731,113.812 380.765,113.914 380.457 C 114.013 380.160,114.275 380.218,114.684 380.627 C 115.024 380.967,115.523 381.162,115.791 381.059 C 116.060 380.956,116.792 381.311,117.417 381.849 C 118.043 382.386,118.803 382.731,119.107 382.614 C 119.411 382.498,119.910 382.627,120.216 382.901 C 120.522 383.176,121.003 383.590,121.286 383.822 C 122.049 384.447,125.976 385.662,126.396 385.402 C 126.596 385.279,126.947 385.526,127.175 385.953 C 127.429 386.427,128.215 386.834,129.203 387.000 C 130.090 387.150,131.093 387.550,131.431 387.888 C 131.770 388.227,132.756 388.522,133.623 388.545 C 134.490 388.568,135.200 388.710,135.200 388.861 C 135.200 389.013,135.740 389.255,136.400 389.400 C 137.060 389.545,137.600 389.795,137.600 389.956 C 137.600 390.233,139.693 390.826,142.800 391.429 C 143.570 391.578,144.303 391.862,144.429 392.059 C 144.555 392.256,146.175 392.703,148.029 393.052 C 149.883 393.401,151.490 393.817,151.600 393.977 C 151.844 394.332,158.175 395.601,159.700 395.600 C 160.305 395.600,160.800 395.750,160.800 395.933 C 160.800 396.325,169.035 397.611,171.500 397.605 C 172.494 397.602,173.200 397.787,173.200 398.050 C 173.200 398.350,173.928 398.439,175.389 398.318 C 176.593 398.218,177.628 398.269,177.689 398.431 C 178.258 399.948,221.742 399.948,222.311 398.431 C 222.372 398.269,223.383 398.216,224.559 398.313 C 225.882 398.423,226.802 398.321,226.972 398.045 C 227.123 397.800,227.912 397.602,228.724 397.605 C 231.015 397.612,239.200 396.306,239.200 395.933 C 239.200 395.750,239.830 395.600,240.600 395.600 C 241.370 395.600,242.000 395.401,242.000 395.157 C 242.000 394.914,242.288 394.825,242.640 394.960 C 243.439 395.267,248.400 394.381,248.400 393.931 C 248.400 393.749,248.760 393.600,249.200 393.600 C 249.640 393.600,250.000 393.417,250.000 393.192 C 250.000 392.957,250.423 392.891,251.000 393.036 C 251.550 393.174,252.001 393.132,252.001 392.943 C 252.002 392.755,252.734 392.591,253.628 392.580 C 254.523 392.568,255.377 392.366,255.527 392.130 C 255.677 391.894,256.430 391.578,257.200 391.429 C 260.307 390.826,262.400 390.233,262.400 389.956 C 262.400 389.795,262.940 389.545,263.600 389.400 C 264.260 389.255,264.800 389.013,264.800 388.861 C 264.800 388.710,265.510 388.568,266.377 388.545 C 267.244 388.522,268.214 388.244,268.531 387.926 C 268.849 387.608,270.120 387.121,271.355 386.845 C 272.590 386.569,273.600 386.200,273.600 386.026 C 273.600 385.852,274.635 385.386,275.900 384.990 C 277.165 384.594,278.430 383.947,278.711 383.552 C 278.992 383.157,279.473 382.930,279.780 383.048 C 280.383 383.279,281.605 382.730,282.840 381.673 C 283.266 381.308,283.837 380.989,284.108 380.965 C 284.379 380.941,284.992 380.894,285.471 380.861 C 285.951 380.827,286.581 380.566,286.871 380.279 C 287.162 379.993,288.209 379.436,289.199 379.043 C 290.188 378.649,291.088 378.209,291.199 378.064 C 291.309 377.919,292.120 377.441,293.000 377.002 C 293.880 376.563,294.837 375.885,295.127 375.495 C 295.417 375.106,295.819 374.888,296.019 375.012 C 296.387 375.239,298.030 374.531,298.400 373.985 C 298.510 373.823,299.275 373.409,300.100 373.065 C 300.925 372.722,301.600 372.280,301.600 372.084 C 301.600 371.888,302.331 371.487,303.225 371.192 C 304.118 370.897,305.013 370.349,305.214 369.974 C 305.415 369.599,306.000 369.186,306.514 369.057 C 307.028 368.928,307.978 368.368,308.625 367.812 C 309.271 367.256,310.004 366.801,310.253 366.800 C 310.503 366.800,310.806 366.422,310.926 365.960 C 311.047 365.498,311.333 365.235,311.562 365.376 C 312.065 365.687,313.797 364.638,315.316 363.102 C 315.930 362.481,316.578 362.063,316.756 362.173 C 316.934 362.283,317.305 361.951,317.581 361.436 C 317.893 360.853,318.444 360.500,319.044 360.500 C 319.606 360.500,320.350 360.063,320.832 359.450 C 321.286 358.873,321.817 358.400,322.011 358.400 C 322.205 358.400,322.791 357.995,323.314 357.500 C 323.837 357.005,324.835 356.152,325.532 355.604 C 326.230 355.057,326.800 354.394,326.800 354.132 C 326.800 353.870,327.199 353.598,327.686 353.528 C 328.174 353.458,328.939 352.860,329.386 352.200 C 329.834 351.540,330.429 351.000,330.708 351.000 C 331.831 351.000,349.933 333.053,351.325 330.560 C 351.559 330.142,352.166 329.472,352.675 329.071 C 353.184 328.670,353.600 327.995,353.600 327.571 C 353.600 327.147,353.833 326.800,354.118 326.800 C 354.403 326.800,355.322 325.900,356.161 324.800 C 357.000 323.700,357.847 322.800,358.043 322.800 C 358.239 322.800,358.400 322.543,358.400 322.229 C 358.400 321.915,358.872 321.286,359.450 320.832 C 360.063 320.350,360.500 319.606,360.500 319.044 C 360.500 318.444,360.853 317.893,361.436 317.581 C 361.951 317.305,362.283 316.934,362.173 316.756 C 362.063 316.578,362.481 315.930,363.102 315.316 C 364.638 313.797,365.687 312.065,365.376 311.562 C 365.235 311.333,365.498 311.047,365.960 310.926 C 366.422 310.806,366.800 310.503,366.800 310.253 C 366.801 310.004,367.256 309.271,367.812 308.625 C 368.368 307.978,368.928 307.028,369.057 306.514 C 369.186 306.000,369.599 305.415,369.974 305.214 C 370.349 305.013,370.894 304.127,371.185 303.245 C 371.476 302.363,371.940 301.555,372.217 301.449 C 372.493 301.343,372.932 300.613,373.191 299.828 C 373.450 299.043,373.813 298.400,373.998 298.400 C 374.183 298.400,374.643 297.590,375.021 296.600 C 375.399 295.610,375.824 294.800,375.965 294.800 C 376.106 294.800,376.576 293.992,377.010 293.004 C 377.445 292.016,377.895 291.206,378.012 291.204 C 378.129 291.202,378.573 290.300,379.000 289.200 C 379.427 288.100,379.936 287.200,380.131 287.200 C 380.326 287.200,380.377 286.917,380.244 286.570 C 380.111 286.224,380.282 285.661,380.624 285.319 C 380.966 284.977,381.153 284.455,381.040 284.159 C 380.926 283.864,381.204 283.362,381.657 283.045 C 382.123 282.719,382.505 281.976,382.538 281.334 C 382.569 280.710,382.776 279.981,382.998 279.714 C 383.219 279.447,383.596 278.990,383.836 278.699 C 384.076 278.409,384.595 277.143,384.991 275.886 C 385.386 274.628,385.852 273.600,386.026 273.600 C 386.200 273.600,386.569 272.590,386.845 271.355 C 387.121 270.120,387.608 268.849,387.926 268.531 C 388.244 268.214,388.522 267.244,388.545 266.377 C 388.568 265.510,388.710 264.800,388.861 264.800 C 389.013 264.800,389.255 264.260,389.400 263.600 C 389.545 262.940,389.795 262.400,389.956 262.400 C 390.233 262.400,390.826 260.307,391.429 257.200 C 391.578 256.430,391.899 255.674,392.141 255.520 C 392.384 255.366,392.582 254.511,392.582 253.620 C 392.582 252.729,392.742 252.000,392.938 252.000 C 393.133 252.000,393.207 251.550,393.102 251.000 C 392.997 250.450,393.066 250.000,393.255 250.000 C 393.445 250.000,393.600 249.640,393.600 249.200 C 393.600 248.760,393.745 248.400,393.922 248.400 C 394.275 248.400,395.600 241.977,395.600 240.265 C 395.600 239.679,395.750 239.200,395.933 239.200 C 396.325 239.200,397.611 230.965,397.605 228.500 C 397.602 227.506,397.787 226.800,398.050 226.800 C 398.350 226.800,398.439 226.072,398.318 224.611 C 398.218 223.407,398.269 222.372,398.431 222.311 C 399.937 221.746,399.937 178.254,398.431 177.689 C 398.269 177.628,398.218 176.593,398.318 175.389 C 398.439 173.928,398.350 173.200,398.050 173.200 C 397.787 173.200,397.602 172.494,397.605 171.500 C 397.611 169.035,396.325 160.800,395.933 160.800 C 395.750 160.800,395.600 160.321,395.600 159.735 C 395.600 158.087,394.282 151.600,393.947 151.600 C 393.783 151.600,393.528 150.790,393.379 149.800 C 393.231 148.810,392.991 148.000,392.845 148.000 C 392.700 148.000,392.582 147.271,392.582 146.380 C 392.582 145.489,392.384 144.634,392.141 144.480 C 391.899 144.326,391.578 143.570,391.429 142.800 C 390.826 139.693,390.233 137.600,389.956 137.600 C 389.795 137.600,389.545 137.060,389.400 136.400 C 389.255 135.740,389.013 135.200,388.861 135.200 C 388.710 135.200,388.568 134.490,388.545 133.623 C 388.522 132.756,388.244 131.786,387.926 131.469 C 387.608 131.151,387.121 129.880,386.845 128.645 C 386.569 127.410,386.200 126.400,386.026 126.400 C 385.852 126.400,385.385 125.367,384.987 124.104 C 384.590 122.841,384.032 121.575,383.748 121.291 C 383.463 121.006,383.066 120.177,382.865 119.449 C 382.663 118.721,382.164 117.733,381.754 117.254 C 381.344 116.776,380.989 116.163,380.965 115.892 C 380.941 115.621,380.894 115.008,380.861 114.529 C 380.827 114.049,380.566 113.419,380.279 113.129 C 379.993 112.838,379.436 111.791,379.043 110.801 C 378.649 109.812,378.209 108.912,378.064 108.801 C 377.919 108.691,377.441 107.880,377.002 107.000 C 376.563 106.120,375.885 105.163,375.495 104.873 C 375.106 104.583,374.888 104.181,375.012 103.981 C 375.239 103.613,374.531 101.970,373.985 101.600 C 373.823 101.490,373.409 100.725,373.065 99.900 C 372.722 99.075,372.280 98.400,372.084 98.400 C 371.888 98.400,371.487 97.669,371.192 96.775 C 370.897 95.882,370.349 94.987,369.974 94.786 C 369.599 94.585,369.186 94.000,369.057 93.486 C 368.928 92.972,368.368 92.022,367.812 91.375 C 367.256 90.729,366.801 89.996,366.800 89.747 C 366.800 89.497,366.422 89.194,365.960 89.074 C 365.498 88.953,365.235 88.667,365.376 88.438 C 365.653 87.991,364.746 86.394,363.325 84.827 C 362.840 84.292,362.522 83.727,362.618 83.571 C 362.714 83.415,362.367 83.008,361.846 82.667 C 361.325 82.325,360.776 81.558,360.626 80.963 C 360.477 80.367,359.915 79.533,359.377 79.111 C 358.840 78.688,358.400 78.181,358.400 77.985 C 358.400 77.789,358.027 77.217,357.572 76.714 C 357.116 76.211,356.059 75.044,355.222 74.120 C 354.385 73.196,353.594 72.162,353.464 71.822 C 353.334 71.482,352.726 70.889,352.113 70.502 C 351.501 70.116,351.000 69.571,351.000 69.292 C 351.000 68.041,331.959 49.000,330.708 49.000 C 330.429 49.000,329.832 48.460,329.383 47.800 C 328.933 47.140,328.231 46.599,327.822 46.598 C 327.414 46.597,326.971 46.305,326.840 45.950 C 326.708 45.594,326.082 44.875,325.448 44.352 C 324.815 43.828,323.862 42.995,323.330 42.500 C 322.799 42.005,322.205 41.600,322.011 41.600 C 321.817 41.600,321.330 41.189,320.929 40.687 C 320.528 40.184,319.525 39.456,318.700 39.068 C 317.875 38.680,317.200 38.180,317.200 37.958 C 317.200 37.735,317.027 37.659,316.816 37.790 C 316.605 37.920,315.930 37.519,315.316 36.898 C 313.720 35.284,312.140 34.371,311.421 34.647 C 310.981 34.816,310.800 34.640,310.800 34.043 C 310.800 33.579,310.564 33.200,310.275 33.200 C 309.987 33.200,309.402 32.876,308.975 32.480 C 308.549 32.084,307.570 31.409,306.800 30.980 C 306.030 30.551,305.274 30.007,305.120 29.770 C 304.965 29.534,304.110 29.100,303.220 28.806 C 302.329 28.512,301.600 28.125,301.600 27.946 C 301.600 27.425,299.183 26.321,298.564 26.559 C 298.254 26.678,298.000 26.613,298.000 26.416 C 298.000 25.770,296.709 24.749,296.159 24.960 C 295.864 25.074,295.392 24.858,295.111 24.481 C 294.830 24.104,293.880 23.437,293.000 22.998 C 292.120 22.559,291.309 22.081,291.199 21.936 C 291.088 21.791,290.188 21.351,289.199 20.957 C 288.209 20.564,287.149 19.994,286.842 19.692 C 286.514 19.368,285.898 19.239,285.342 19.379 C 284.662 19.549,284.400 19.446,284.400 19.008 C 284.400 18.673,284.130 18.400,283.800 18.400 C 283.470 18.400,283.200 18.264,283.200 18.097 C 283.200 17.646,280.132 16.774,279.457 17.033 C 279.104 17.169,278.777 16.959,278.633 16.504 C 278.474 16.003,277.587 15.508,275.997 15.032 C 274.679 14.637,273.600 14.166,273.600 13.985 C 273.600 13.805,272.590 13.431,271.355 13.155 C 270.120 12.879,268.893 12.436,268.628 12.170 C 268.362 11.905,266.853 11.374,265.273 10.990 C 263.693 10.606,262.400 10.170,262.400 10.022 C 262.400 9.562,258.482 8.720,257.617 8.994 C 257.143 9.145,256.800 9.075,256.800 8.827 C 256.800 8.592,256.545 8.400,256.233 8.400 C 255.922 8.400,255.605 8.216,255.530 7.991 C 255.455 7.765,253.865 7.272,251.997 6.895 C 250.129 6.518,248.489 6.055,248.353 5.867 C 248.217 5.679,247.183 5.497,246.054 5.462 C 244.925 5.428,244.001 5.245,244.000 5.057 C 244.000 4.868,243.550 4.826,243.000 4.964 C 242.423 5.109,242.000 5.043,242.000 4.808 C 242.000 4.583,241.370 4.400,240.600 4.400 C 239.830 4.400,239.200 4.250,239.200 4.067 C 239.200 3.710,231.055 2.388,228.900 2.395 C 228.185 2.398,227.600 2.199,227.600 1.953 C 227.600 1.654,226.748 1.561,225.006 1.672 C 223.580 1.763,222.365 1.707,222.306 1.548 C 222.136 1.085,209.806 0.305,205.100 0.459 C 202.734 0.537,200.799 0.465,200.800 0.300 C 200.800 0.135,200.395 0.029,199.900 0.065 C 199.405 0.101,195.670 0.258,191.600 0.414 M213.200 28.941 C 213.200 29.129,214.730 29.219,216.600 29.141 C 218.470 29.063,220.000 29.135,220.000 29.300 C 220.000 29.465,220.720 29.600,221.600 29.600 C 222.480 29.600,223.200 29.755,223.200 29.944 C 223.200 30.133,224.145 30.395,225.300 30.526 C 231.755 31.255,234.628 31.729,234.860 32.100 C 235.005 32.333,235.652 32.410,236.331 32.274 C 236.998 32.140,237.602 32.205,237.673 32.418 C 237.744 32.631,238.971 33.009,240.401 33.258 C 241.830 33.507,243.090 33.828,243.200 33.972 C 243.535 34.409,249.588 35.690,250.203 35.454 C 250.520 35.333,250.919 35.475,251.089 35.771 C 251.402 36.314,254.726 37.600,255.814 37.600 C 256.136 37.600,256.400 37.794,256.400 38.032 C 256.400 38.299,256.837 38.367,257.549 38.211 C 258.363 38.032,258.764 38.129,258.922 38.542 C 259.045 38.862,259.698 39.246,260.373 39.394 C 261.048 39.542,261.600 39.787,261.600 39.937 C 261.600 40.087,262.770 40.545,264.200 40.955 C 265.630 41.364,266.800 41.860,266.800 42.057 C 266.800 42.254,267.250 42.302,267.800 42.164 C 268.436 42.005,268.800 42.082,268.800 42.377 C 268.800 42.633,269.340 43.030,270.000 43.260 C 270.660 43.490,271.200 43.817,271.200 43.987 C 271.200 44.157,272.015 44.524,273.011 44.803 C 274.007 45.082,274.952 45.527,275.111 45.792 C 275.453 46.364,279.158 47.673,279.621 47.387 C 279.798 47.278,280.054 47.540,280.190 47.969 C 280.327 48.399,281.060 48.956,281.819 49.206 C 282.579 49.457,283.200 49.788,283.200 49.941 C 283.200 50.095,284.008 50.576,284.996 51.010 C 285.984 51.445,286.794 51.908,286.796 52.039 C 286.798 52.171,287.565 52.616,288.500 53.028 C 289.435 53.440,290.331 53.984,290.491 54.236 C 290.650 54.489,291.325 54.921,291.991 55.196 C 292.656 55.472,293.200 55.847,293.200 56.030 C 293.200 56.213,293.869 56.680,294.687 57.068 C 295.504 57.456,296.494 58.049,296.887 58.387 C 297.279 58.724,297.950 59.305,298.379 59.679 C 298.807 60.052,299.707 60.642,300.379 60.989 C 301.050 61.336,301.600 61.755,301.600 61.919 C 301.600 62.084,302.230 62.557,303.000 62.972 C 303.770 63.387,304.400 63.872,304.400 64.050 C 304.400 64.229,304.670 64.271,305.000 64.145 C 305.348 64.011,305.608 64.142,305.618 64.457 C 305.629 64.756,306.104 65.360,306.676 65.800 C 307.247 66.240,308.147 67.005,308.675 67.500 C 309.204 67.995,309.795 68.400,309.989 68.400 C 310.183 68.400,310.670 68.817,311.071 69.326 C 311.472 69.835,312.306 70.583,312.925 70.988 C 313.544 71.394,315.074 72.735,316.325 73.969 C 317.576 75.203,318.870 76.209,319.200 76.206 C 319.530 76.203,319.800 76.469,319.800 76.798 C 319.800 77.127,321.724 79.346,324.075 81.730 C 326.426 84.113,328.664 86.544,329.049 87.132 C 329.434 87.719,330.165 88.528,330.674 88.929 C 331.183 89.330,331.600 89.817,331.600 90.011 C 331.600 90.205,332.005 90.796,332.500 91.325 C 332.995 91.853,333.760 92.753,334.200 93.324 C 334.640 93.896,335.244 94.371,335.543 94.382 C 335.858 94.392,335.989 94.652,335.855 95.000 C 335.729 95.330,335.771 95.600,335.950 95.600 C 336.128 95.600,336.613 96.230,337.028 97.000 C 337.443 97.770,337.916 98.400,338.081 98.400 C 338.245 98.400,338.664 98.950,339.011 99.621 C 339.615 100.788,339.893 101.166,341.513 103.013 C 341.906 103.461,342.544 104.496,342.932 105.313 C 343.320 106.131,343.776 106.800,343.945 106.800 C 344.114 106.800,344.552 107.430,344.919 108.200 C 345.287 108.970,345.770 109.600,345.994 109.600 C 346.217 109.600,346.400 109.870,346.400 110.200 C 346.400 110.530,346.767 111.167,347.215 111.615 C 347.663 112.063,347.922 112.603,347.791 112.815 C 347.660 113.027,347.698 113.202,347.876 113.204 C 348.054 113.206,348.555 114.016,348.990 115.004 C 349.424 115.992,349.894 116.800,350.035 116.800 C 350.176 116.800,350.614 117.655,351.008 118.700 C 351.402 119.745,351.941 120.730,352.207 120.889 C 352.473 121.048,352.915 121.982,353.190 122.963 C 353.465 123.945,353.911 124.834,354.183 124.938 C 354.454 125.042,354.907 125.954,355.190 126.964 C 355.473 127.974,355.847 128.800,356.021 128.800 C 356.320 128.800,357.238 131.098,357.456 132.393 C 357.511 132.719,357.726 133.042,357.934 133.111 C 358.142 133.181,358.644 134.399,359.051 135.819 C 359.457 137.238,359.907 138.400,360.051 138.400 C 360.194 138.400,360.628 139.570,361.015 141.000 C 361.402 142.430,361.852 143.600,362.015 143.600 C 362.178 143.600,362.436 144.275,362.589 145.100 C 362.742 145.925,363.140 146.904,363.473 147.275 C 363.806 147.646,363.960 148.141,363.816 148.375 C 363.671 148.609,363.846 148.800,364.203 148.800 C 364.675 148.800,364.783 149.023,364.596 149.613 C 364.338 150.424,365.533 156.421,366.028 156.800 C 366.172 156.910,366.493 158.170,366.742 159.599 C 366.991 161.029,367.363 162.254,367.568 162.323 C 367.774 162.391,367.842 163.067,367.719 163.824 C 367.584 164.651,367.661 165.200,367.910 165.200 C 368.138 165.200,368.439 166.145,368.579 167.300 C 369.421 174.269,369.796 176.626,370.096 176.834 C 370.281 176.962,370.543 179.257,370.677 181.934 C 370.812 184.610,371.030 186.800,371.161 186.800 C 371.475 186.800,371.473 212.940,371.159 213.200 C 371.026 213.310,370.800 215.550,370.656 218.178 C 370.512 220.806,370.251 223.056,370.076 223.178 C 369.794 223.375,369.413 225.794,368.579 232.700 C 368.439 233.855,368.141 234.800,367.917 234.800 C 367.691 234.800,367.588 235.336,367.685 236.000 C 367.782 236.660,367.729 237.200,367.567 237.200 C 367.206 237.200,366.263 242.590,366.500 243.294 C 366.594 243.572,366.424 243.982,366.122 244.204 C 365.388 244.745,364.283 249.081,364.579 250.260 C 364.748 250.931,364.645 251.200,364.220 251.200 C 363.835 251.200,363.713 251.430,363.874 251.850 C 364.021 252.233,363.867 252.643,363.497 252.850 C 363.152 253.043,362.749 253.920,362.600 254.800 C 362.451 255.680,362.192 256.400,362.024 256.400 C 361.856 256.400,361.402 257.570,361.015 259.000 C 360.628 260.430,360.194 261.600,360.051 261.600 C 359.907 261.600,359.455 262.770,359.045 264.200 C 358.636 265.630,358.156 266.800,357.979 266.800 C 357.802 266.800,357.373 267.775,357.027 268.967 C 356.680 270.159,356.201 271.200,355.962 271.279 C 355.722 271.359,355.502 271.959,355.472 272.612 C 355.442 273.266,355.033 274.174,354.562 274.631 C 354.092 275.088,353.483 276.168,353.210 277.031 C 352.936 277.894,352.450 278.809,352.129 279.064 C 351.809 279.319,351.568 279.589,351.595 279.664 C 351.676 279.895,350.326 282.988,350.051 283.200 C 349.909 283.310,349.434 284.117,348.996 284.994 C 348.558 285.871,348.003 286.800,347.763 287.060 C 347.522 287.319,347.083 288.132,346.786 288.866 C 346.490 289.600,346.008 290.346,345.715 290.525 C 345.423 290.703,345.288 291.018,345.416 291.225 C 345.543 291.432,345.135 292.096,344.508 292.701 C 343.881 293.305,343.105 294.335,342.784 294.988 C 342.196 296.184,341.848 296.669,340.421 298.279 C 339.993 298.762,339.358 299.707,339.011 300.379 C 338.664 301.050,338.245 301.600,338.081 301.600 C 337.916 301.600,337.443 302.230,337.028 303.000 C 336.613 303.770,336.092 304.400,335.870 304.400 C 335.648 304.400,335.569 304.503,335.695 304.628 C 335.900 304.834,335.353 305.523,332.500 308.650 C 332.005 309.192,331.600 309.769,331.600 309.930 C 331.600 310.092,330.960 310.828,330.178 311.565 C 329.392 312.306,328.849 313.152,328.965 313.453 C 329.081 313.754,328.984 314.000,328.750 314.000 C 328.035 314.000,323.600 318.636,323.600 319.384 C 323.600 319.771,323.376 320.008,323.100 319.912 C 322.485 319.697,319.800 322.373,319.800 323.200 C 319.800 323.530,319.530 323.797,319.200 323.794 C 318.870 323.791,317.576 324.797,316.325 326.031 C 315.074 327.265,313.544 328.606,312.925 329.012 C 312.306 329.417,311.472 330.165,311.071 330.674 C 310.670 331.183,310.183 331.600,309.989 331.600 C 309.795 331.600,309.204 332.005,308.675 332.500 C 308.147 332.995,307.247 333.760,306.676 334.200 C 306.104 334.640,305.629 335.244,305.618 335.543 C 305.608 335.858,305.348 335.989,305.000 335.855 C 304.670 335.729,304.400 335.771,304.400 335.950 C 304.400 336.128,303.770 336.613,303.000 337.028 C 302.230 337.443,301.600 337.916,301.600 338.081 C 301.600 338.245,301.050 338.664,300.379 339.011 C 299.707 339.358,298.807 339.948,298.379 340.321 C 296.558 341.908,296.115 342.230,294.988 342.784 C 294.335 343.105,293.305 343.881,292.701 344.508 C 292.096 345.135,291.432 345.543,291.225 345.416 C 291.018 345.288,290.703 345.423,290.525 345.715 C 290.346 346.008,289.600 346.490,288.866 346.786 C 288.132 347.083,287.319 347.522,287.060 347.763 C 286.800 348.003,285.871 348.558,284.994 348.996 C 284.117 349.434,283.310 349.909,283.200 350.051 C 282.972 350.346,280.120 351.575,279.729 351.547 C 279.587 351.537,279.326 351.790,279.147 352.109 C 278.968 352.429,278.018 352.915,277.037 353.190 C 276.055 353.465,275.166 353.911,275.062 354.183 C 274.958 354.454,274.046 354.907,273.036 355.190 C 272.026 355.473,271.200 355.856,271.200 356.041 C 271.200 356.226,270.210 356.665,269.000 357.017 C 267.790 357.369,266.800 357.802,266.800 357.979 C 266.800 358.156,265.630 358.636,264.200 359.045 C 262.770 359.455,261.600 359.907,261.600 360.051 C 261.600 360.194,260.430 360.628,259.000 361.015 C 257.570 361.402,256.400 361.872,256.400 362.059 C 256.400 362.247,256.151 362.400,255.846 362.400 C 254.582 362.400,251.200 363.760,251.200 364.268 C 251.200 364.643,250.903 364.741,250.260 364.579 C 249.102 364.289,244.756 365.381,244.204 366.102 C 243.982 366.392,243.496 366.566,243.124 366.490 C 242.136 366.286,237.821 367.146,237.676 367.575 C 237.608 367.777,236.933 367.842,236.176 367.719 C 235.375 367.589,234.800 367.663,234.800 367.896 C 234.800 368.117,233.855 368.412,232.700 368.553 C 226.177 369.347,223.377 369.792,223.185 370.065 C 223.067 370.233,220.997 370.482,218.585 370.617 C 216.173 370.752,213.941 370.946,213.624 371.048 C 212.756 371.327,186.800 371.436,186.800 371.161 C 186.800 371.030,184.610 370.812,181.934 370.677 C 179.257 370.543,176.962 370.281,176.834 370.096 C 176.626 369.796,174.269 369.421,167.300 368.579 C 166.145 368.439,165.200 368.187,165.200 368.018 C 165.200 367.849,163.310 367.387,161.000 366.991 C 158.690 366.595,156.800 366.090,156.800 365.869 C 156.800 365.648,156.705 365.561,156.590 365.677 C 156.474 365.792,155.173 365.552,153.699 365.143 C 152.224 364.735,150.608 364.400,150.109 364.400 C 149.609 364.400,149.200 364.217,149.200 363.992 C 149.200 363.764,148.785 363.689,148.254 363.822 C 147.622 363.981,147.233 363.864,147.082 363.470 C 146.958 363.145,146.123 362.756,145.228 362.605 C 144.333 362.453,143.600 362.192,143.600 362.024 C 143.600 361.856,142.430 361.402,141.000 361.015 C 139.570 360.628,138.400 360.194,138.400 360.051 C 138.400 359.907,137.230 359.455,135.800 359.045 C 134.370 358.636,133.200 358.156,133.200 357.979 C 133.200 357.802,132.225 357.373,131.033 357.027 C 129.841 356.680,128.800 356.201,128.721 355.962 C 128.641 355.722,128.041 355.502,127.388 355.472 C 126.734 355.442,125.826 355.033,125.369 354.562 C 124.912 354.092,123.832 353.483,122.969 353.210 C 122.106 352.936,121.220 352.492,121.000 352.224 C 120.780 351.956,119.745 351.411,118.700 351.014 C 117.655 350.616,116.800 350.125,116.800 349.922 C 116.800 349.719,116.606 349.673,116.369 349.819 C 116.133 349.965,115.586 349.706,115.154 349.243 C 114.722 348.779,114.106 348.400,113.784 348.400 C 113.463 348.400,113.200 348.209,113.200 347.976 C 113.200 347.743,113.027 347.660,112.815 347.791 C 112.603 347.922,112.063 347.663,111.615 347.215 C 111.167 346.767,110.549 346.400,110.243 346.400 C 109.936 346.400,109.578 346.119,109.446 345.775 C 109.314 345.431,109.024 345.262,108.802 345.399 C 108.580 345.536,107.904 345.135,107.299 344.508 C 106.695 343.881,105.665 343.105,105.012 342.784 C 103.885 342.230,103.442 341.908,101.621 340.321 C 101.193 339.948,100.293 339.358,99.621 339.011 C 98.950 338.664,98.400 338.245,98.400 338.081 C 98.400 337.916,97.770 337.443,97.000 337.028 C 96.230 336.613,95.600 336.122,95.600 335.937 C 95.600 335.752,95.456 335.645,95.280 335.700 C 95.104 335.755,94.370 335.260,93.649 334.600 C 92.929 333.940,91.894 332.995,91.351 332.500 C 90.808 332.005,90.231 331.600,90.070 331.600 C 89.908 331.600,89.172 330.960,88.435 330.178 C 87.694 329.392,86.848 328.849,86.547 328.965 C 86.246 329.081,86.000 328.984,86.000 328.750 C 86.000 328.027,81.431 323.705,80.873 323.900 C 80.575 324.004,80.400 323.847,80.471 323.540 C 80.633 322.831,77.169 319.367,76.460 319.529 C 76.153 319.600,75.996 319.425,76.100 319.127 C 76.295 318.569,71.973 314.000,71.250 314.000 C 71.016 314.000,70.919 313.754,71.035 313.453 C 71.151 313.152,70.608 312.306,69.822 311.565 C 69.040 310.828,68.400 310.092,68.400 309.930 C 68.400 309.769,67.995 309.204,67.500 308.675 C 67.005 308.147,66.240 307.233,65.800 306.644 C 65.360 306.054,64.504 304.998,63.898 304.295 C 63.292 303.592,62.695 302.698,62.571 302.309 C 62.447 301.919,62.183 301.600,61.983 301.600 C 61.784 301.600,61.336 301.050,60.989 300.379 C 60.642 299.707,60.097 298.852,59.779 298.479 C 59.460 298.105,58.885 297.435,58.500 296.988 C 58.115 296.541,57.537 295.641,57.216 294.988 C 56.895 294.335,56.119 293.305,55.492 292.701 C 54.865 292.096,54.464 291.420,54.601 291.198 C 54.738 290.976,54.569 290.686,54.225 290.554 C 53.881 290.422,53.600 290.064,53.600 289.757 C 53.600 289.451,53.233 288.833,52.785 288.385 C 52.337 287.937,52.078 287.397,52.209 287.185 C 52.340 286.973,52.276 286.800,52.067 286.800 C 51.858 286.800,51.574 286.350,51.436 285.800 C 51.298 285.250,50.897 284.800,50.546 284.800 C 50.104 284.800,49.971 284.553,50.116 284.000 C 50.231 283.560,50.186 283.200,50.017 283.200 C 49.847 283.200,49.386 282.345,48.992 281.300 C 48.598 280.255,48.059 279.270,47.793 279.111 C 47.527 278.952,47.085 278.018,46.810 277.037 C 46.535 276.055,46.089 275.166,45.817 275.062 C 45.546 274.958,45.093 274.046,44.810 273.036 C 44.527 272.026,44.144 271.200,43.959 271.200 C 43.774 271.200,43.335 270.210,42.983 269.000 C 42.631 267.790,42.198 266.800,42.021 266.800 C 41.844 266.800,41.364 265.630,40.955 264.200 C 40.545 262.770,40.093 261.600,39.949 261.600 C 39.806 261.600,39.372 260.430,38.985 259.000 C 38.598 257.570,38.128 256.400,37.941 256.400 C 37.753 256.400,37.600 256.136,37.600 255.814 C 37.600 254.726,36.314 251.402,35.771 251.089 C 35.475 250.919,35.335 250.513,35.460 250.189 C 35.693 249.580,34.516 244.109,33.999 243.400 C 33.838 243.180,33.390 241.200,33.002 239.000 C 32.615 236.800,32.159 234.910,31.990 234.800 C 31.715 234.621,31.206 231.322,30.526 225.300 C 30.395 224.145,30.133 223.200,29.944 223.200 C 29.755 223.200,29.600 222.480,29.600 221.600 C 29.600 220.720,29.465 220.000,29.300 220.000 C 29.135 220.000,29.063 218.470,29.141 216.600 C 29.219 214.730,29.129 213.200,28.941 213.200 C 28.753 213.200,28.600 207.260,28.600 200.000 C 28.600 192.740,28.753 186.800,28.941 186.800 C 29.129 186.800,29.219 185.270,29.141 183.400 C 29.063 181.530,29.135 180.000,29.300 180.000 C 29.465 180.000,29.600 179.280,29.600 178.400 C 29.600 177.520,29.755 176.800,29.944 176.800 C 30.133 176.800,30.395 175.855,30.526 174.700 C 31.206 168.678,31.715 165.379,31.990 165.200 C 32.426 164.917,33.737 157.335,33.471 156.641 C 33.350 156.325,33.500 155.971,33.804 155.854 C 34.443 155.608,35.280 152.907,35.415 150.652 C 35.466 149.801,35.687 148.991,35.907 148.852 C 36.346 148.575,37.600 145.118,37.600 144.186 C 37.600 143.864,37.753 143.600,37.941 143.600 C 38.128 143.600,38.598 142.430,38.985 141.000 C 39.372 139.570,39.806 138.400,39.949 138.400 C 40.093 138.400,40.545 137.230,40.955 135.800 C 41.364 134.370,41.844 133.200,42.021 133.200 C 42.198 133.200,42.631 132.210,42.983 131.000 C 43.335 129.790,43.774 128.800,43.959 128.800 C 44.144 128.800,44.527 127.974,44.810 126.964 C 45.093 125.954,45.546 125.042,45.817 124.938 C 46.089 124.834,46.535 123.945,46.810 122.963 C 47.085 121.982,47.527 121.048,47.793 120.889 C 48.059 120.730,48.598 119.745,48.992 118.700 C 49.386 117.655,49.824 116.800,49.965 116.800 C 50.106 116.800,50.576 115.992,51.010 115.004 C 51.445 114.016,51.946 113.206,52.124 113.204 C 52.302 113.202,52.340 113.027,52.209 112.815 C 52.078 112.603,52.337 112.063,52.785 111.615 C 53.233 111.167,53.600 110.549,53.600 110.243 C 53.600 109.936,53.881 109.578,54.225 109.446 C 54.569 109.314,54.738 109.024,54.601 108.802 C 54.464 108.580,54.865 107.904,55.492 107.299 C 56.119 106.695,56.895 105.665,57.216 105.012 C 57.770 103.885,58.092 103.442,59.679 101.621 C 60.052 101.193,60.642 100.293,60.989 99.621 C 61.336 98.950,61.784 98.400,61.983 98.400 C 62.183 98.400,62.447 98.081,62.571 97.691 C 62.695 97.302,63.292 96.408,63.898 95.705 C 64.504 95.002,65.360 93.946,65.800 93.356 C 66.240 92.767,67.005 91.853,67.500 91.325 C 67.995 90.796,68.400 90.205,68.400 90.011 C 68.400 89.817,68.817 89.330,69.326 88.929 C 69.835 88.528,70.583 87.694,70.988 87.075 C 71.394 86.456,72.751 84.926,74.005 83.675 C 75.259 82.424,76.201 81.163,76.100 80.873 C 75.996 80.576,76.153 80.400,76.458 80.469 C 77.055 80.606,86.000 71.981,86.000 71.269 C 86.000 71.025,86.246 70.919,86.547 71.035 C 86.848 71.151,87.694 70.608,88.435 69.822 C 89.172 69.040,89.908 68.400,90.070 68.400 C 90.231 68.400,90.796 67.995,91.325 67.500 C 91.853 67.005,92.767 66.240,93.356 65.800 C 93.946 65.360,95.002 64.504,95.705 63.898 C 96.408 63.292,97.302 62.695,97.691 62.571 C 98.081 62.447,98.400 62.183,98.400 61.983 C 98.400 61.784,98.950 61.336,99.621 60.989 C 100.293 60.642,101.148 60.097,101.521 59.779 C 101.895 59.460,102.565 58.885,103.012 58.500 C 103.459 58.115,104.359 57.537,105.012 57.216 C 105.665 56.895,106.695 56.119,107.299 55.492 C 107.904 54.865,108.580 54.464,108.802 54.601 C 109.024 54.738,109.314 54.569,109.446 54.225 C 109.578 53.881,109.936 53.600,110.243 53.600 C 110.549 53.600,111.167 53.233,111.615 52.785 C 112.063 52.337,112.603 52.078,112.815 52.209 C 113.027 52.340,113.200 52.257,113.200 52.024 C 113.200 51.791,113.470 51.600,113.800 51.600 C 114.130 51.600,114.767 51.233,115.215 50.785 C 115.663 50.337,116.203 50.078,116.415 50.209 C 116.627 50.340,116.800 50.281,116.800 50.078 C 116.800 49.875,117.655 49.384,118.700 48.986 C 119.745 48.589,120.780 48.044,121.000 47.776 C 121.220 47.508,122.106 47.064,122.969 46.790 C 123.832 46.517,124.912 45.908,125.369 45.438 C 125.826 44.967,126.734 44.558,127.388 44.528 C 128.041 44.498,128.641 44.278,128.721 44.038 C 128.800 43.799,129.841 43.320,131.033 42.973 C 132.225 42.627,133.200 42.198,133.200 42.021 C 133.200 41.844,134.370 41.364,135.800 40.955 C 137.230 40.545,138.400 40.093,138.400 39.949 C 138.400 39.806,139.570 39.372,141.000 38.985 C 142.430 38.598,143.600 38.153,143.600 37.995 C 143.600 37.838,144.688 37.478,146.017 37.196 C 147.607 36.859,148.572 36.426,148.837 35.931 C 149.059 35.516,149.428 35.294,149.657 35.436 C 150.306 35.836,154.861 34.739,155.594 34.006 C 155.955 33.645,156.476 33.425,156.752 33.517 C 157.423 33.741,164.945 32.381,165.200 31.990 C 165.379 31.715,168.678 31.206,174.700 30.526 C 175.855 30.395,176.800 30.133,176.800 29.944 C 176.800 29.755,177.520 29.600,178.400 29.600 C 179.280 29.600,180.000 29.465,180.000 29.300 C 180.000 29.135,181.530 29.063,183.400 29.141 C 185.270 29.219,186.800 29.129,186.800 28.941 C 186.800 28.753,192.740 28.600,200.000 28.600 C 207.260 28.600,213.200 28.753,213.200 28.941 M298.680 122.136 C 298.547 122.481,298.042 122.609,297.260 122.494 C 295.988 122.307,292.400 123.459,292.400 124.054 C 292.400 124.244,292.159 124.400,291.865 124.400 C 291.130 124.400,287.200 128.285,287.200 129.012 C 287.200 129.335,286.923 129.600,286.584 129.600 C 285.878 129.600,282.800 132.692,282.800 133.401 C 282.800 133.660,282.082 134.215,281.205 134.636 C 280.327 135.056,279.606 135.580,279.602 135.800 C 279.592 136.298,276.265 139.598,275.766 139.605 C 275.565 139.607,275.056 140.327,274.636 141.205 C 274.215 142.082,273.660 142.800,273.401 142.800 C 272.716 142.800,269.600 145.867,269.600 146.541 C 269.600 146.856,269.153 147.226,268.606 147.363 C 267.993 147.517,267.517 147.993,267.363 148.606 C 267.226 149.153,266.861 149.600,266.554 149.600 C 266.246 149.600,264.773 150.860,263.281 152.400 C 261.790 153.940,260.351 155.200,260.084 155.200 C 259.818 155.200,259.599 155.425,259.597 155.700 C 259.593 156.328,256.295 159.600,255.666 159.600 C 255.410 159.600,255.200 159.818,255.200 160.084 C 255.200 160.351,253.940 161.790,252.400 163.281 C 250.860 164.773,249.600 166.246,249.600 166.554 C 249.600 166.861,249.153 167.226,248.606 167.363 C 247.993 167.517,247.517 167.993,247.363 168.606 C 247.226 169.153,246.861 169.600,246.554 169.600 C 246.246 169.600,244.773 170.860,243.281 172.400 C 241.790 173.940,240.351 175.200,240.084 175.200 C 239.818 175.200,239.599 175.425,239.597 175.700 C 239.593 176.328,236.295 179.600,235.666 179.600 C 235.410 179.600,235.200 179.818,235.200 180.084 C 235.200 180.351,233.940 181.790,232.400 183.281 C 230.860 184.773,229.600 186.246,229.600 186.554 C 229.600 186.861,229.153 187.226,228.606 187.363 C 227.993 187.517,227.517 187.993,227.363 188.606 C 227.226 189.153,226.861 189.600,226.554 189.600 C 226.246 189.600,224.773 190.860,223.281 192.400 C 221.790 193.940,220.351 195.200,220.084 195.200 C 219.818 195.200,219.599 195.425,219.597 195.700 C 219.593 196.328,216.295 199.600,215.666 199.600 C 215.410 199.600,215.200 199.805,215.200 200.056 C 215.200 200.307,212.950 202.758,210.200 205.502 C 207.450 208.246,205.200 210.741,205.200 211.045 C 205.200 211.350,204.932 211.600,204.604 211.600 C 204.276 211.600,203.245 212.410,202.314 213.400 C 201.382 214.390,200.390 215.200,200.110 215.200 C 199.829 215.200,199.599 215.425,199.597 215.700 C 199.593 216.328,196.295 219.600,195.666 219.600 C 195.410 219.600,195.200 219.829,195.200 220.110 C 195.200 220.390,194.390 221.382,193.400 222.314 C 192.410 223.245,191.600 224.276,191.600 224.604 C 191.600 224.932,191.353 225.200,191.052 225.200 C 190.338 225.200,185.200 230.338,185.200 231.052 C 185.200 231.353,184.932 231.600,184.604 231.600 C 184.276 231.600,183.245 232.410,182.314 233.400 C 181.382 234.390,180.390 235.200,180.110 235.200 C 179.829 235.200,179.600 235.425,179.600 235.700 C 179.599 235.975,178.886 236.892,178.015 237.737 C 177.143 238.582,176.321 239.617,176.188 240.037 C 176.055 240.457,175.703 240.800,175.406 240.800 C 175.108 240.800,174.271 241.430,173.544 242.200 C 172.818 242.970,172.023 243.600,171.777 243.600 C 171.532 243.600,157.179 229.455,139.883 212.167 C 113.662 185.959,108.300 180.778,107.618 180.994 C 106.990 181.193,106.800 181.077,106.800 180.496 C 106.800 179.912,106.331 179.629,104.769 179.269 C 100.417 178.264,93.600 179.007,93.600 180.486 C 93.600 180.898,93.375 181.206,93.100 181.170 C 92.825 181.134,92.408 181.127,92.173 181.153 C 91.549 181.222,88.800 183.746,88.800 184.249 C 88.800 184.485,88.441 185.091,88.003 185.597 C 85.679 188.277,85.856 197.999,88.279 200.769 C 89.343 201.985,162.250 274.958,163.064 275.622 C 164.359 276.678,167.130 277.600,169.008 277.600 C 170.168 277.600,170.804 277.776,170.812 278.100 C 170.820 278.405,170.971 278.350,171.200 277.958 C 171.491 277.459,172.019 277.358,173.550 277.505 C 175.407 277.683,179.200 276.702,179.200 276.043 C 179.200 275.907,179.719 275.566,180.353 275.285 C 181.860 274.618,310.618 145.860,311.285 144.353 C 311.566 143.719,311.926 143.200,312.085 143.200 C 312.244 143.200,312.271 142.930,312.145 142.600 C 312.018 142.270,312.124 142.000,312.381 142.000 C 312.637 142.000,312.724 141.800,312.572 141.555 C 312.421 141.311,312.546 140.957,312.849 140.769 C 314.117 139.984,313.306 129.200,311.978 129.200 C 311.800 129.200,311.528 128.795,311.374 128.300 C 311.031 127.195,308.789 124.810,308.087 124.804 C 307.806 124.802,307.475 124.539,307.352 124.219 C 307.097 123.556,304.608 122.624,304.035 122.978 C 303.826 123.107,303.542 123.030,303.404 122.807 C 303.266 122.583,302.533 122.400,301.776 122.400 C 301.019 122.400,300.400 122.220,300.400 122.000 C 300.400 121.401,298.917 121.518,298.680 122.136 " stroke="none" fill="#fcfcfc" fill-rule="evenodd"></path><path id="path1" d="M116.800 18.000 C 116.800 18.220,116.519 18.400,116.176 18.400 C 115.833 18.400,115.662 18.576,115.795 18.792 C 115.947 19.039,116.327 19.003,116.819 18.696 C 117.656 18.173,117.855 17.600,117.200 17.600 C 116.980 17.600,116.800 17.780,116.800 18.000 M113.600 19.600 C 113.600 19.820,113.870 20.000,114.200 20.000 C 114.530 20.000,114.800 19.820,114.800 19.600 C 114.800 19.380,114.530 19.200,114.200 19.200 C 113.870 19.200,113.600 19.380,113.600 19.600 M297.854 26.198 C 297.981 26.526,298.245 26.696,298.442 26.574 C 299.007 26.225,298.860 25.600,298.213 25.600 C 297.856 25.600,297.715 25.835,297.854 26.198 M211.800 28.800 C 211.664 29.020,211.923 29.200,212.376 29.200 C 212.829 29.200,213.200 29.020,213.200 28.800 C 213.200 28.580,212.941 28.400,212.624 28.400 C 212.307 28.400,211.936 28.580,211.800 28.800 M155.854 33.802 C 155.715 34.165,155.856 34.400,156.213 34.400 C 156.860 34.400,157.007 33.775,156.442 33.426 C 156.245 33.304,155.981 33.474,155.854 33.802 M310.800 34.200 C 310.800 34.530,310.980 34.800,311.200 34.800 C 311.420 34.800,311.600 34.530,311.600 34.200 C 311.600 33.870,311.420 33.600,311.200 33.600 C 310.980 33.600,310.800 33.870,310.800 34.200 M257.600 38.400 C 257.600 38.620,257.870 38.800,258.200 38.800 C 258.530 38.800,258.800 38.620,258.800 38.400 C 258.800 38.180,258.530 38.000,258.200 38.000 C 257.870 38.000,257.600 38.180,257.600 38.400 M267.600 42.400 C 267.600 42.620,267.870 42.800,268.200 42.800 C 268.530 42.800,268.800 42.620,268.800 42.400 C 268.800 42.180,268.530 42.000,268.200 42.000 C 267.870 42.000,267.600 42.180,267.600 42.400 M279.410 47.584 C 279.071 48.133,279.371 48.545,279.962 48.342 C 280.204 48.258,280.235 47.976,280.037 47.657 C 279.787 47.255,279.625 47.236,279.410 47.584 M318.875 76.425 C 318.971 76.714,319.286 77.029,319.575 77.125 C 319.875 77.225,320.025 77.075,319.925 76.775 C 319.829 76.486,319.514 76.171,319.225 76.075 C 318.925 75.975,318.775 76.125,318.875 76.425 M18.400 116.120 C 18.400 116.494,18.220 116.800,18.000 116.800 C 17.780 116.800,17.600 116.980,17.600 117.200 C 17.600 117.420,17.851 117.600,18.157 117.600 C 18.886 117.600,19.343 116.383,18.813 115.853 C 18.529 115.569,18.400 115.652,18.400 116.120 M381.109 115.824 C 380.802 116.320,381.898 117.835,382.284 117.449 C 382.445 117.288,382.384 117.031,382.148 116.878 C 381.913 116.725,381.636 116.339,381.533 116.020 C 381.431 115.701,381.239 115.613,381.109 115.824 M297.817 121.972 C 297.544 122.414,298.175 122.892,298.544 122.522 C 298.925 122.142,298.854 121.600,298.424 121.600 C 298.217 121.600,297.944 121.768,297.817 121.972 M281.600 133.787 C 281.600 134.145,281.835 134.285,282.200 134.145 C 282.530 134.018,282.800 133.754,282.800 133.557 C 282.800 133.361,282.530 133.200,282.200 133.200 C 281.870 133.200,281.600 133.464,281.600 133.787 M273.200 142.200 C 273.200 142.530,273.361 142.800,273.557 142.800 C 273.754 142.800,274.018 142.530,274.145 142.200 C 274.285 141.835,274.145 141.600,273.787 141.600 C 273.464 141.600,273.200 141.870,273.200 142.200 M363.600 149.200 C 363.600 149.420,363.870 149.600,364.200 149.600 C 364.530 149.600,364.800 149.420,364.800 149.200 C 364.800 148.980,364.530 148.800,364.200 148.800 C 363.870 148.800,363.600 148.980,363.600 149.200 M33.657 155.963 C 33.255 156.213,33.236 156.375,33.584 156.590 C 34.133 156.929,34.545 156.629,34.342 156.038 C 34.258 155.796,33.976 155.765,33.657 155.963 M1.600 172.800 C 1.600 173.020,1.870 173.200,2.200 173.200 C 2.530 173.200,2.800 173.020,2.800 172.800 C 2.800 172.580,2.530 172.400,2.200 172.400 C 1.870 172.400,1.600 172.580,1.600 172.800 M1.600 227.200 C 1.600 227.420,1.870 227.600,2.200 227.600 C 2.530 227.600,2.800 227.420,2.800 227.200 C 2.800 226.980,2.530 226.800,2.200 226.800 C 1.870 226.800,1.600 226.980,1.600 227.200 M175.200 240.200 C 175.200 240.530,175.361 240.800,175.557 240.800 C 175.754 240.800,176.018 240.530,176.145 240.200 C 176.285 239.835,176.145 239.600,175.787 239.600 C 175.464 239.600,175.200 239.870,175.200 240.200 M365.600 243.787 C 365.600 244.144,365.835 244.285,366.198 244.146 C 366.526 244.019,366.696 243.755,366.574 243.558 C 366.225 242.993,365.600 243.140,365.600 243.787 M363.600 250.800 C 363.600 251.020,363.870 251.200,364.200 251.200 C 364.530 251.200,364.800 251.020,364.800 250.800 C 364.800 250.580,364.530 250.400,364.200 250.400 C 363.870 250.400,363.600 250.580,363.600 250.800 M363.200 252.200 C 363.200 252.530,363.380 252.800,363.600 252.800 C 363.820 252.800,364.000 252.530,364.000 252.200 C 364.000 251.870,363.820 251.600,363.600 251.600 C 363.380 251.600,363.200 251.870,363.200 252.200 M171.475 277.458 C 170.953 277.980,171.202 278.400,172.033 278.400 C 172.499 278.400,172.797 278.190,172.708 277.925 C 172.513 277.340,171.846 277.088,171.475 277.458 M17.600 282.800 C 17.600 283.020,17.780 283.200,18.000 283.200 C 18.220 283.200,18.400 283.481,18.400 283.824 C 18.400 284.167,18.576 284.338,18.792 284.205 C 19.039 284.053,19.003 283.673,18.696 283.181 C 18.173 282.344,17.600 282.145,17.600 282.800 M50.000 284.200 C 50.000 284.530,50.180 284.800,50.400 284.800 C 50.620 284.800,50.800 284.530,50.800 284.200 C 50.800 283.870,50.620 283.600,50.400 283.600 C 50.180 283.600,50.000 283.870,50.000 284.200 M33.600 311.200 C 33.600 311.420,33.870 311.600,34.200 311.600 C 34.530 311.600,34.800 311.420,34.800 311.200 C 34.800 310.980,34.530 310.800,34.200 310.800 C 33.870 310.800,33.600 310.980,33.600 311.200 M318.984 323.227 C 318.839 323.461,318.816 323.749,318.933 323.867 C 319.220 324.153,320.000 323.648,320.000 323.176 C 320.000 322.665,319.309 322.699,318.984 323.227 M147.200 363.600 C 147.200 363.820,147.470 364.000,147.800 364.000 C 148.130 364.000,148.400 363.820,148.400 363.600 C 148.400 363.380,148.130 363.200,147.800 363.200 C 147.470 363.200,147.200 363.380,147.200 363.600 M250.400 364.200 C 250.400 364.530,250.580 364.800,250.800 364.800 C 251.020 364.800,251.200 364.530,251.200 364.200 C 251.200 363.870,251.020 363.600,250.800 363.600 C 250.580 363.600,250.400 363.870,250.400 364.200 M243.200 365.976 C 243.200 366.647,243.909 366.813,244.146 366.198 C 244.285 365.835,244.144 365.600,243.787 365.600 C 243.464 365.600,243.200 365.769,243.200 365.976 M115.795 381.208 C 115.662 381.424,115.833 381.600,116.176 381.600 C 116.519 381.600,116.800 381.780,116.800 382.000 C 116.800 382.220,116.980 382.400,117.200 382.400 C 117.855 382.400,117.656 381.827,116.819 381.304 C 116.327 380.997,115.947 380.961,115.795 381.208 M283.025 381.431 C 282.603 381.740,282.390 382.123,282.551 382.284 C 282.712 382.445,282.969 382.384,283.122 382.148 C 283.275 381.913,283.661 381.636,283.980 381.533 C 284.299 381.431,284.387 381.239,284.176 381.109 C 283.964 380.978,283.446 381.123,283.025 381.431 " stroke="none" fill="#f4f4f4" fill-rule="evenodd"></path><path id="path2" d="" stroke="none" fill="#fc100f8" fill-rule="evenodd"></path><path id="path3" d="" stroke="none" fill="#fc100f8" fill-rule="evenodd"></path><path id="path4" d="" stroke="none" fill="#fc100f8" fill-rule="evenodd"></path></g></svg>