<svg width="31" height="31" viewBox="0 0 31 31" fill="none" xmlns="http://www.w3.org/2000/svg">
<path d="M24.5846 22.0414C24.5846 21.6973 24.5846 21.3477 24.5846 20.9982C24.5846 20.6702 24.59 20.3476 24.59 20.0249V19.8367V11.959C24.59 10.7706 23.6266 9.8081 22.4372 9.8081H8.55177C7.36236 9.8081 6.399 10.7706 6.399 11.959V19.8367C6.399 20.4067 6.62504 20.9498 7.03407 21.3531C7.6207 21.9392 8.34726 21.9876 8.55715 21.9876C11.6464 21.9984 15.15 21.993 17.7065 21.9876C18.8313 21.9876 19.9615 21.9876 21.0863 21.9876C20.8495 22.5254 20.6127 23.0685 20.3759 23.6062C19.4879 23.6062 18.5945 23.6008 17.7065 23.6008C16.2318 23.6008 14.4396 23.6062 12.5936 23.6062C11.2427 23.6062 9.85958 23.6062 8.55177 23.6008C8.08354 23.6008 6.88875 23.4879 5.89309 22.4985C5.17729 21.7833 4.78979 20.8423 4.78979 19.8367V11.959C4.78979 9.88338 6.47973 8.19492 8.55715 8.19492H22.4426C24.52 8.19492 26.2099 9.88338 26.2099 11.959V20.0196C26.2368 20.4659 26.2261 21.1273 25.9946 21.8855C25.8547 22.3425 25.6717 22.7136 25.4995 22.9986" fill="#B6B7AD"/>
<path d="M26.0968 27.3057L19.2349 22.8694C19.8484 22.5737 20.4673 22.2779 21.0809 21.9876C22.2326 22.7834 23.3843 23.5793 24.5361 24.3751C24.5468 23.2243 24.563 22.0682 24.5738 20.9175C25.1173 20.8476 25.6555 20.7777 26.1991 20.7078C26.1668 22.9125 26.1291 25.1118 26.0968 27.3057Z" fill="#B6B7AD"/>
</svg>
