<svg width="20" height="19" viewBox="0 0 20 19" fill="none" xmlns="http://www.w3.org/2000/svg">
<path d="M9 9.40593C11.2782 9.40593 13.125 7.56071 13.125 5.28451C13.125 3.00831 11.2782 1.16309 9 1.16309C6.72183 1.16309 4.875 3.00831 4.875 5.28451C4.875 7.56071 6.72183 9.40593 9 9.40593Z" stroke="black" stroke-miterlimit="10"/>
<path d="M12.6417 13.9019H17.3584" stroke="black" stroke-miterlimit="10"/>
<path d="M15 11.5457V16.254" stroke="black" stroke-miterlimit="10"/>
<path d="M15 18.0234C17.2782 18.0234 19.125 16.1781 19.125 13.9019C19.125 11.6257 17.2782 9.78052 15 9.78052C12.7218 9.78052 10.875 11.6257 10.875 13.9019C10.875 16.1781 12.7218 18.0234 15 18.0234Z" stroke="black" stroke-miterlimit="10"/>
<path d="M15 9.78052C11.0167 9.78052 7.03332 9.78052 3.04999 9.78052C2.92915 9.78468 2.05832 9.82215 1.50832 10.5299C1.15415 10.9836 1.12499 11.4707 1.12082 11.6539C1.12082 13.5273 1.12082 15.4006 1.12082 17.274C4.97499 17.274 8.82915 17.274 12.6833 17.274" stroke="black" stroke-miterlimit="10"/>
</svg>
