<svg width="18" height="18" viewBox="0 0 18 18" fill="none" xmlns="http://www.w3.org/2000/svg">
<path d="M5.625 0.5625C5.625 0.251719 5.37328 0 5.0625 0H3.9375C3.62672 0 3.375 0.251719 3.375 0.5625V3.375H0.5625C0.251719 3.375 0 3.62672 0 3.9375V5.0625C0 5.37328 0.251719 5.625 0.5625 5.625H3.375V13.5C3.375 14.1212 3.87879 14.625 4.5 14.625H11.25V12.375H5.625V0.5625ZM17.4375 12.375H14.625V4.5C14.625 3.87879 14.1212 3.375 13.5 3.375H6.75V5.625H12.375V17.4375C12.375 17.7483 12.6267 18 12.9375 18H14.0625C14.3733 18 14.625 17.7483 14.625 17.4375V14.625H17.4375C17.7483 14.625 18 14.3733 18 14.0625V12.9375C18 12.6267 17.7483 12.375 17.4375 12.375Z" fill="#B3A25D"/>
</svg>
