<svg width="30" height="30" viewBox="0 0 30 30" fill="none" xmlns="http://www.w3.org/2000/svg">
<path d="M16.8016 20.4376C16.848 20.2592 16.8944 20.0772 16.9408 19.8951C16.8944 20.0772 16.848 20.2592 16.8016 20.4376Z" fill="#B6B7AD"/>
<path d="M13.7537 19.7132C13.7644 19.6811 13.7716 19.649 13.7787 19.6133C13.768 19.649 13.7609 19.6811 13.7537 19.7132Z" fill="#B6B7AD"/>
<path d="M15.9843 16.7367C15.8951 17.1721 15.8059 17.6146 15.7166 18.0679C15.606 18.6282 15.4918 19.2064 15.3669 19.7845C15.3526 19.8523 15.3383 19.9201 15.3205 19.9879C15.5632 19.0779 15.7345 18.1179 15.9165 17.1043C15.9415 16.9794 15.9629 16.858 15.9843 16.7367Z" fill="#B6B7AD"/>
<path d="M14.4247 16.4404C14.3319 16.883 14.2463 17.3219 14.1606 17.7573C14.05 18.3105 13.9358 18.8851 13.8144 19.449C13.8037 19.5061 13.7894 19.5596 13.7787 19.6132C14.0071 18.7566 14.1784 17.8144 14.3569 16.8187C14.3783 16.6938 14.4033 16.5689 14.4247 16.4404Z" fill="#B6B7AD"/>
<path d="M19.3283 7.65028C15.813 9.38475 15.035 13.0821 14.4247 16.4404C14.4033 16.5689 14.3783 16.6938 14.3569 16.8223C14.1784 17.818 14.0071 18.7602 13.7787 19.6167C13.7716 19.6488 13.7645 19.6845 13.7573 19.7167C13.4754 20.9015 13.0293 21.8723 11.9336 22.6967C11.0557 23.3533 9.98501 23.646 9 23.7531V25.3483C10.2598 25.2306 11.6874 24.8666 12.8865 23.9672C14.4711 22.7752 15.0243 21.3048 15.3241 19.9879C15.3383 19.9201 15.3562 19.8523 15.3704 19.7845C15.4954 19.2099 15.6096 18.6281 15.7202 18.0678C15.8094 17.6182 15.8986 17.1756 15.9879 16.7366C16.1163 16.0193 16.252 15.3055 16.4161 14.606C16.9693 12.2648 17.8615 10.1449 20.0314 9.07426C21.045 8.57462 22.4939 8.22487 24 8.09639V6.5011C22.2477 6.63315 20.556 7.04357 19.3283 7.65028Z" fill="#B6B7AD"/>
<path d="M16.9372 19.8951C17.2263 18.7459 17.4654 17.6074 17.7152 16.4083C17.7937 16.03 17.8722 15.6553 17.9543 15.277C17.9615 15.2377 17.9722 15.1984 17.9793 15.1592C17.7438 16.0121 17.5582 16.9365 17.3797 17.8287C17.2441 18.5211 17.1049 19.2134 16.9372 19.8951Z" fill="#B6B7AD"/>
<path d="M9 28.4461C10.7523 28.3284 12.4511 27.9179 13.7395 27.2827C16.7766 25.7802 17.858 22.9286 18.5289 20.0735C18.8037 18.9529 19.0428 17.8287 19.2712 16.7366C19.3498 16.3619 19.4283 15.9872 19.5104 15.6089C19.7852 14.3276 20.2241 12.8965 21.3947 12.0186C22.1727 11.4333 23.1078 11.1406 24 11.005V9.40259C22.8223 9.55248 21.5375 9.92721 20.4418 10.7481C18.8858 11.9186 18.3076 13.6995 17.9864 15.1556C17.9793 15.1949 17.9686 15.2341 17.9615 15.2734C17.8794 15.6517 17.8009 16.03 17.7223 16.4047C17.4725 17.6003 17.2334 18.7423 16.9443 19.8915C16.9015 20.0735 16.8551 20.2556 16.8051 20.434C16.1984 22.7074 15.2455 24.763 13.04 25.8516C11.9515 26.3905 10.5096 26.7402 9.00357 26.8508V28.4461" fill="#B6B7AD"/>
</svg>
