<svg width="23" height="22" viewBox="0 0 19 18" fill="none" xmlns="http://www.w3.org/2000/svg">
<path d="M14.1825 11.3181L18.9325 11.3181L18.9325 0.0605249L14.1867 0.0605254L14.1867 11.3181L14.1825 11.3181Z" fill="#B3A25D"/>
<path d="M6.88253 17.0598C7.55337 17.0598 8.25337 16.5785 8.6367 15.7849C8.64087 15.7762 8.64087 15.7719 8.64503 15.7632C8.85753 15.1604 9.22003 14.3625 9.84087 13.5516C10.8617 12.2203 12.0659 11.5308 12.7867 11.1968C12.8492 11.1665 12.8909 11.1014 12.8909 11.0277L12.8909 0.242819C12.8575 0.186444 12.7992 0.108387 12.7117 0.0563488C12.6325 0.0129837 12.5534 -2.4766e-05 12.4784 -2.47595e-05C12.4117 -2.47536e-05 12.3534 0.00864765 12.3075 0.0173207C12.2492 0.0259937 12.1867 0.0303288 12.1284 0.0303288C11.945 0.0303288 11.7617 -2.46968e-05 11.5784 -2.46808e-05C11.5659 -2.46797e-05 11.5575 -2.4679e-05 11.545 -2.46779e-05C10.8784 0.0173214 7.74086 0.05635 6.4367 0.0606867C6.2617 0.0606867 6.09086 0.0606867 5.92836 0.0606867C5.87003 0.0606867 5.80753 0.0606867 5.7492 0.0606867C5.0492 0.0606868 4.37836 0.0606872 3.39503 0.104052C2.6367 0.134408 2.25753 0.151753 2.14503 0.190782C0.274194 0.832586 -0.363305 4.7658 0.195028 7.51515C0.336695 8.21333 0.645028 9.64004 1.64503 10.0737C1.90336 10.1864 2.1367 10.1995 2.28253 10.1995C2.31586 10.1995 2.34503 10.1995 2.37003 10.1995C2.75753 10.1908 3.22003 10.1821 3.75336 10.1821C4.69086 10.1821 5.8492 10.1951 7.21587 10.2211C7.3742 10.2255 7.4492 10.4206 7.3367 10.5377C6.66587 11.2315 5.90753 12.2419 5.49503 13.6036C5.27003 14.3452 5.01586 15.2255 5.4367 16.0451C5.52003 16.2012 5.90337 16.895 6.63253 17.0295C6.71587 17.0555 6.7992 17.0598 6.88253 17.0598Z" fill="#B3A25D"/>
</svg>
