<svg width="14" height="16" viewBox="0 0 14 16" fill="none" xmlns="http://www.w3.org/2000/svg">
<path d="M5.76454 7.75963L4.72287 10.9888" stroke="#B3A25D" stroke-miterlimit="10"/>
<path d="M7.9173 7.75963L8.959 10.9888" stroke="#B3A25D" stroke-miterlimit="10"/>
<path d="M12.4603 14.3435L9.8911 7.51988L9.8466 7.40163L9.8636 7.27643L10.6101 1.77863L10.1954 1.71192L10.2001 1.68436L9.0151 1.45004L9.0043 1.48591C8.9322 1.72629 8.7237 2.27826 8.2101 2.71186L8.2013 2.71926L8.1922 2.72624C7.4444 3.30105 6.47436 3.42476 5.67316 2.96582C4.92164 2.53553 4.64829 1.76731 4.56826 1.48997L4.56796 1.48892L4.55674 1.44972L3.49945 1.68932L3.48712 1.69211L3.47468 1.69428L2.99897 1.77708L3.80688 7.26744L3.82628 7.39929L3.77748 7.52331L1.09438 14.342L1.14891 14.3659L1.1501 14.3664C2.92282 15.1483 4.96924 15.4145 6.90673 15.4152M6.90673 15.4152C5.10866 15.4318 3.32432 15.1008 1.65183 14.4404L1.1873 14.2569L1.37021 13.7922L3.68756 7.904L3.81256 7.58638L4.15389 7.58711L9.5181 7.59856L9.8632 7.5993L9.9849 7.92226L12.1981 13.7959L12.3716 14.2563L11.9141 14.4372C10.3191 15.0677 8.6217 15.3992 6.90673 15.4152ZM5.68648 3.10556C5.17025 2.80998 4.86321 2.34744 4.688 1.96305L4.51886 1.592L4.12138 1.68306L3.51513 1.82195L3.06489 1.9251L3.13211 2.38209L3.81475 7.02272L3.87746 7.44903L4.30836 7.44995L9.357 7.46071L9.7945 7.46165L9.8535 7.0281L10.4889 2.35658L10.5523 1.88999L10.0904 1.79868L9.4335 1.66882L9.0517 1.59335L8.8848 1.94491C8.7126 2.30772 8.41 2.75816 7.8961 3.06735L7.894 3.06864C7.5511 3.27726 7.1573 3.38733 6.75597 3.38675L6.75457 3.38676C6.56054 3.38702 6.36745 3.3623 6.18003 3.31331L6.07916 3.2803C5.94263 3.23563 5.81105 3.17707 5.68648 3.10556Z" stroke="#B3A25D"/>
</svg>
