<svg width="21" height="18" viewBox="0 0 21 18" fill="none" xmlns="http://www.w3.org/2000/svg">
<path d="M15.7846 15.4761C15.6395 15.4761 15.5058 15.4188 15.4027 15.3196C15.1926 15.1097 15.1926 14.7663 15.4027 14.5564C15.5058 14.4533 15.6395 14.3999 15.7846 14.3999C15.9298 14.3999 16.0634 14.4571 16.1666 14.5564C16.3766 14.7663 16.3766 15.1097 16.1666 15.3196C16.0634 15.4226 15.9259 15.4761 15.7846 15.4761Z" fill="black"/>
<path d="M15.7827 14.4053C15.924 14.4053 16.0577 14.4587 16.157 14.5618C16.3632 14.7678 16.3632 15.1037 16.157 15.3097C16.0577 15.409 15.924 15.4662 15.7827 15.4662C15.6413 15.4662 15.5077 15.4128 15.4084 15.3097C15.2021 15.1037 15.2021 14.7678 15.4084 14.5618C15.5077 14.4626 15.6413 14.4053 15.7827 14.4053ZM15.7827 14.3862C15.6413 14.3862 15.5 14.4397 15.3931 14.5465C15.1792 14.7602 15.1792 15.1075 15.3931 15.3212C15.5 15.428 15.6413 15.4815 15.7827 15.4815C15.924 15.4815 16.0653 15.428 16.1723 15.3212C16.3861 15.1075 16.3861 14.7602 16.1723 14.5465C16.0615 14.4397 15.924 14.3862 15.7827 14.3862Z" fill="black"/>
<path d="M15.0035 12.4286C14.9959 11.9249 15.4198 11.5357 15.8667 11.5738C16.2639 11.6043 16.6001 11.9669 16.5962 12.4095C16.5848 12.5278 16.5504 12.6958 16.4435 12.856C16.3823 12.9514 16.2869 13.0278 16.1035 13.188C15.9393 13.3292 15.924 13.3292 15.8782 13.3865C15.8056 13.4781 15.7369 13.6231 15.7407 13.8635" stroke="black" stroke-width="1.2" stroke-miterlimit="10" stroke-linejoin="round"/>
<path d="M12.2993 14.6992C8.7128 14.6992 5.12634 14.6992 1.5437 14.6992L9.90829 6.52505C11.1496 7.7424 12.3909 8.95975 13.6323 10.1809" stroke="black" stroke-width="1.2" stroke-miterlimit="10" stroke-linejoin="round"/>
<path d="M9.88925 6.92951C9.88925 6.5479 9.88925 6.16629 9.88925 5.78468C11.1306 5.55952 12.0014 4.45666 11.9327 3.26603C11.8563 1.94183 10.6417 0.861868 9.3087 1.01451C8.13995 1.14808 7.20801 2.18988 7.20801 3.44539" stroke="black" stroke-width="1.2" stroke-miterlimit="10"/>
<path d="M15.8018 17.0499C17.8901 17.0499 19.583 15.3585 19.583 13.272C19.583 11.1854 17.8901 9.49399 15.8018 9.49399C13.7134 9.49399 12.0205 11.1854 12.0205 13.272C12.0205 15.3585 13.7134 17.0499 15.8018 17.0499Z" stroke="black" stroke-width="1.2" stroke-miterlimit="10"/>
</svg>
