<svg width="13" height="17" viewBox="0 0 13 17" fill="none" xmlns="http://www.w3.org/2000/svg">
<path d="M6.5 3.1875C4.70793 3.1875 3.25 4.61739 3.25 6.375C3.25 8.13261 4.70793 9.5625 6.5 9.5625C8.29207 9.5625 9.75 8.13261 9.75 6.375C9.75 4.61739 8.29207 3.1875 6.5 3.1875ZM6.5 8.5C5.30529 8.5 4.33333 7.54674 4.33333 6.375C4.33333 5.20326 5.30529 4.25 6.5 4.25C7.69471 4.25 8.66667 5.20326 8.66667 6.375C8.66667 7.54674 7.69471 8.5 6.5 8.5ZM6.5 0C2.91014 0 0 2.85417 0 6.375C0 8.94535 0.913047 9.66314 5.83199 16.657C6.15476 17.1143 6.84521 17.1143 7.16804 16.657C12.087 9.66314 13 8.94535 13 6.375C13 2.85417 10.0899 0 6.5 0ZM6.5 15.736C1.78428 9.04745 1.08333 8.5164 1.08333 6.375C1.08333 4.95596 1.64677 3.6219 2.66984 2.6185C3.69291 1.6151 5.05314 1.0625 6.5 1.0625C7.94686 1.0625 9.30709 1.6151 10.3302 2.6185C11.3532 3.6219 11.9167 4.95596 11.9167 6.375C11.9167 8.51627 11.2162 9.04685 6.5 15.736Z" fill="black"/>
</svg>
