<svg width="33" height="35" viewBox="0 0 33 35" fill="none" xmlns="http://www.w3.org/2000/svg">
<path d="M29.4643 0.4375H3.53571C1.58371 0.4375 0 2.0752 0 4.09375V30.9062C0 32.9248 1.58371 34.5625 3.53571 34.5625H29.4643C31.4163 34.5625 33 32.9248 33 30.9062V4.09375C33 2.0752 31.4163 0.4375 29.4643 0.4375ZM12.0804 25.1172C8.00692 25.1172 4.71429 21.7123 4.71429 17.5C4.71429 13.2877 8.00692 9.88281 12.0804 9.88281C14.0692 9.88281 15.7266 10.6293 17.0156 11.8785L15.0194 13.8666C14.4743 13.3258 13.5241 12.6936 12.0877 12.6936C9.57589 12.6936 7.52812 14.8416 7.52812 17.5076C7.52812 20.166 9.57589 22.3217 12.0877 22.3217C15.0047 22.3217 16.0949 20.1508 16.2717 19.0387H12.0804V16.4184H19.0339C19.1076 16.7992 19.1518 17.1877 19.1518 17.6828C19.1518 22.0322 16.3306 25.1172 12.0804 25.1172ZM28.2857 18.8863H26.1496V21.0953H23.9987V18.8863H21.8625V16.6621H23.9987V14.4531H26.1496V16.6621H28.2857V18.8863Z" fill="black"/>
</svg>
