<svg width="15" height="15" viewBox="0 0 15 15" fill="none" xmlns="http://www.w3.org/2000/svg">
<path d="M14.9458 4.98409L14.9936 4.71846C15.0376 4.47425 14.8483 4.25 14.5981 4.25H11.2967L11.9777 0.468463C12.0217 0.224254 11.8323 0 11.5821 0H11.31C11.2157 1.69889e-06 11.1244 0.0329041 11.0521 0.0929458C10.9798 0.152987 10.9311 0.236342 10.9145 0.328412L10.2084 4.25H5.9396L6.62056 0.468463C6.66452 0.224254 6.47518 0 6.225 0H5.95289C5.85858 1.69889e-06 5.76727 0.0329041 5.69496 0.0929458C5.62265 0.152987 5.57394 0.236342 5.55737 0.328412L4.85123 4.25H1.40635C1.31204 4.25 1.22074 4.2829 1.14842 4.34295C1.07611 4.40299 1.0274 4.48634 1.01083 4.57841L0.962983 4.84404C0.919021 5.08825 1.10836 5.3125 1.35854 5.3125H4.65988L3.89458 9.5625H0.449736C0.355424 9.5625 0.264118 9.5954 0.191806 9.65545C0.119495 9.71549 0.0707866 9.79884 0.0542113 9.89091L0.0063653 10.1565C-0.0375968 10.4007 0.151745 10.625 0.40189 10.625H3.70326L3.0223 14.4065C2.97834 14.6507 3.16768 14.875 3.41786 14.875H3.68997C3.78428 14.875 3.87559 14.8421 3.9479 14.7821C4.02021 14.722 4.06892 14.6387 4.08549 14.5466L4.79163 10.625H9.0604L8.37944 14.4065C8.33548 14.6507 8.52482 14.875 8.775 14.875H9.04711C9.14142 14.875 9.23273 14.8421 9.30504 14.7821C9.37735 14.722 9.42606 14.6387 9.44264 14.5466L10.1488 10.625H13.5936C13.6879 10.625 13.7792 10.5921 13.8515 10.5321C13.9239 10.472 13.9726 10.3887 13.9891 10.2966L14.037 10.031C14.081 9.78675 13.8916 9.5625 13.6415 9.5625H10.3401L11.1054 5.3125H14.5502C14.6446 5.31251 14.7359 5.27961 14.8082 5.21956C14.8805 5.15952 14.9292 5.07616 14.9458 4.98409ZM9.25172 9.5625H4.98298L5.74828 5.3125H10.0171L9.25172 9.5625Z" fill="#B3A25D"/>
</svg>
