<svg width="27" height="21" viewBox="0 0 27 21" fill="none" xmlns="http://www.w3.org/2000/svg">
<path d="M23.0464 20.2316L16.6807 16.4623L9.67016 20.2627C10.2008 17.6586 10.7315 15.0552 11.2621 12.4524L6.11133 6.60066H12.8483L16.2088 0L19.311 6.60066H26.1556L21.6309 12.533L23.0464 20.2316ZM16.7153 15.0163L21.3436 17.7577L20.4761 13.0326C20.4366 12.7147 20.3972 12.3969 20.3578 12.0793L23.6187 7.8789H18.5492L16.1653 2.80813L13.5847 7.8789H8.89551L12.5789 12.0644L11.541 17.7345L16.7153 15.0163Z" fill="#B3A25D"/>
<path d="M23.0464 20.2316L16.6807 16.4623L9.67016 20.2627C10.2008 17.6586 10.7315 15.0552 11.2621 12.4524L6.11133 6.60066H12.8483L16.2088 0L19.311 6.60066H26.1556L21.6309 12.533L23.0464 20.2316ZM16.7153 15.0163L21.3436 17.7577L20.4761 13.0326C20.4366 12.7147 20.3972 12.3969 20.3578 12.0793L23.6187 7.8789H18.5492L16.1653 2.80813L13.5847 7.8789H8.89551L12.5789 12.0644L11.541 17.7345L16.7153 15.0163Z" fill="url(#paint0_linear)"/>
<path d="M23.0464 20.2316L16.6807 16.4623L9.67016 20.2627C10.2008 17.6586 10.7315 15.0552 11.2621 12.4524L6.11133 6.60066H12.8483L16.2088 0L19.311 6.60066H26.1556L21.6309 12.533L23.0464 20.2316ZM16.7153 15.0163L21.3436 17.7577L20.4761 13.0326C20.4366 12.7147 20.3972 12.3969 20.3578 12.0793L23.6187 7.8789H18.5492L16.1653 2.80813L13.5847 7.8789H8.89551L12.5789 12.0644L11.541 17.7345L16.7153 15.0163Z" fill="url(#paint1_linear)"/>
<path d="M9.71637 5.64824L8.40454 5.63573L11.436 0H12.6811L9.71637 5.64824Z" fill="#B3A25D"/>
<path d="M9.71637 5.64824L8.40454 5.63573L11.436 0H12.6811L9.71637 5.64824Z" fill="url(#paint2_linear)"/>
<path d="M9.71637 5.64824L8.40454 5.63573L11.436 0H12.6811L9.71637 5.64824Z" fill="url(#paint3_linear)"/>
<path d="M12.1475 5.64824L10.8357 5.63573L13.8818 0H15.1269L12.1475 5.64824Z" fill="#B3A25D"/>
<path d="M12.1475 5.64824L10.8357 5.63573L13.8818 0H15.1269L12.1475 5.64824Z" fill="url(#paint4_linear)"/>
<path d="M12.1475 5.64824L10.8357 5.63573L13.8818 0H15.1269L12.1475 5.64824Z" fill="url(#paint5_linear)"/>
<path d="M8.64204 20.2571L7.46762 20.2608L8.99646 12.9219L3.10168 6.61182H4.71456L10.2585 12.5442C9.71952 15.1155 9.1807 17.6865 8.64204 20.2571Z" fill="#B3A25D"/>
<path d="M8.64204 20.2571L7.46762 20.2608L8.99646 12.9219L3.10168 6.61182H4.71456L10.2585 12.5442C9.71952 15.1155 9.1807 17.6865 8.64204 20.2571Z" fill="url(#paint6_linear)"/>
<path d="M8.64204 20.2571L7.46762 20.2608L8.99646 12.9219L3.10168 6.61182H4.71456L10.2585 12.5442C9.71952 15.1155 9.1807 17.6865 8.64204 20.2571Z" fill="url(#paint7_linear)"/>
<path d="M6.3817 20.2608H5.19528C5.67376 18.0019 6.1521 15.7428 6.63028 13.4836L0 6.61182H1.64534L7.89631 13.0961C7.39114 15.4845 6.88627 17.8728 6.3817 20.2608Z" fill="#B3A25D"/>
<path d="M6.3817 20.2608H5.19528C5.67376 18.0019 6.1521 15.7428 6.63028 13.4836L0 6.61182H1.64534L7.89631 13.0961C7.39114 15.4845 6.88627 17.8728 6.3817 20.2608Z" fill="url(#paint8_linear)"/>
<path d="M6.3817 20.2608H5.19528C5.67376 18.0019 6.1521 15.7428 6.63028 13.4836L0 6.61182H1.64534L7.89631 13.0961C7.39114 15.4845 6.88627 17.8728 6.3817 20.2608Z" fill="url(#paint9_linear)"/>
<path d="M7.93762 7.24253L11.8509 12.0005L10.7836 18.3963L16.3035 15.6465L22.0195 18.9218L21.0412 12.2785L25.1025 6.99504H19.1437L16.3035 1.31018L13.3926 6.9334L7.93762 7.24253Z" fill="#B3A25D"/>
<path d="M7.93762 7.24253L11.8509 12.0005L10.7836 18.3963L16.3035 15.6465L22.0195 18.9218L21.0412 12.2785L25.1025 6.99504H19.1437L16.3035 1.31018L13.3926 6.9334L7.93762 7.24253Z" fill="url(#paint10_linear)"/>
<path d="M7.93762 7.24253L11.8509 12.0005L10.7836 18.3963L16.3035 15.6465L22.0195 18.9218L21.0412 12.2785L25.1025 6.99504H19.1437L16.3035 1.31018L13.3926 6.9334L7.93762 7.24253Z" fill="url(#paint11_linear)"/>
<defs>
<linearGradient id="paint0_linear" x1="16.1335" y1="0" x2="16.1335" y2="20.2627" gradientUnits="userSpaceOnUse">
<stop stop-color="white"/>
<stop offset="1" stop-color="white" stop-opacity="0"/>
</linearGradient>
<linearGradient id="paint1_linear" x1="16.1335" y1="0" x2="16.1335" y2="20.2627" gradientUnits="userSpaceOnUse">
<stop stop-color="#B3A25D"/>
<stop offset="1" stop-color="white" stop-opacity="0"/>
</linearGradient>
<linearGradient id="paint2_linear" x1="10.5428" y1="0" x2="10.5428" y2="5.64824" gradientUnits="userSpaceOnUse">
<stop stop-color="white"/>
<stop offset="1" stop-color="white" stop-opacity="0"/>
</linearGradient>
<linearGradient id="paint3_linear" x1="10.5428" y1="0" x2="10.5428" y2="5.64824" gradientUnits="userSpaceOnUse">
<stop stop-color="#B3A25D"/>
<stop offset="1" stop-color="white" stop-opacity="0"/>
</linearGradient>
<linearGradient id="paint4_linear" x1="12.9813" y1="0" x2="12.9813" y2="5.64824" gradientUnits="userSpaceOnUse">
<stop stop-color="white"/>
<stop offset="1" stop-color="white" stop-opacity="0"/>
</linearGradient>
<linearGradient id="paint5_linear" x1="12.9813" y1="0" x2="12.9813" y2="5.64824" gradientUnits="userSpaceOnUse">
<stop stop-color="#B3A25D"/>
<stop offset="1" stop-color="white" stop-opacity="0"/>
</linearGradient>
<linearGradient id="paint6_linear" x1="6.68008" y1="6.61182" x2="6.68008" y2="20.2608" gradientUnits="userSpaceOnUse">
<stop stop-color="white"/>
<stop offset="1" stop-color="white" stop-opacity="0"/>
</linearGradient>
<linearGradient id="paint7_linear" x1="6.68008" y1="6.61182" x2="6.68008" y2="20.2608" gradientUnits="userSpaceOnUse">
<stop stop-color="#B3A25D"/>
<stop offset="1" stop-color="white" stop-opacity="0"/>
</linearGradient>
<linearGradient id="paint8_linear" x1="3.94815" y1="6.61182" x2="3.94815" y2="20.2608" gradientUnits="userSpaceOnUse">
<stop stop-color="white"/>
<stop offset="1" stop-color="white" stop-opacity="0"/>
</linearGradient>
<linearGradient id="paint9_linear" x1="3.94815" y1="6.61182" x2="3.94815" y2="20.2608" gradientUnits="userSpaceOnUse">
<stop stop-color="#B3A25D"/>
<stop offset="1" stop-color="white" stop-opacity="0"/>
</linearGradient>
<linearGradient id="paint10_linear" x1="16.5201" y1="1.31018" x2="16.5201" y2="18.9218" gradientUnits="userSpaceOnUse">
<stop stop-color="white"/>
<stop offset="1" stop-color="white" stop-opacity="0"/>
</linearGradient>
<linearGradient id="paint11_linear" x1="16.5201" y1="1.31018" x2="16.5201" y2="18.9218" gradientUnits="userSpaceOnUse">
<stop stop-color="#B3A25D"/>
<stop offset="1" stop-color="white" stop-opacity="0"/>
</linearGradient>
</defs>
</svg>
