<svg width="20" height="15" viewBox="0 0 20 15" fill="none" xmlns="http://www.w3.org/2000/svg">
<path d="M16.7764 14.7274L12.1426 11.9835L7.03934 14.75C7.42563 12.8544 7.81192 10.9593 8.19821 9.06457L4.44873 4.80488H9.35287L11.7991 0L14.0573 4.80488H19.0397L15.746 9.12327L16.7764 14.7274ZM12.1678 10.9309L15.5369 12.9265L14.9054 9.48696C14.8767 9.25552 14.848 9.0242 14.8193 8.79298L17.193 5.73536H13.5028L11.7674 2.04415L9.88892 5.73536H6.47545L9.1567 8.78219L8.40117 12.9096L12.1678 10.9309Z" fill="white"/>
<path d="M7.07297 4.11158L6.11804 4.10247L8.32474 0H9.23112L7.07297 4.11158Z" fill="white"/>
<path d="M8.84275 4.11158L7.88782 4.10247L10.1052 0H11.0116L8.84275 4.11158Z" fill="white"/>
<path d="M6.29085 14.746L5.43595 14.7487L6.54885 9.40634L2.25781 4.81299H3.43189L7.46752 9.13138C7.07519 11.0031 6.68297 12.8747 6.29085 14.746Z" fill="white"/>
<path d="M4.64549 14.7487H3.78185C4.13015 13.1043 4.47835 11.4598 4.82644 9.81523L0 4.81299H1.19771L5.74803 9.53319C5.3803 11.2718 5.01279 13.0103 4.64549 14.7487Z" fill="white"/>
<path d="M5.77808 5.272L8.62668 8.73549L7.84979 13.3912L11.8679 11.3896L16.0288 13.7738L15.3167 8.93791L18.2731 5.09184H13.9354L11.8679 0.953613L9.74897 5.04697L5.77808 5.272Z" fill="white"/>
</svg>
