<svg width="16" height="17" viewBox="0 0 16 17" fill="none" xmlns="http://www.w3.org/2000/svg">
<path d="M0.731689 15.3719L14.8791 1.20483" stroke="black" stroke-miterlimit="10" stroke-linejoin="round"/>
<path d="M3.71843 9.78238C3.31912 10.1574 2.91981 10.5284 2.52051 10.9035C2.52051 9.13606 2.52051 7.37266 2.52051 5.60528C2.52051 3.99348 3.83423 2.68091 5.44742 2.68091C6.20211 2.6849 6.9568 2.68889 7.71149 2.69687C8.2825 2.70086 8.55802 2.70086 8.92937 2.70485C9.71601 2.70884 10.3589 2.70884 10.7861 2.71283C10.3988 3.09583 10.0155 3.47484 9.62816 3.85784C8.88146 3.87778 8.2785 3.87778 7.85923 3.86981C7.44395 3.86582 6.8969 3.84986 6.09829 3.86183C5.70697 3.86582 5.51131 3.88177 5.44742 3.88177C4.49308 3.88177 3.71843 4.65575 3.71843 5.60927V9.78238Z" fill="black"/>
<path d="M14.328 13.7799C14.6594 14.1709 14.3799 14.7693 13.8648 14.7654C12.4033 14.7494 11.0018 14.7374 9.6002 14.7215C8.19863 14.7055 6.79707 14.6935 5.3396 14.6776L5.35158 13.4807C6.81304 13.4967 8.21461 13.5086 9.61218 13.5246C10.6344 13.5366 11.6566 13.5445 12.7028 13.5565C12.579 13.3491 12.4672 13.1296 12.3674 12.9102C11.9521 12.0006 11.7365 11.0191 11.7325 10.0018V6.84602C12.1278 6.46701 12.5191 6.088 12.9144 5.70898C12.9184 7.14125 12.9264 8.56952 12.9304 10.0018C12.9344 10.8476 13.1141 11.6575 13.4575 12.4155C13.6851 12.9022 13.9766 13.365 14.328 13.7799Z" fill="black"/>
<path d="M5.95459 15.1444C5.95459 15.8705 6.54556 16.4609 7.2723 16.4609H8.18273C8.90947 16.4609 9.50044 15.8705 9.50044 15.1444V14.123H5.95459V15.1444Z" stroke="black" stroke-miterlimit="10"/>
<path d="M7.61165 3.17171C8.3394 3.17171 8.92936 2.58226 8.92936 1.85514C8.92936 1.12802 8.3394 0.538574 7.61165 0.538574C6.8839 0.538574 6.29395 1.12802 6.29395 1.85514C6.29395 2.58226 6.8839 3.17171 7.61165 3.17171Z" stroke="black" stroke-miterlimit="10"/>
</svg>
