<svg width="15" height="12" viewBox="0 0 15 12" fill="none" xmlns="http://www.w3.org/2000/svg">
<path d="M13.5938 0H1.40625C0.629883 0 0 0.629883 0 1.40625V9.84375C0 10.6201 0.629883 11.25 1.40625 11.25H13.5938C14.3701 11.25 15 10.6201 15 9.84375V1.40625C15 0.629883 14.3701 0 13.5938 0ZM1.40625 0.9375H13.5938C13.8516 0.9375 14.0625 1.14844 14.0625 1.40625V2.61914C13.4209 3.16113 12.5039 3.9082 9.65039 6.17285C9.15527 6.56543 8.17969 7.51172 7.5 7.5C6.82031 7.51172 5.8418 6.56543 5.34961 6.17285C2.49609 3.9082 1.5791 3.16113 0.9375 2.61914V1.40625C0.9375 1.14844 1.14844 0.9375 1.40625 0.9375ZM13.5938 10.3125H1.40625C1.14844 10.3125 0.9375 10.1016 0.9375 9.84375V3.83789C1.60547 4.38574 2.66016 5.23242 4.7666 6.90527C5.36719 7.38574 6.42773 8.44336 7.5 8.4375C8.56641 8.44629 9.61816 7.39746 10.2334 6.90527C12.3398 5.23242 13.3945 4.38574 14.0625 3.83789V9.84375C14.0625 10.1016 13.8516 10.3125 13.5938 10.3125Z" fill="#B6B7AD"/>
</svg>
