<svg width="30" height="30" viewBox="0 0 30 30" fill="none" xmlns="http://www.w3.org/2000/svg">
<path d="M16.0697 7H5.0102C3.35776 7 2.00987 8.34789 2.00987 10.0003V16.4296C1.99859 16.5988 1.99295 16.8075 2.01551 17.0387C2.04371 18.7701 2.07191 20.5015 2.09447 22.2385L6.65136 19.2889C7.36196 19.2889 8.06693 19.2889 8.77753 19.2833C9.9506 19.2833 11.3774 19.2889 12.8494 19.2889C13.9266 19.2889 15.0263 19.2889 16.0697 19.2833C16.4419 19.2833 17.395 19.1931 18.1902 18.4035C18.7598 17.8339 19.07 17.0838 19.07 16.283V10.0003C19.07 8.34789 17.7221 7 16.0697 7ZM17.7842 16.283C17.7842 16.7398 17.6037 17.1684 17.2822 17.4955C16.8141 17.9636 16.2389 17.9975 16.0697 17.9975C13.6108 18.0031 10.8191 18.0031 8.78317 17.9975C7.88646 17.9975 6.98974 17.9975 6.08739 17.9975C5.16811 18.6347 4.25448 19.2664 3.3352 19.9037C3.32392 18.9844 3.31264 18.0651 3.30137 17.1459H3.29573C3.29573 16.909 3.29573 16.6721 3.29009 16.4352V16.283V10.0003C3.29009 9.05286 4.05709 8.28586 5.00456 8.28586H16.0641C17.0115 8.28586 17.7785 9.05286 17.7785 10.0003V16.283H17.7842Z" fill="#B3A25D"/>
<path d="M20.8072 13.5421H24.9975C25.945 13.5421 26.712 14.3091 26.712 15.2566V21.5392V21.6915C26.712 21.9283 26.7063 22.1652 26.7063 22.4021H26.7007C26.6894 23.3213 26.6781 24.2406 26.6669 25.1599C25.7476 24.5226 24.8339 23.891 23.9147 23.2537C23.018 23.2537 22.1212 23.2537 21.2189 23.2537C19.1829 23.2537 16.3913 23.2593 13.9324 23.2537C13.7632 23.2537 13.1879 23.2142 12.7198 22.7517C12.3927 22.4246 12.2179 21.996 12.2179 21.5392V20.7778V20.9188L10.932 20.9245V20.7496V21.5392C10.932 22.34 11.2422 23.0901 11.8118 23.6597C12.6014 24.4493 13.5545 24.5395 13.9324 24.5395C14.9757 24.5452 16.0755 24.5452 17.1526 24.5452C18.6246 24.5452 20.0515 24.5452 21.2245 24.5395C21.9351 24.5395 22.6401 24.5395 23.3507 24.5452L27.9076 27.4947C27.9358 25.7633 27.964 24.032 27.9865 22.2949C28.0035 22.0581 28.0035 21.855 27.9922 21.6858V15.2566C27.9922 13.6041 26.6443 12.2562 24.9919 12.2562H20.7959" fill="#B3A25D"/>
</svg>
