<svg width="20" height="18" viewBox="0 0 20 18" fill="none" xmlns="http://www.w3.org/2000/svg">
<path d="M10 14.9375C7.41406 14.9375 5.3125 12.8359 5.3125 10.25C5.3125 7.66406 7.41406 5.5625 10 5.5625C12.5859 5.5625 14.6875 7.66406 14.6875 10.25C14.6875 12.8359 12.5859 14.9375 10 14.9375ZM10 6.8125C8.10547 6.8125 6.5625 8.35547 6.5625 10.25C6.5625 12.1445 8.10547 13.6875 10 13.6875C11.8945 13.6875 13.4375 12.1445 13.4375 10.25C13.4375 8.35547 11.8945 6.8125 10 6.8125ZM8.75 10.25C8.75 9.5625 9.3125 9 10 9C10.3438 9 10.625 8.71875 10.625 8.375C10.625 8.03125 10.3438 7.75 10 7.75C8.62109 7.75 7.5 8.87109 7.5 10.25C7.5 10.5938 7.78125 10.875 8.125 10.875C8.46875 10.875 8.75 10.5938 8.75 10.25ZM12.668 1.5C12.7969 1.5 12.9141 1.58203 12.9609 1.70312L13.8242 4H18.125C18.4688 4 18.75 4.28125 18.75 4.625V15.875C18.75 16.2188 18.4688 16.5 18.125 16.5H1.875C1.53125 16.5 1.25 16.2188 1.25 15.875V4.625C1.25 4.28125 1.53125 4 1.875 4H6.17969L6.96484 1.90625C7.05469 1.66406 7.28906 1.5 7.55078 1.5H12.668ZM12.668 0.25H7.55078C6.76953 0.25 6.07031 0.734375 5.79688 1.46484L5.3125 2.75H1.875C0.839844 2.75 0 3.58984 0 4.625V15.875C0 16.9102 0.839844 17.75 1.875 17.75H18.125C19.1602 17.75 20 16.9102 20 15.875V4.625C20 3.58984 19.1602 2.75 18.125 2.75H14.6875L14.1289 1.26562C13.9023 0.652344 13.3203 0.25 12.668 0.25Z" fill="#B6B7AD"/>
</svg>
