<svg width="32" height="32" viewBox="0 0 32 32" fill="none" xmlns="http://www.w3.org/2000/svg">
<path d="M27.9911 0.618774H3.35893C2.46809 0.618774 1.61373 0.965958 0.983807 1.58395C0.353886 2.20194 0 3.04012 0 3.91409L0 28.0797C0 28.9537 0.353886 29.7919 0.983807 30.4098C1.61373 31.0278 2.46809 31.375 3.35893 31.375H12.9634V20.9186H8.55477V15.9969H12.9634V12.2457C12.9634 7.97899 15.5525 5.62216 19.5182 5.62216C21.4174 5.62216 23.4033 5.95443 23.4033 5.95443V10.1422H21.2151C19.0591 10.1422 18.3866 11.4549 18.3866 12.8011V15.9969H23.1997L22.4299 20.9186H18.3866V31.375H27.9911C28.8819 31.375 29.7363 31.0278 30.3662 30.4098C30.9961 29.7919 31.35 28.9537 31.35 28.0797V3.91409C31.35 3.04012 30.9961 2.20194 30.3662 1.58395C29.7363 0.965958 28.8819 0.618774 27.9911 0.618774Z" fill="#B6B7AD"/>
</svg>
