<svg width="17" height="15" viewBox="0 0 17 15" fill="none" xmlns="http://www.w3.org/2000/svg">
<path d="M4.25165 6.16071C3.81011 6.16071 3.45488 6.51897 3.45488 6.96429C3.45488 7.4096 3.81011 7.76786 4.25165 7.76786C4.6932 7.76786 5.04842 7.4096 5.04842 6.96429C5.04842 6.51897 4.6932 6.16071 4.25165 6.16071ZM8.5011 6.16071C8.05956 6.16071 7.70433 6.51897 7.70433 6.96429C7.70433 7.4096 8.05956 7.76786 8.5011 7.76786C8.94265 7.76786 9.29787 7.4096 9.29787 6.96429C9.29787 6.51897 8.94265 6.16071 8.5011 6.16071ZM12.7506 6.16071C12.309 6.16071 11.9538 6.51897 11.9538 6.96429C11.9538 7.4096 12.309 7.76786 12.7506 7.76786C13.1921 7.76786 13.5473 7.4096 13.5473 6.96429C13.5473 6.51897 13.1921 6.16071 12.7506 6.16071ZM8.5011 0C3.80679 0 0.00220335 3.11719 0.00220335 6.96429C0.00220335 8.55803 0.66286 10.0179 1.75842 11.1931C1.26376 12.5123 0.234595 13.6306 0.217996 13.644C-0.00111653 13.8783 -0.0608744 14.2199 0.0652811 14.5145C0.191437 14.8092 0.480266 15 0.798975 15C2.8407 15 4.45085 14.1395 5.41693 13.4498C6.37638 13.7545 7.41218 13.9286 8.5011 13.9286C13.1954 13.9286 17 10.8114 17 6.96429C17 3.11719 13.1954 0 8.5011 0ZM8.5011 12.8571C7.56158 12.8571 6.63201 12.7132 5.73896 12.4286L5.23434 12.2679L4.80275 12.5759C4.03918 13.1217 2.86062 13.7578 1.39655 13.9018C1.79494 13.3962 2.38588 12.5491 2.75107 11.5714L2.98678 10.9453L2.53195 10.4565C1.57251 9.43192 1.06457 8.22321 1.06457 6.96429C1.06457 3.71652 4.40105 1.07143 8.5011 1.07143C12.6012 1.07143 15.9376 3.71652 15.9376 6.96429C15.9376 10.2121 12.6012 12.8571 8.5011 12.8571Z" fill="#B3A25D"/>
</svg>
