<svg width="32" height="32" viewBox="0 0 32 32" fill="none" xmlns="http://www.w3.org/2000/svg">
<path d="M16.3285 8.11135C11.8804 8.11135 8.29257 11.632 8.29257 15.9969C8.29257 20.3617 11.8804 23.8824 16.3285 23.8824C20.7766 23.8824 24.3645 20.3617 24.3645 15.9969C24.3645 11.632 20.7766 8.11135 16.3285 8.11135ZM16.3285 21.1235C13.454 21.1235 11.1041 18.8244 11.1041 15.9969C11.1041 13.1693 13.447 10.8703 16.3285 10.8703C19.21 10.8703 21.5529 13.1693 21.5529 15.9969C21.5529 18.8244 19.203 21.1235 16.3285 21.1235ZM26.5675 7.7888C26.5675 8.81137 25.7283 9.62807 24.6932 9.62807C23.6511 9.62807 22.8188 8.80451 22.8188 7.7888C22.8188 6.77308 23.6581 5.94953 24.6932 5.94953C25.7283 5.94953 26.5675 6.77308 26.5675 7.7888ZM31.8899 9.65552C31.771 7.19172 31.1975 5.00931 29.3581 3.21122C27.5257 1.41313 25.3017 0.850368 22.7909 0.726835C20.2031 0.582713 12.4469 0.582713 9.8592 0.726835C7.35539 0.843505 5.13134 1.40627 3.29196 3.20436C1.45257 5.00244 0.886067 7.18486 0.760178 9.64865C0.613307 12.1879 0.613307 19.7989 0.760178 22.3382C0.879074 24.802 1.45257 26.9844 3.29196 28.7825C5.13134 30.5806 7.3484 31.1434 9.8592 31.2669C12.4469 31.411 20.2031 31.411 22.7909 31.2669C25.3017 31.1502 27.5257 30.5875 29.3581 28.7825C31.1905 26.9844 31.764 24.802 31.8899 22.3382C32.0367 19.7989 32.0367 12.1948 31.8899 9.65552ZM28.5468 25.0628C28.0013 26.4079 26.9452 27.4442 25.5674 27.9864C23.5042 28.7894 18.6085 28.6041 16.3285 28.6041C14.0485 28.6041 9.14582 28.7825 7.08963 27.9864C5.71883 27.4511 4.66275 26.4148 4.11024 25.0628C3.29196 23.0382 3.48079 18.2342 3.48079 15.9969C3.48079 13.7596 3.29895 8.94863 4.11024 6.93093C4.65576 5.58579 5.71183 4.54949 7.08963 4.00732C9.15282 3.20436 14.0485 3.38965 16.3285 3.38965C18.6085 3.38965 23.5112 3.21122 25.5674 4.00732C26.9382 4.54263 27.9943 5.57893 28.5468 6.93093C29.3651 8.9555 29.1763 13.7596 29.1763 15.9969C29.1763 18.2342 29.3651 23.0451 28.5468 25.0628Z" fill="#B6B7AD"/>
</svg>
