<svg width="31" height="32" viewBox="0 0 31 32" fill="none" xmlns="http://www.w3.org/2000/svg">
<path d="M27.1429 0.618744H3.25714C1.45893 0.618744 0 2.09477 0 3.91406V28.0797C0 29.899 1.45893 31.375 3.25714 31.375H27.1429C28.9411 31.375 30.4 29.899 30.4 28.0797V3.91406C30.4 2.09477 28.9411 0.618744 27.1429 0.618744ZM23.8246 11.5207C23.8382 11.713 23.8382 11.9121 23.8382 12.1043C23.8382 18.0564 19.3596 24.9148 11.1761 24.9148C8.65178 24.9148 6.31071 24.1734 4.34286 22.8964C4.7025 22.9376 5.04857 22.9514 5.415 22.9514C7.49821 22.9514 9.41179 22.2374 10.9386 21.0291C8.98429 20.9879 7.34214 19.6904 6.77893 17.9054C7.46429 18.0084 8.08179 18.0084 8.7875 17.823C6.75179 17.4042 5.225 15.5918 5.225 13.4018V13.3469C5.81536 13.6833 6.5075 13.8892 7.23357 13.9167C6.62315 13.5059 6.12274 12.9486 5.777 12.2946C5.43126 11.6405 5.25094 10.91 5.25214 10.1683C5.25214 9.33073 5.46929 8.56182 5.85607 7.89589C8.04786 10.6283 11.3389 12.4132 15.0304 12.6054C14.3993 9.55042 16.6589 7.07206 19.3732 7.07206C20.6557 7.07206 21.8093 7.61442 22.6236 8.49317C23.6279 8.30094 24.5914 7.92335 25.4464 7.40846C25.1139 8.45198 24.415 9.33073 23.4921 9.88681C24.3879 9.7907 25.2564 9.53668 26.0571 9.18656C25.4532 10.0859 24.6932 10.8823 23.8246 11.5207Z" fill="#B6B7AD"/>
</svg>
