<svg width="19" height="18" viewBox="0 0 19 18" fill="none" xmlns="http://www.w3.org/2000/svg">
<path d="M8.3125 8.79195C10.4008 8.79195 12.0938 7.1005 12.0938 5.01398C12.0938 2.92747 10.4008 1.23602 8.3125 1.23602C6.22417 1.23602 4.53125 2.92747 4.53125 5.01398C4.53125 7.1005 6.22417 8.79195 8.3125 8.79195Z" stroke="black" stroke-miterlimit="10"/>
<path d="M16.5166 10.4634L11.3604 15.6152" stroke="black" stroke-miterlimit="10"/>
<path d="M13.8125 16.6913C15.9008 16.6913 17.5938 14.9999 17.5938 12.9133C17.5938 10.8268 15.9008 9.13538 13.8125 9.13538C11.7242 9.13538 10.0312 10.8268 10.0312 12.9133C10.0312 14.9999 11.7242 16.6913 13.8125 16.6913Z" stroke="black" stroke-miterlimit="10"/>
<path d="M13.8124 9.13538C10.161 9.13538 6.50963 9.13538 2.85825 9.13538C2.74748 9.13919 1.94922 9.17354 1.44505 9.82228C1.1204 10.2382 1.09366 10.6847 1.08984 10.8526C1.08984 12.5699 1.08984 14.2872 1.08984 16.0044C4.62283 16.0044 8.15582 16.0044 11.6888 16.0044" stroke="black" stroke-miterlimit="10"/>
</svg>
