<svg width="14" height="20" viewBox="0 0 14 20" fill="none" xmlns="http://www.w3.org/2000/svg">
<path d="M3.55118 17.2852C2.80547 17.2852 2.05977 17.2577 1.31407 17.276C0.618693 17.2897 0.184082 17.3172 0.0422612 17.0747C-0.113284 16.8094 0.193231 16.4251 0.431123 15.963C0.705615 15.4278 0.852011 14.7233 0.906909 13.2959C0.970957 11.6398 1.02585 10.0249 0.993831 9.45302V9.41642V6.81333C0.993831 4.96509 2.49896 3.45996 4.3472 3.45996H9.56711C11.4154 3.45996 12.9205 4.96509 12.9205 6.81333V9.69091C12.9205 9.83731 12.9205 10.0295 12.9205 10.249C12.9205 11.0222 12.9251 12.1842 12.9571 13.2593C13.044 14.522 13.3825 15.3592 13.6891 15.899C13.8538 16.1918 14.0916 16.5395 13.9635 16.8277C13.7897 17.2257 13.0394 17.2532 12.6689 17.2623C10.7886 17.3126 9.85075 17.2486 6.99604 17.2669C5.89808 17.276 4.78181 17.2852 3.55118 17.2852ZM1.88593 15.9036C3.80279 15.9173 5.41772 15.9036 6.98689 15.8944C8.55607 15.8853 10.1801 15.8715 12.1016 15.8853C11.8362 15.0023 11.6029 13.8312 11.5892 13.3005C11.5526 12.2025 11.5526 11.0268 11.5526 10.2445C11.5526 10.0249 11.5526 9.83731 11.5526 9.68634V6.80876C11.5526 5.71537 10.6651 4.82784 9.57169 4.82784H4.34262C3.24923 4.82784 2.36171 5.71537 2.36171 6.80876V9.38897C2.39374 9.99743 2.34799 11.4111 2.27479 13.3416C2.25192 13.9547 2.10552 15.0709 1.88593 15.9036Z" fill="black"/>
<path d="M4.92365 17.7518C4.92365 18.5844 5.60072 19.2615 6.43335 19.2615H7.47641C8.30904 19.2615 8.98612 18.5844 8.98612 17.7518V16.8551C8.98612 16.7041 8.8626 16.5806 8.71163 16.5806H5.19814C5.04717 16.5806 4.92365 16.7041 4.92365 16.8551V17.7518V17.7518Z" stroke="black" stroke-miterlimit="10"/>
<path d="M6.72613 4.01812C7.63652 4.07759 8.3868 3.32274 8.3319 2.41235C8.28615 1.66207 7.67312 1.04904 6.92285 1.00329C6.01245 0.943817 5.26217 1.69867 5.31707 2.60907C5.3674 3.36392 5.97585 3.97237 6.72613 4.01812Z" stroke="black" stroke-miterlimit="10"/>
</svg>
