<svg width="16" height="16" viewBox="0 0 16 16" fill="none" xmlns="http://www.w3.org/2000/svg">
<path d="M8.28125 1.55941C10.0069 1.55941 11.6285 2.22897 12.8472 3.45013C14.066 4.67129 14.7396 6.28794 14.7396 8.01214C14.7396 9.73634 14.0694 11.3565 12.8472 12.5742C11.6285 13.7918 10.0069 14.4649 8.28125 14.4649C6.55555 14.4649 4.93403 13.7953 3.71528 12.5742C2.49653 11.3565 1.82292 9.73634 1.82292 8.01214C1.82292 6.28794 2.49306 4.66782 3.71528 3.45013C4.9375 2.23244 6.55555 1.55941 8.28125 1.55941ZM8.28125 0.518646C4.13889 0.518646 0.78125 3.87337 0.78125 8.01214C0.78125 12.1509 4.13889 15.5056 8.28125 15.5056C12.4236 15.5056 15.7812 12.1509 15.7812 8.01214C15.7812 3.87337 12.4236 0.518646 8.28125 0.518646Z" fill="black"/>
<path d="M5.96875 5.51086C6.34028 5.51086 6.64583 5.81268 6.64583 6.18735C6.64583 6.55856 6.34375 6.86385 5.96875 6.86385C5.59375 6.86385 5.29167 6.55856 5.29167 6.18735C5.29167 5.81268 5.59375 5.51086 5.96875 5.51086ZM5.96875 4.47009C5.02083 4.47009 4.25 5.24026 4.25 6.18735C4.25 7.13445 5.02083 7.90461 5.96875 7.90461C6.91667 7.90461 7.6875 7.13445 7.6875 6.18735C7.68403 5.24026 6.91667 4.47009 5.96875 4.47009Z" fill="black"/>
<path d="M10.5938 5.51086C10.9653 5.51086 11.2708 5.81268 11.2708 6.18735C11.2708 6.55856 10.9688 6.86385 10.5938 6.86385C10.2188 6.86385 9.91667 6.56203 9.91667 6.18735C9.91667 5.81268 10.2222 5.51086 10.5938 5.51086ZM10.5938 4.47009C9.64583 4.47009 8.875 5.24026 8.875 6.18735C8.875 7.13445 9.64583 7.90461 10.5938 7.90461C11.5417 7.90461 12.3125 7.13445 12.3125 6.18735C12.3125 5.24026 11.5451 4.47009 10.5938 4.47009Z" fill="black"/>
<path d="M5.96875 9.44839C6.34028 9.44839 6.64583 9.75021 6.64583 10.1249C6.64583 10.4996 6.34375 10.8014 5.96875 10.8014C5.59375 10.8014 5.29167 10.4996 5.29167 10.1249C5.29167 9.75021 5.59375 9.44839 5.96875 9.44839ZM5.96875 8.40762C5.02083 8.40762 4.25 9.17779 4.25 10.1249C4.25 11.072 5.02083 11.8421 5.96875 11.8421C6.91667 11.8421 7.6875 11.072 7.6875 10.1249C7.6875 9.17779 6.91667 8.40762 5.96875 8.40762Z" fill="black"/>
<path d="M10.5938 9.44839C10.9653 9.44839 11.2708 9.75021 11.2708 10.1249C11.2708 10.4996 10.9688 10.8014 10.5938 10.8014C10.2188 10.8014 9.91667 10.4996 9.91667 10.1249C9.91667 9.75021 10.2222 9.44839 10.5938 9.44839ZM10.5938 8.40762C9.64583 8.40762 8.875 9.17779 8.875 10.1249C8.875 11.072 9.64583 11.8421 10.5938 11.8421C11.5417 11.8421 12.3125 11.072 12.3125 10.1249C12.3125 9.17779 11.5451 8.40762 10.5938 8.40762Z" fill="black"/>
</svg>
