<svg width="27" height="27" viewBox="0 0 27 27" fill="none" xmlns="http://www.w3.org/2000/svg">
<path d="M3.38904 13.5024C5.37185 9.7837 9.24373 7.44199 13.4531 7.41857C17.7047 7.39515 21.6375 9.74155 23.639 13.5024" stroke="#B6B7AD" stroke-miterlimit="10"/>
<path d="M3.38904 12.8046C5.37185 16.5232 9.24373 18.8649 13.4531 18.8883C17.7047 18.9118 21.6375 16.5654 23.639 12.8046" stroke="#B6B7AD" stroke-miterlimit="10"/>
<path d="M13.514 16.5278C15.3961 16.5278 16.9218 15.0034 16.9218 13.123C16.9218 11.2425 15.3961 9.71809 13.514 9.71809C11.6319 9.71809 10.1062 11.2425 10.1062 13.123C10.1062 15.0034 11.6319 16.5278 13.514 16.5278Z" stroke="#B6B7AD" stroke-miterlimit="10"/>
<line x1="25.3057" y1="4.39564" x2="3.30572" y2="21.3956" stroke="#B6B7AD"/>
</svg>
