<svg width="11" height="18" viewBox="0 0 11 18" fill="none" xmlns="http://www.w3.org/2000/svg">
<path d="M5.50728 0.160126C4.15467 2.25466 3.19581 3.87929 2.57237 4.96481C2.4557 5.1688 2.60519 4.92474 1.71195 6.5348C0.687471 8.38163 0.173407 9.31052 0.0676776 10.8696C0.0129899 11.6455 -0.118261 13.4522 1.07758 15.157C1.21247 15.3501 2.65258 17.3608 5.03696 17.594C5.38696 17.6304 5.64946 17.6158 5.72238 17.6085C8.00468 17.4665 9.43385 15.4521 9.63437 15.1534C10.8266 13.4194 10.6917 11.5617 10.6443 10.8659C10.5349 9.30687 10.0208 8.37799 8.99999 6.53116C8.59895 5.80627 8.2927 5.23437 8.13958 4.96117L5.50728 0.160126ZM8.74114 14.5232C8.7302 14.5414 8.71197 14.5669 8.68645 14.6033C8.52603 14.8364 7.38489 16.4356 5.68228 16.5339C5.63488 16.5376 5.56926 16.5376 5.48905 16.5376C5.49634 11.7839 5.50363 7.02656 5.51092 2.27288C5.92655 3.08519 6.27655 3.75908 6.52811 4.2472C6.9328 5.03038 7.08957 5.32543 7.17707 5.48207C7.50155 6.08675 7.78957 6.60765 8.04478 7.06663C9.02187 8.82604 9.46666 9.62743 9.55781 10.9461C9.58698 11.4415 9.73645 13.037 8.74114 14.5232Z" fill="black"/>
</svg>
