<svg width="23" height="21" viewBox="0 0 23 21" fill="none" xmlns="http://www.w3.org/2000/svg">
<path d="M3.45413 2.31573L2.39393 1.82184L2.76946 2.92951L3.5 5.08429L3.50001 5.08432L5.1484 9.94543L5.14865 9.94617L5.24821 10.2383L5.14887 10.5297L5.14865 10.5303L3.43023 15.5497L3.43009 15.5501L2.78385 17.4432L2.40419 18.5553L3.46877 18.0577L19.358 10.6304L20.3286 10.1767L19.3574 9.72426L3.45413 2.31573ZM4.76515 10.3998L4.82004 10.239L4.76562 10.0781C4.11161 8.14382 3.45584 6.21043 2.80039 4.27796C2.43607 3.20384 2.07185 2.13001 1.70808 1.05646C8.2334 4.09703 14.7585 7.13758 21.2799 10.1781C14.7599 13.2265 8.23631 16.2748 1.71245 19.3231C2.15726 18.0217 2.60264 16.7209 3.04806 15.4198L3.04871 15.4179L3.04913 15.4167C3.62147 13.745 4.19389 12.073 4.76515 10.3998Z" fill="black" stroke="#B6B7AD"/>
<path d="M4.29663 10.2385C9.34483 10.2198 14.393 10.1964 19.4365 10.1777" stroke="#B6B7AD" stroke-miterlimit="10"/>
</svg>
