<svg width="12" height="10" viewBox="0 0 12 10" fill="none" xmlns="http://www.w3.org/2000/svg">
<path d="M2.51945 3.99591V8.8431H1.20695V3.99591H2.51945ZM3.24862 3.26738H0.477783V9.57163H3.24619V3.26738H3.24862Z" fill="#B6B7AD"/>
<path d="M7.50706 0.780551C7.51435 0.780551 7.51921 0.780551 7.52407 0.78298C7.58241 0.792694 7.66262 0.882546 7.70637 0.962685C7.80359 1.14482 7.72824 1.42166 7.6213 1.7665C7.45602 2.28619 7.15706 2.76216 6.72928 3.18471C6.49109 3.42027 6.41817 3.77483 6.54213 4.08567C6.66609 4.39651 6.96505 4.60293 7.30046 4.60778C8.17303 4.62235 8.81713 4.62964 9.33241 4.62964C9.66053 4.62964 9.93032 4.62721 10.1588 4.61993C10.1661 4.61993 10.1782 4.61993 10.188 4.61993C10.2147 4.61993 10.2487 4.62235 10.2803 4.6345C10.3532 4.66607 10.4383 4.77292 10.5088 4.92591C10.6085 5.14204 10.6644 5.40431 10.6935 5.54516C10.8345 6.21299 10.8223 7.04595 10.6595 7.71863C10.5015 8.38159 10.2536 8.70215 10.0762 8.78957C9.97651 8.79685 9.75046 8.80657 9.50984 8.81628C8.92894 8.84057 8.52303 8.84057 8.16574 8.84057H8.1147H8.06366C7.96643 8.84057 7.86678 8.84057 7.7647 8.84057C6.97477 8.843 5.14699 8.86728 4.77025 8.87457H4.76539C4.75567 8.87457 4.74352 8.87457 4.72893 8.87214V3.81854C5.35602 3.48098 5.91261 3.01958 6.35011 2.47075C6.68553 2.0482 6.95532 1.57708 7.14734 1.06954C7.25185 0.880118 7.40741 0.780551 7.50706 0.780551ZM7.50706 0.0520172C7.11574 0.0520172 6.70741 0.321575 6.4838 0.765981C6.48136 0.770838 6.48137 0.773266 6.47893 0.778123C6.35498 1.11568 6.14352 1.56251 5.78136 2.01663C5.18588 2.76216 4.48345 3.14829 4.06296 3.33528C4.0265 3.35228 4.0022 3.3887 4.0022 3.42999V9.46953C4.02164 9.5011 4.05567 9.54482 4.10671 9.57396C4.15289 9.59824 4.19907 9.60553 4.24282 9.60553C4.28171 9.60553 4.31574 9.60067 4.34248 9.59581C4.3765 9.59096 4.41296 9.58853 4.44699 9.58853C4.55393 9.58853 4.66088 9.60553 4.76782 9.60553C4.77511 9.60553 4.77998 9.60553 4.78727 9.60553C5.17616 9.59581 7.00637 9.57396 7.76713 9.57153C7.86921 9.57153 7.96887 9.57153 8.06366 9.57153C8.09768 9.57153 8.13414 9.57153 8.16817 9.57153C8.5765 9.57153 8.96782 9.57153 9.54144 9.54725C9.9838 9.53025 10.205 9.52053 10.2706 9.49868C11.3619 9.13927 11.7338 6.93667 11.4081 5.39703C11.3255 5.00605 11.1456 4.20709 10.5623 3.96425C10.4116 3.90111 10.2755 3.89382 10.1904 3.89382C10.1709 3.89382 10.1539 3.89382 10.1394 3.89382C9.91331 3.89868 9.64352 3.90353 9.33241 3.90353C8.78553 3.90353 8.10984 3.89625 7.31262 3.88168C7.22025 3.87925 7.1765 3.76997 7.24213 3.7044C7.63345 3.31585 8.07581 2.75002 8.31643 1.98749C8.44768 1.57222 8.59595 1.07925 8.35046 0.620274C8.30185 0.53285 8.07824 0.144298 7.65289 0.0690163C7.60428 0.0544456 7.55567 0.0520172 7.50706 0.0520172Z" fill="#B6B7AD"/>
</svg>
