<svg width="41" height="35" viewBox="0 0 41 35" fill="none" xmlns="http://www.w3.org/2000/svg">
<path d="M34.8457 34.9464L23.726 28.4355L11.4773 35C12.4035 30.5041 13.3302 26.0082 14.2574 21.5124L5.25891 11.4014H17.0297L22.9055 0L28.3258 11.4006H40.2824L32.3756 21.6476L34.8457 34.9464ZM23.7866 25.9378L31.8736 30.673L30.3577 22.5114C30.2893 21.9623 30.2204 21.4134 30.151 20.8647L35.8496 13.6093H26.9917L22.8278 4.85053L18.3165 13.6093H10.123L16.5597 20.8391L14.7469 30.633L23.7866 25.9378Z" fill="#B3A25D"/>
<path d="M15.805 9.75629L13.5128 9.73467C15.2875 6.49032 17.0617 3.24543 18.8353 0H21.0109C19.2761 3.25236 17.5408 6.50446 15.805 9.75629Z" fill="#B3A25D"/>
<path d="M9.67992 34.9904L7.62863 34.9968L10.3 22.3201C6.86613 18.6872 3.43281 15.0541 0 11.4207H2.81819L12.5051 21.6677L9.67992 34.9904Z" fill="#B3A25D"/>
<path d="M8.32495 12.5102L15.1626 20.7286L13.2978 31.7762L22.9427 27.0266L32.9303 32.684L31.2209 21.209L38.3181 12.0827H27.9062L22.9427 2.26318L17.8565 11.9762L8.32495 12.5102Z" fill="#B3A25D"/>
</svg>
