<svg width="22" height="22" viewBox="0 0 22 22" fill="none" xmlns="http://www.w3.org/2000/svg">
<path d="M16.5368 18.9152C16.3848 18.9152 16.2448 18.8452 16.1368 18.7239C15.9167 18.4674 15.9167 18.0477 16.1368 17.7911C16.2448 17.6651 16.3848 17.5999 16.5368 17.5999C16.6889 17.5999 16.8289 17.6698 16.9369 17.7911C17.157 18.0477 17.157 18.4674 16.9369 18.7239C16.8289 18.8498 16.6849 18.9152 16.5368 18.9152Z" fill="#B6B7AD"/>
<path d="M16.5345 17.6066C16.6825 17.6066 16.8226 17.6719 16.9266 17.7979C17.1427 18.0497 17.1427 18.4602 16.9266 18.712C16.8226 18.8333 16.6825 18.9033 16.5345 18.9033C16.3864 18.9033 16.2464 18.838 16.1423 18.712C15.9263 18.4602 15.9263 18.0497 16.1423 17.7979C16.2464 17.6766 16.3864 17.6066 16.5345 17.6066ZM16.5345 17.5833C16.3864 17.5833 16.2384 17.6486 16.1263 17.7792C15.9022 18.0404 15.9022 18.4648 16.1263 18.726C16.2384 18.8566 16.3864 18.922 16.5345 18.922C16.6825 18.922 16.8306 18.8566 16.9426 18.726C17.1667 18.4648 17.1667 18.0404 16.9426 17.7792C16.8265 17.6486 16.6825 17.5833 16.5345 17.5833Z" fill="#B6B7AD"/>
<path d="M15.7179 15.1905C15.7099 14.5747 16.154 14.0991 16.6222 14.1457C17.0383 14.183 17.3905 14.6261 17.3864 15.1672C17.3745 15.3117 17.3384 15.517 17.2265 15.7129C17.1623 15.8295 17.0624 15.9227 16.8703 16.1187C16.6982 16.2912 16.6822 16.2912 16.6342 16.3611C16.5582 16.4731 16.4862 16.6503 16.4902 16.9441" stroke="#B6B7AD" stroke-width="1.2" stroke-miterlimit="10" stroke-linejoin="round"/>
<path d="M12.8852 17.9658C9.12792 17.9658 5.37067 17.9658 1.61743 17.9658L10.3803 7.9751C11.6808 9.46297 12.9812 10.9508 14.2816 12.4434" stroke="#B6B7AD" stroke-width="1.2" stroke-miterlimit="10" stroke-linejoin="round"/>
<path d="M10.3602 8.46924C10.3602 8.00283 10.3602 7.53641 10.3602 7.06999C11.6606 6.79481 12.5729 5.44687 12.5009 3.99165C12.4209 2.37318 11.1485 1.05323 9.75199 1.23979C8.52759 1.40305 7.55127 2.67636 7.55127 4.21087" stroke="#B6B7AD" stroke-width="1.2" stroke-miterlimit="10"/>
<path d="M16.5544 20.8388C18.7421 20.8388 20.5156 18.7714 20.5156 16.2212C20.5156 13.6711 18.7421 11.6038 16.5544 11.6038C14.3665 11.6038 12.593 13.6711 12.593 16.2212C12.593 18.7714 14.3665 20.8388 16.5544 20.8388Z" stroke="#B6B7AD" stroke-width="1.2" stroke-miterlimit="10"/>
</svg>
