<svg width="17" height="16" viewBox="0 0 17 16" fill="none" xmlns="http://www.w3.org/2000/svg">
<path d="M7.44242 4.7029C7.41783 4.45788 7.31249 3.72099 6.71851 3.07131C6.03468 2.32335 5.17541 2.20751 4.95546 2.18457C4.67844 2.28795 4.20553 2.50566 3.75285 2.95308C3.26817 3.43213 3.03951 3.94445 2.93555 4.22997C2.9745 5.0148 3.22303 8.2371 5.83115 10.9219C8.32637 13.4904 11.3308 13.868 12.1357 13.943C12.3296 13.9315 13.2767 13.8549 13.9809 13.05C14.4968 12.4604 14.5985 11.8042 14.6243 11.556C14.6113 11.3566 14.5392 10.61 13.9342 9.97603C13.3033 9.31495 12.5287 9.23287 12.3395 9.21821C11.7891 9.71516 11.2387 10.2121 10.6883 10.7091C10.0532 10.5167 8.89713 10.0748 7.7756 9.05018C6.64925 8.02116 6.09624 6.89633 5.84283 6.27538C6.37604 5.75124 6.9092 5.22707 7.44242 4.7029Z" stroke="#B3A25D" stroke-miterlimit="10"/>
</svg>
