<svg width="18" height="15" viewBox="0 0 18 15" fill="none" xmlns="http://www.w3.org/2000/svg">
<path d="M6.63544 0.5C4.81253 1.62153 2.99308 2.74306 1.17017 3.86459L2.42017 6.84029L5.38544 5.32987C5.2778 8.37502 5.17017 11.4202 5.06253 14.4618C6.52086 14.4618 7.97919 14.4618 9.43753 14.4618" stroke="#B3A25D" stroke-miterlimit="10"/>
<path d="M11.5555 0.631836C13.3159 1.70822 15.0729 2.78461 16.8333 3.86447L15.5833 6.84017L12.618 5.32975C12.7951 8.361 12.9722 11.3888 13.1493 14.42C11.743 14.4339 10.3333 14.4478 8.927 14.4617" stroke="#B3A25D" stroke-miterlimit="10"/>
<path d="M6.03833 0.631836C6.12861 0.777669 7.1286 2.35406 8.9897 2.40961C10.948 2.46864 12.0487 0.788086 12.1182 0.676975" stroke="#B3A25D" stroke-miterlimit="10"/>
</svg>
