<svg width="23" height="24" viewBox="0 0 23 24" fill="none" xmlns="http://www.w3.org/2000/svg">
<path d="M13.197 21.3232H13.4166H17.2699V6.33618H5.72998V21.3232H10.0624H10.2621" stroke="#B3A25D" stroke-miterlimit="10"/>
<path d="M17.2699 4.33789H5.72998V6.24873H17.2699V4.33789Z" stroke="#B3A25D" stroke-miterlimit="10"/>
<path d="M5.72998 10.3744C5.90568 10.3952 7.31922 10.5326 8.39335 9.40434C9.5793 8.15127 9.27183 6.4694 9.24388 6.33618" stroke="#B3A25D" stroke-miterlimit="10"/>
<path d="M17.2697 10.3744C17.0941 10.3952 15.6805 10.5326 14.6064 9.40434C13.4204 8.15127 13.7279 6.4694 13.7559 6.33618" stroke="#B3A25D" stroke-miterlimit="10"/>
<path d="M13.4681 21.041C13.2789 20.2645 13.0854 19.23 12.8865 18.1615L12.8752 18.1006C12.6112 16.6826 12.3375 15.2118 12.0576 14.3819L11.647 13.1641C11.7658 13.1901 11.8715 13.2765 11.9239 13.4187L13.5581 20.9578C13.5281 20.9855 13.4981 21.0133 13.4681 21.041ZM11.2093 13.4453C11.2477 13.3138 11.3364 13.2229 11.4391 13.1814L11.1017 14.4092C10.8743 15.237 10.6508 16.7096 10.4345 18.1355L10.4287 18.1739C10.2832 19.1325 10.1408 20.0682 10.0012 20.8149C9.94774 20.7471 9.89428 20.6794 9.84082 20.6118C10.0649 19.7431 10.2845 18.4189 10.4977 17.1335L10.5039 17.0963C10.7461 15.6358 10.9803 14.2292 11.2093 13.4454V13.4453Z" fill="black" stroke="#B3A25D"/>
</svg>
