<svg width="20" height="21" viewBox="0 0 20 21" fill="none" xmlns="http://www.w3.org/2000/svg">
<path d="M9.94092 14.5937C9.95481 12.6805 9.9687 10.7708 9.98258 8.85755" stroke="black" stroke-miterlimit="10" stroke-linejoin="round"/>
<path d="M9.96167 3.55204C11.6874 3.55204 13.3089 4.22218 14.5276 5.4444C15.7464 6.66663 16.42 8.28468 16.42 10.0104C16.42 11.7361 15.7499 13.3576 14.5276 14.5763C13.3054 15.7951 11.6874 16.4687 9.96167 16.4687C8.23598 16.4687 6.61445 15.7986 5.3957 14.5763C4.17695 13.3541 3.50334 11.7361 3.50334 10.0104C3.50334 8.28468 4.17348 6.66315 5.3957 5.4444C6.61792 4.22565 8.23598 3.55204 9.96167 3.55204ZM9.96167 2.51038C5.81931 2.51038 2.46167 5.86801 2.46167 10.0104C2.46167 14.1527 5.81931 17.5104 9.96167 17.5104C14.104 17.5104 17.4617 14.1527 17.4617 10.0104C17.4617 5.86801 14.104 2.51038 9.96167 2.51038Z" fill="black"/>
<path d="M9.9895 5.66672C9.60756 5.66672 9.302 5.97574 9.302 6.35421C9.302 6.73268 9.61103 7.0417 9.9895 7.0417C10.368 7.0417 10.677 6.73268 10.677 6.35421C10.677 5.97574 10.3714 5.66672 9.9895 5.66672Z" fill="black"/>
</svg>
