<svg width="18" height="21" viewBox="0 0 18 21" fill="none" xmlns="http://www.w3.org/2000/svg">
<path d="M13 3H12.41L12.71 2.71C12.8032 2.61676 12.8772 2.50607 12.9277 2.38425C12.9781 2.26243 13.0041 2.13186 13.0041 2C13.0041 1.86814 12.9781 1.73757 12.9277 1.61575C12.8772 1.49393 12.8032 1.38324 12.71 1.29C12.6168 1.19676 12.5061 1.1228 12.3842 1.07234C12.2624 1.02188 12.1319 0.995909 12 0.995909C11.7337 0.995909 11.4783 1.1017 11.29 1.29L9.29 3.29C9.19627 3.38296 9.12188 3.49356 9.07111 3.61542C9.02034 3.73728 8.9942 3.86799 8.9942 4C8.9942 4.13201 9.02034 4.26272 9.07111 4.38458C9.12188 4.50644 9.19627 4.61704 9.29 4.71L11.29 6.71C11.383 6.80373 11.4936 6.87812 11.6154 6.92889C11.7373 6.97966 11.868 7.0058 12 7.0058C12.132 7.0058 12.2627 6.97966 12.3846 6.92889C12.5064 6.87812 12.617 6.80373 12.71 6.71C12.8037 6.61704 12.8781 6.50644 12.9289 6.38458C12.9797 6.26272 13.0058 6.13201 13.0058 6C13.0058 5.86799 12.9797 5.73728 12.9289 5.61542C12.8781 5.49356 12.8037 5.38296 12.71 5.29L12.41 5H13C13.7956 5 14.5587 5.31607 15.1213 5.87868C15.6839 6.44129 16 7.20435 16 8V10C16 10.2652 16.1054 10.5196 16.2929 10.7071C16.4804 10.8946 16.7348 11 17 11C17.2652 11 17.5196 10.8946 17.7071 10.7071C17.8946 10.5196 18 10.2652 18 10V8C18 6.67392 17.4732 5.40215 16.5355 4.46447C15.5979 3.52678 14.3261 3 13 3V3ZM13 17H12V10C12 9.73478 11.8946 9.48043 11.7071 9.29289C11.5196 9.10536 11.2652 9 11 9H4V8C4 7.73478 3.89464 7.48043 3.70711 7.29289C3.51957 7.10536 3.26522 7 3 7C2.73478 7 2.48043 7.10536 2.29289 7.29289C2.10536 7.48043 2 7.73478 2 8V9H1C0.734784 9 0.48043 9.10536 0.292893 9.29289C0.105357 9.48043 0 9.73478 0 10C0 10.2652 0.105357 10.5196 0.292893 10.7071C0.48043 10.8946 0.734784 11 1 11H2V18C2 18.2652 2.10536 18.5196 2.29289 18.7071C2.48043 18.8946 2.73478 19 3 19H10V20C10 20.2652 10.1054 20.5196 10.2929 20.7071C10.4804 20.8946 10.7348 21 11 21C11.2652 21 11.5196 20.8946 11.7071 20.7071C11.8946 20.5196 12 20.2652 12 20V19H13C13.2652 19 13.5196 18.8946 13.7071 18.7071C13.8946 18.5196 14 18.2652 14 18C14 17.7348 13.8946 17.4804 13.7071 17.2929C13.5196 17.1054 13.2652 17 13 17ZM10 17H4V11H10V17Z" fill="black"/>
</svg>
