<svg width="20" height="20" viewBox="0 0 20 20" fill="none" xmlns="http://www.w3.org/2000/svg">
<path d="M5.82446 20C4.53243 20 3.24036 19.5082 2.25677 18.5246C0.289424 16.5574 0.289424 13.3564 2.25669 11.3892L12.4938 1.15228C14.0302 -0.384092 16.5301 -0.384092 18.0665 1.15228C19.6029 2.68868 19.6029 5.18849 18.0665 6.72481L9.37001 15.4211C8.26466 16.5266 6.46583 16.5267 5.36024 15.4211C4.25478 14.3156 4.25478 12.5169 5.36024 11.4114L12.0126 4.75915C12.1957 4.5761 12.4925 4.5761 12.6755 4.75915L12.8967 4.98028C13.0797 5.16333 13.0797 5.46013 12.8967 5.64321L6.24431 12.2954C5.6263 12.9134 5.6263 13.919 6.24435 14.537C6.86235 15.155 7.86794 15.155 8.48595 14.537L17.1824 5.84071C18.2313 4.79185 18.2313 3.08521 17.1824 2.03626C16.1334 0.987393 14.4268 0.987471 13.3779 2.03626L3.14079 12.2733C1.66103 13.7531 1.66103 16.1608 3.14079 17.6405C4.62063 19.1202 7.02841 19.1203 8.50813 17.6406L17.0137 9.13513C17.1968 8.95208 17.4936 8.95208 17.6766 9.13513L17.8977 9.35626C18.0808 9.53931 18.0808 9.8361 17.8977 10.0192L9.3922 18.5246C8.4086 19.5082 7.11653 20 5.82446 20Z" fill="#B6B7AD"/>
</svg>
