<svg width="15" height="15" viewBox="0 0 15 15" fill="none" xmlns="http://www.w3.org/2000/svg">
<path d="M4.36835 15C3.39932 15 2.43027 14.6312 1.69258 13.8934C0.217068 12.418 0.217068 10.0173 1.69252 8.54192L9.37038 0.864207C10.5227 -0.288069 12.3976 -0.288069 13.5499 0.864207C14.7021 2.01651 14.7021 3.89136 13.5499 5.04361L7.02751 11.5659C6.19849 12.395 4.84937 12.395 4.02018 11.5659C3.19108 10.7367 3.19108 9.38766 4.02018 8.55856L9.00947 3.56936C9.14676 3.43208 9.36935 3.43208 9.50664 3.56936L9.67249 3.73521C9.80977 3.8725 9.80977 4.0951 9.67249 4.23241L4.68323 9.22158C4.21972 9.68509 4.21972 10.4392 4.68326 10.9028C5.14677 11.3663 5.90095 11.3663 6.36446 10.9028L12.8868 4.38053C13.6735 3.59388 13.6735 2.3139 12.8868 1.52719C12.1001 0.740544 10.8201 0.740603 10.0335 1.52719L2.35559 9.20497C1.24577 10.3148 1.24577 12.1206 2.35559 13.2304C3.46548 14.3402 5.27131 14.3402 6.3811 13.2304L12.7603 6.85135C12.8976 6.71406 13.1202 6.71406 13.2575 6.85135L13.4233 7.0172C13.5606 7.15448 13.5606 7.37708 13.4233 7.51439L7.04415 13.8934C6.30645 14.6312 5.3374 15 4.36835 15Z" fill="#B3A25D"/>
</svg>
