<svg width="16" height="15" viewBox="0 0 16 15" fill="none" xmlns="http://www.w3.org/2000/svg">
<path d="M0.5 13.802H15.5" stroke="#B3A25D" stroke-miterlimit="10" stroke-linejoin="round"/>
<path d="M13 8.802H3V13.4895H13V8.802Z" stroke="#B3A25D" stroke-miterlimit="10"/>
<path d="M13 6.302H3V8.802H13V6.302Z" stroke="#B3A25D" stroke-miterlimit="10"/>
<path d="M5.53809 6.302V2.8645" stroke="#B3A25D" stroke-miterlimit="10"/>
<path d="M8.03809 6.302V2.8645" stroke="#B3A25D" stroke-miterlimit="10"/>
<path d="M10.5381 6.302V2.8645" stroke="#B3A25D" stroke-miterlimit="10"/>
<path d="M5.66309 1.61451C5.66309 1.68355 5.60712 1.73951 5.53809 1.73951C5.46905 1.73951 5.41309 1.68355 5.41309 1.61451C5.41309 1.54547 5.46905 1.4895 5.53809 1.4895C5.60712 1.4895 5.66309 1.54547 5.66309 1.61451Z" fill="#B3A25D" stroke="#B3A25D"/>
<path d="M8.16309 1.61451C8.16309 1.68355 8.10712 1.73951 8.03809 1.73951C7.96905 1.73951 7.91309 1.68355 7.91309 1.61451C7.91309 1.54547 7.96905 1.4895 8.03809 1.4895C8.10712 1.4895 8.16309 1.54547 8.16309 1.61451Z" fill="#B3A25D" stroke="#B3A25D"/>
<path d="M10.6631 1.61451C10.6631 1.68355 10.6071 1.73951 10.5381 1.73951C10.4691 1.73951 10.4131 1.68355 10.4131 1.61451C10.4131 1.54547 10.4691 1.4895 10.5381 1.4895C10.6071 1.4895 10.6631 1.54547 10.6631 1.61451Z" fill="#B3A25D" stroke="#B3A25D"/>
</svg>
