<svg width="19" height="15" viewBox="0 0 19 15" fill="none" xmlns="http://www.w3.org/2000/svg">
<path d="M7.40108 1.11768L9.59202 8.59101V12.8792C9.49772 13.2104 9.31099 13.5079 9.05368 13.7368C8.73009 14.0281 8.37945 14.1462 8.15151 14.2207C7.00294 14.5958 5.69768 14.3563 5.26457 14.2646C5.36749 12.1315 5.47062 9.99842 5.57398 7.86531C5.16143 6.01084 4.749 4.15636 4.33667 2.30188L7.40108 1.11768Z" stroke="#B3A25D" stroke-miterlimit="10"/>
<path d="M4.24137 2.1687L1.24524 14.2647L3.11093 14.243L5.31078 6.90618" stroke="#B3A25D" stroke-miterlimit="10"/>
<path d="M11.8134 1.11768C11.0831 3.60879 10.3529 6.0999 9.6228 8.59101V12.8792C9.7168 13.2105 9.90345 13.508 10.1608 13.7368C10.4844 14.0281 10.835 14.1462 11.063 14.2207C12.2116 14.5958 13.5168 14.3563 13.9499 14.2646C13.847 12.1315 13.744 9.99842 13.6408 7.86531C14.0532 6.01084 14.4652 4.15636 14.8768 2.30188L11.8134 1.11768Z" stroke="#B3A25D" stroke-miterlimit="10"/>
<path d="M14.9731 2.1687L17.9692 14.2647L16.1035 14.243L13.9027 6.90618" stroke="#B3A25D" stroke-miterlimit="10"/>
<path d="M7.7207 0.960369L11.5039 0.954102" stroke="#B3A25D" stroke-miterlimit="10"/>
</svg>
