<svg width="16" height="16" viewBox="0 0 16 16" fill="none" xmlns="http://www.w3.org/2000/svg">
<path d="M8 1.46873C9.72569 1.46873 11.3472 2.13887 12.566 3.36109C13.7847 4.57984 14.4583 6.20137 14.4583 7.92706C14.4583 9.65276 13.7882 11.2743 12.566 12.493C11.3472 13.7118 9.72569 14.3854 8 14.3854C6.27431 14.3854 4.65278 13.7153 3.43403 12.493C2.21528 11.2743 1.54167 9.65276 1.54167 7.92706C1.54167 6.20137 2.21181 4.57984 3.43403 3.36109C4.65278 2.14234 6.27431 1.46873 8 1.46873ZM8 0.427063C3.85764 0.427063 0.5 3.7847 0.5 7.92706C0.5 12.0694 3.85764 15.4271 8 15.4271C12.1424 15.4271 15.5 12.0694 15.5 7.92706C15.5 3.7847 12.1424 0.427063 8 0.427063Z" fill="black"/>
<path d="M3 12.9271L13 2.92706" stroke="black" stroke-miterlimit="10" stroke-linejoin="round"/>
</svg>
