<svg width="19" height="11" viewBox="0 0 19 11" fill="none" xmlns="http://www.w3.org/2000/svg">
<path d="M5.47918 7.33668H2.60418C1.93057 7.33668 1.38196 6.79154 1.38196 6.11446V2.55889C1.38196 1.88528 1.9271 1.33667 2.60418 1.33667H10.2778C10.9514 1.33667 11.5 1.88181 11.5 2.55889V6.11446C11.5 6.78807 10.9549 7.33668 10.2778 7.33668H9.21529" stroke="#B3A25D" stroke-miterlimit="10"/>
<path d="M17.5452 8.65252L17.5452 8.65441C17.5476 9.29656 17.0264 9.81919 16.382 9.81919H8.55907C7.90498 9.81919 7.3924 9.28817 7.3924 8.79141V4.25323C7.3924 3.99234 7.60487 3.78101 7.86462 3.78101H9.18754V3.82267H8.09726C7.73765 3.82267 7.43059 4.11269 7.43059 4.48934V8.79141C7.43059 9.08813 7.61163 9.3352 7.77962 9.48228C7.96747 9.64674 8.23723 9.77752 8.55559 9.77752H16.3785C17.0037 9.77752 17.5035 9.2706 17.5035 8.65252V4.94767C17.5035 4.6175 17.3661 4.35173 17.2184 4.17445C17.1442 4.0855 17.06 4.00941 16.9733 3.95157C16.9101 3.90944 16.7669 3.82267 16.5869 3.82267H13.8403V3.78101H16.5869C16.7924 3.78101 17.0285 3.89071 17.2261 4.11666C17.4219 4.34053 17.5452 4.6423 17.5452 4.94767L17.5452 8.65252Z" fill="black" stroke="#B3A25D"/>
</svg>
