<svg width="34" height="33" viewBox="0 0 34 33" fill="none" xmlns="http://www.w3.org/2000/svg">
<path d="M27.0413 10.1971V21.4174H24.0087V10.1971H27.0413ZM28.7291 8.51064H22.3208V23.1038H28.7291V8.51064Z" fill="#B6B7AD"/>
<path d="M18.8044 10.1183C18.8269 10.1183 18.855 10.1183 18.8888 10.124V21.8277C17.4372 22.6091 16.1488 23.6772 15.136 24.9476C14.3596 25.9257 13.7351 27.0163 13.2906 28.1912C13.0487 28.624 12.6886 28.8601 12.4579 28.8601C12.441 28.8601 12.4298 28.8601 12.4129 28.8545C12.2779 28.832 12.0922 28.624 11.9909 28.4385C11.7659 28.0169 11.9403 27.3761 12.1879 26.5778C12.5704 25.3748 13.2625 24.273 14.2527 23.2949C14.8041 22.7496 14.9729 21.9289 14.6859 21.2094C14.399 20.4898 13.707 20.012 12.9305 20.0008C10.9107 19.967 9.41973 19.9502 8.22695 19.9502C7.4674 19.9502 6.84289 19.9558 6.31402 19.9727C6.29714 19.9727 6.269 19.9727 6.2465 19.9727C6.18461 19.9727 6.10584 19.967 6.0327 19.9389C5.86391 19.8659 5.66699 19.6185 5.50383 19.2644C5.27315 18.7641 5.14375 18.1569 5.07623 17.8309C4.74991 16.285 4.77804 14.3569 5.155 12.7997C5.52071 11.2651 6.09459 10.5231 6.50531 10.3207C6.73599 10.3038 7.25923 10.2814 7.81623 10.2589C9.16092 10.2027 10.1005 10.2027 10.9276 10.2027H11.0457H11.1639C11.3889 10.2027 11.6196 10.2027 11.8559 10.2027C13.6845 10.197 17.9154 10.1408 18.7875 10.124L18.8044 10.1183ZM18.8044 8.43191C18.7875 8.43191 18.7762 8.43191 18.7594 8.43191C17.8592 8.45439 13.6226 8.50499 11.8615 8.51061C11.6252 8.51061 11.3946 8.51061 11.1751 8.51061C11.0964 8.51061 11.012 8.51061 10.9332 8.51061C9.98798 8.51061 9.08215 8.51061 7.75434 8.56682C6.73036 8.60617 6.21837 8.62866 6.06646 8.67925C3.53463 9.51684 2.67943 14.6098 3.42773 18.1794C3.61902 19.0845 4.03537 20.9339 5.38568 21.4961C5.73451 21.6422 6.04958 21.6591 6.2465 21.6591C6.29151 21.6591 6.33089 21.6591 6.36465 21.6591C6.8879 21.6478 7.51241 21.6366 8.23258 21.6366C9.49849 21.6366 11.0626 21.6535 12.908 21.6872C13.1218 21.6928 13.2231 21.9458 13.0712 22.0976C12.1654 22.997 11.1414 24.3068 10.5844 26.0719C10.2805 27.0331 9.93734 28.1743 10.5056 29.2367C10.6181 29.4391 11.1357 30.3385 12.1203 30.5128C12.2329 30.5297 12.3398 30.5409 12.4523 30.5409C13.3581 30.5409 14.3033 29.9169 14.821 28.8882C14.8266 28.877 14.8266 28.8713 14.8322 28.8601C15.1192 28.0787 15.6086 27.0444 16.447 25.9932C17.8254 24.2674 19.4514 23.3736 20.4247 22.9408C20.5091 22.9014 20.5654 22.8171 20.5654 22.7215V8.74671C20.5204 8.67363 20.4416 8.57244 20.3235 8.50499C20.2166 8.44877 20.1097 8.43191 20.0084 8.43191C19.9184 8.43191 19.8396 8.44315 19.7777 8.45439C19.699 8.46564 19.6146 8.47126 19.5358 8.47126C19.2995 8.47126 19.0519 8.43191 18.8044 8.43191Z" fill="#B6B7AD"/>
</svg>
