<svg width="34" height="35" viewBox="0 0 34 35" fill="none" xmlns="http://www.w3.org/2000/svg">
<path d="M30.3571 0.4375H3.64286C2.67671 0.4375 1.75014 0.822711 1.06697 1.50839C0.3838 2.19407 0 3.12405 0 4.09375L0 30.9062C0 31.8759 0.3838 32.8059 1.06697 33.4916C1.75014 34.1773 2.67671 34.5625 3.64286 34.5625H14.0592V22.9608H9.2779V17.5H14.0592V13.338C14.0592 8.60389 16.8672 5.98891 21.168 5.98891C23.2278 5.98891 25.3816 6.35758 25.3816 6.35758V11.0041H23.0084C20.6702 11.0041 19.9408 12.4605 19.9408 13.9542V17.5H25.1608L24.3259 22.9608H19.9408V34.5625H30.3571C31.3233 34.5625 32.2499 34.1773 32.933 33.4916C33.6162 32.8059 34 31.8759 34 30.9062V4.09375C34 3.12405 33.6162 2.19407 32.933 1.50839C32.2499 0.822711 31.3233 0.4375 30.3571 0.4375Z" fill="black"/>
</svg>
