<svg width="10" height="16" viewBox="0 0 10 16" fill="none" xmlns="http://www.w3.org/2000/svg">
<path d="M4.88189 13.9771C4.39195 13.9771 3.99646 14.3722 3.99646 14.8617C3.99646 15.3512 4.39195 15.7464 4.88189 15.7464C5.37182 15.7464 5.76731 15.3512 5.76731 14.8617C5.76731 14.3722 5.37182 13.9771 4.88189 13.9771Z" fill="black"/>
<path d="M1.38747 5.01266C1.34025 2.63591 3.35899 0.807633 5.46038 0.972767C7.32565 1.12021 8.9135 2.82463 8.90759 4.9183C8.84856 5.47857 8.68919 6.26296 8.18745 7.01786C7.89232 7.46019 7.44961 7.83174 6.5878 8.58074C5.82045 9.24718 5.73781 9.24718 5.53121 9.51257C5.19475 9.9431 4.8701 10.6213 4.88191 11.7537" stroke="black" stroke-miterlimit="10" stroke-linejoin="round"/>
</svg>
