<svg width="20" height="21" viewBox="0 0 20 21" fill="none" xmlns="http://www.w3.org/2000/svg">
<path d="M10 3.70491C11.7257 3.70491 13.3472 4.37504 14.566 5.59727C15.7882 6.81602 16.4583 8.43754 16.4583 10.1632C16.4583 11.8889 15.7882 13.5105 14.566 14.7292C13.3438 15.948 11.7257 16.6216 10 16.6216C8.27431 16.6216 6.65278 15.9514 5.43403 14.7292C4.21528 13.507 3.54167 11.8889 3.54167 10.1632C3.54167 8.43754 4.21181 6.81602 5.43403 5.59727C6.65278 4.37504 8.27431 3.70491 10 3.70491ZM10 2.66324C5.85764 2.66324 2.5 6.02088 2.5 10.1632C2.5 14.3056 5.85764 17.6632 10 17.6632C14.1424 17.6632 17.5 14.3056 17.5 10.1632C17.5 6.02088 14.1424 2.66324 10 2.66324Z" fill="black"/>
<path d="M10.3644 5.46536H9.32275V10.5105H10.3644V5.46536Z" fill="black"/>
<path d="M14.7186 9.98964H9.32275V11.0313H14.7186V9.98964Z" fill="black"/>
</svg>
