<svg width="15" height="15" viewBox="0 0 15 15" fill="none" xmlns="http://www.w3.org/2000/svg">
<path d="M7.49826 3.65337C5.36998 3.65337 3.6533 5.37005 3.6533 7.49833C3.6533 9.6266 5.36998 11.3433 7.49826 11.3433C9.62653 11.3433 11.3432 9.6266 11.3432 7.49833C11.3432 5.37005 9.62653 3.65337 7.49826 3.65337ZM7.49826 9.99805C6.12291 9.99805 4.99853 8.87702 4.99853 7.49833C4.99853 6.11963 6.11956 4.99861 7.49826 4.99861C8.87695 4.99861 9.99798 6.11963 9.99798 7.49833C9.99798 8.87702 8.8736 9.99805 7.49826 9.99805ZM12.3973 3.4961C12.3973 3.9947 11.9957 4.39292 11.5005 4.39292C11.0019 4.39292 10.6037 3.99135 10.6037 3.4961C10.6037 3.00084 11.0052 2.59927 11.5005 2.59927C11.9957 2.59927 12.3973 3.00084 12.3973 3.4961ZM14.9439 4.4063C14.887 3.20496 14.6126 2.14083 13.7325 1.26408C12.8558 0.38734 11.7916 0.112939 10.5903 0.052705C9.35213 -0.0175683 5.64103 -0.0175683 4.40288 0.052705C3.20489 0.109593 2.14075 0.383993 1.26066 1.26074C0.380575 2.13748 0.109521 3.20162 0.049287 4.40296C-0.0209863 5.6411 -0.0209863 9.3522 0.049287 10.5904C0.106175 11.7917 0.380575 12.8558 1.26066 13.7326C2.14075 14.6093 3.20155 14.8837 4.40288 14.9439C5.64103 15.0142 9.35213 15.0142 10.5903 14.9439C11.7916 14.8871 12.8558 14.6127 13.7325 13.7326C14.6092 12.8558 14.8836 11.7917 14.9439 10.5904C15.0142 9.3522 15.0142 5.64445 14.9439 4.4063ZM13.3443 11.9188C13.0833 12.5747 12.578 13.08 11.9188 13.3444C10.9316 13.7359 8.58916 13.6456 7.49826 13.6456C6.40735 13.6456 4.06156 13.7326 3.07773 13.3444C2.42185 13.0834 1.91655 12.5781 1.65219 11.9188C1.26066 10.9317 1.35102 8.58924 1.35102 7.49833C1.35102 6.40742 1.26401 4.06163 1.65219 3.0778C1.9132 2.42192 2.4185 1.91662 3.07773 1.65226C4.0649 1.26074 6.40735 1.35109 7.49826 1.35109C8.58916 1.35109 10.935 1.26408 11.9188 1.65226C12.5747 1.91327 13.08 2.41857 13.3443 3.0778C13.7358 4.06497 13.6455 6.40742 13.6455 7.49833C13.6455 8.58924 13.7358 10.935 13.3443 11.9188Z" fill="black"/>
</svg>
