<svg width="20" height="21" viewBox="0 0 20 21" fill="none" xmlns="http://www.w3.org/2000/svg">
<path d="M11.8133 16.1045H2.03418L9.63835 8.66699L13.0227 11.9923" stroke="#231F20" stroke-linejoin="round"/>
<path d="M9.62069 9.03397V7.9923C10.7485 7.7864 11.5394 6.78258 11.4783 5.70064C11.4106 4.49682 10.3054 3.51314 9.0943 3.65203C8.03319 3.77321 7.18457 4.72112 7.18457 5.86279" stroke="#231F20" stroke-miterlimit="10"/>
<path d="M14.9968 18.2439C16.8953 18.2439 18.4343 16.7049 18.4343 14.8064C18.4343 12.9079 16.8953 11.3689 14.9968 11.3689C13.0983 11.3689 11.5593 12.9079 11.5593 14.8064C11.5593 16.7049 13.0983 18.2439 14.9968 18.2439Z" stroke="#231F20" stroke-miterlimit="10"/>
<path d="M17.3281 12.4631L12.5854 17.1805" stroke="#231F20" stroke-miterlimit="10"/>
</svg>
