<svg width="23" height="15" viewBox="0 0 23 15" fill="none" xmlns="http://www.w3.org/2000/svg">
<path d="M19.7159 14.7274L14.9208 11.9835L9.63814 14.75C10.0378 12.8544 10.4374 10.9593 10.8371 9.06457L6.95642 4.80488H12.033L14.5653 0L16.9029 4.80455H22.0606L18.651 9.12294L19.7159 14.7274ZM14.9466 10.9309L18.4342 12.9265L17.7805 9.48696C17.751 9.25552 17.7213 9.0242 17.6913 8.79298L20.1489 5.73536H16.3289L14.5325 2.04415L12.5876 5.73536H9.05441L11.83 8.78219L11.0479 12.9096L14.9466 10.9309Z" fill="#B3A25D"/>
<path d="M9.67308 4.11158L8.68457 4.10247C9.44589 2.7352 10.2073 1.36771 10.9689 0H11.9071C11.1623 1.37064 10.4177 2.74116 9.67308 4.11158Z" fill="#B3A25D"/>
<path d="M7.86351 4.11158L6.875 4.10247C7.63833 2.7352 8.40178 1.36771 9.16534 0H10.0925L7.86351 4.11158Z" fill="#B3A25D"/>
<path d="M11.505 4.11158L10.5165 4.10247C11.2814 2.7352 12.0465 1.36771 12.8118 0H13.7501C13.0015 1.37064 12.2531 2.74116 11.505 4.11158Z" fill="#B3A25D"/>
<path d="M8.86381 14.746L7.97917 14.7487L9.13188 9.40634L4.6886 4.81299H5.90397L10.0815 9.13138L8.86381 14.746Z" fill="#B3A25D"/>
<path d="M7.16018 14.7487H6.26617C6.6265 13.1043 6.98694 11.4598 7.3475 9.81523L2.35132 4.81299H3.59115L8.30116 9.53319L7.16018 14.7487Z" fill="#B3A25D"/>
<path d="M5.44922 14.7487H4.55185C4.89475 13.2494 5.23744 11.7502 5.5799 10.2511L0 4.81299H1.24553L6.53993 9.96435C6.17625 11.5592 5.81267 13.154 5.44922 14.7487Z" fill="#B3A25D"/>
<path d="M8.34143 5.272L11.2902 8.73549L10.486 13.3912L14.6451 11.3896L18.9524 13.7738L18.2152 8.93791L21.2759 5.09184H16.7857L14.6451 0.953613L12.4516 5.04697L8.34143 5.272Z" fill="#B3A25D"/>
</svg>
