<svg width="31" height="21" viewBox="0 0 31 21" fill="none" xmlns="http://www.w3.org/2000/svg">
<path d="M27.0846 20.2316L20.4973 16.4623L13.2403 20.2627C13.7893 17.6586 14.3383 15.0552 14.8873 12.4524L9.55627 6.60066H16.5302L20.0089 0L23.2201 6.6002H30.3055L25.6216 12.5325L27.0846 20.2316ZM20.5327 15.0163L25.3238 17.7577L24.4257 13.0326C24.3852 12.7147 24.3444 12.3969 24.3033 12.0793L27.6793 7.8789H22.4316L19.9638 2.80813L17.292 7.8789H12.4384L16.2513 12.0644L15.1769 17.7345L20.5327 15.0163Z" fill="#E5E4E2"/>
<path d="M27.0846 20.2316L20.4973 16.4623L13.2403 20.2627C13.7893 17.6586 14.3383 15.0552 14.8873 12.4524L9.55627 6.60066H16.5302L20.0089 0L23.2201 6.6002H30.3055L25.6216 12.5325L27.0846 20.2316ZM20.5327 15.0163L25.3238 17.7577L24.4257 13.0326C24.3852 12.7147 24.3444 12.3969 24.3033 12.0793L27.6793 7.8789H22.4316L19.9638 2.80813L17.292 7.8789H12.4384L16.2513 12.0644L15.1769 17.7345L20.5327 15.0163Z" fill="url(#paint0_linear)"/>
<path d="M27.0846 20.2316L20.4973 16.4623L13.2403 20.2627C13.7893 17.6586 14.3383 15.0552 14.8873 12.4524L9.55627 6.60066H16.5302L20.0089 0L23.2201 6.6002H30.3055L25.6216 12.5325L27.0846 20.2316ZM20.5327 15.0163L25.3238 17.7577L24.4257 13.0326C24.3852 12.7147 24.3444 12.3969 24.3033 12.0793L27.6793 7.8789H22.4316L19.9638 2.80813L17.292 7.8789H12.4384L16.2513 12.0644L15.1769 17.7345L20.5327 15.0163Z" fill="url(#paint1_linear)"/>
<path d="M13.2883 5.64824L11.9303 5.63573C12.9762 3.75746 14.0222 1.87889 15.0683 0H16.3572C15.3341 1.8829 14.3111 3.76565 13.2883 5.64824Z" fill="#E5E4E2"/>
<path d="M13.2883 5.64824L11.9303 5.63573C12.9762 3.75746 14.0222 1.87889 15.0683 0H16.3572C15.3341 1.8829 14.3111 3.76565 13.2883 5.64824Z" fill="url(#paint2_linear)"/>
<path d="M13.2883 5.64824L11.9303 5.63573C12.9762 3.75746 14.0222 1.87889 15.0683 0H16.3572C15.3341 1.8829 14.3111 3.76565 13.2883 5.64824Z" fill="url(#paint3_linear)"/>
<path d="M10.8025 5.64824L9.44458 5.63573C10.4932 3.75746 11.542 1.87889 12.5909 0H13.8646L10.8025 5.64824Z" fill="#E5E4E2"/>
<path d="M10.8025 5.64824L9.44458 5.63573C10.4932 3.75746 11.542 1.87889 12.5909 0H13.8646L10.8025 5.64824Z" fill="url(#paint4_linear)"/>
<path d="M10.8025 5.64824L9.44458 5.63573C10.4932 3.75746 11.542 1.87889 12.5909 0H13.8646L10.8025 5.64824Z" fill="url(#paint5_linear)"/>
<path d="M15.8049 5.64824L14.4469 5.63573C15.4977 3.75746 16.5487 1.87889 17.6001 0H18.889C17.8607 1.8829 16.8326 3.76565 15.8049 5.64824Z" fill="#E5E4E2"/>
<path d="M15.8049 5.64824L14.4469 5.63573C15.4977 3.75746 16.5487 1.87889 17.6001 0H18.889C17.8607 1.8829 16.8326 3.76565 15.8049 5.64824Z" fill="url(#paint6_linear)"/>
<path d="M15.8049 5.64824L14.4469 5.63573C15.4977 3.75746 16.5487 1.87889 17.6001 0H18.889C17.8607 1.8829 16.8326 3.76565 15.8049 5.64824Z" fill="url(#paint7_linear)"/>
<path d="M12.1766 20.2571L10.9613 20.2608L12.5448 12.9219L6.44092 6.61182H8.11052L13.8494 12.5442L12.1766 20.2571Z" fill="#E5E4E2"/>
<path d="M12.1766 20.2571L10.9613 20.2608L12.5448 12.9219L6.44092 6.61182H8.11052L13.8494 12.5442L12.1766 20.2571Z" fill="url(#paint8_linear)"/>
<path d="M12.1766 20.2571L10.9613 20.2608L12.5448 12.9219L6.44092 6.61182H8.11052L13.8494 12.5442L12.1766 20.2571Z" fill="url(#paint9_linear)"/>
<path d="M9.83624 20.2608H8.60809C9.10309 18.0019 9.59825 15.7428 10.0936 13.4836L3.2301 6.61182H4.93331L11.4036 13.0961L9.83624 20.2608Z" fill="#E5E4E2"/>
<path d="M9.83624 20.2608H8.60809C9.10309 18.0019 9.59825 15.7428 10.0936 13.4836L3.2301 6.61182H4.93331L11.4036 13.0961L9.83624 20.2608Z" fill="url(#paint10_linear)"/>
<path d="M9.83624 20.2608H8.60809C9.10309 18.0019 9.59825 15.7428 10.0936 13.4836L3.2301 6.61182H4.93331L11.4036 13.0961L9.83624 20.2608Z" fill="url(#paint11_linear)"/>
<path d="M7.48581 20.2608H6.25306C6.72412 18.2012 7.19488 16.1417 7.66534 14.0824L0 6.61182H1.71103L8.98417 13.6885C8.48456 15.8794 7.98511 18.0702 7.48581 20.2608Z" fill="#E5E4E2"/>
<path d="M7.48581 20.2608H6.25306C6.72412 18.2012 7.19488 16.1417 7.66534 14.0824L0 6.61182H1.71103L8.98417 13.6885C8.48456 15.8794 7.98511 18.0702 7.48581 20.2608Z" fill="url(#paint12_linear)"/>
<path d="M7.48581 20.2608H6.25306C6.72412 18.2012 7.19488 16.1417 7.66534 14.0824L0 6.61182H1.71103L8.98417 13.6885C8.48456 15.8794 7.98511 18.0702 7.48581 20.2608Z" fill="url(#paint13_linear)"/>
<path d="M11.459 7.24253L15.5099 12.0005L14.4051 18.3963L20.1186 15.6465L26.0357 18.9218L25.023 12.2785L29.2276 6.99504H23.0592L20.1186 1.31018L17.1053 6.9334L11.459 7.24253Z" fill="#E5E4E2"/>
<path d="M11.459 7.24253L15.5099 12.0005L14.4051 18.3963L20.1186 15.6465L26.0357 18.9218L25.023 12.2785L29.2276 6.99504H23.0592L20.1186 1.31018L17.1053 6.9334L11.459 7.24253Z" fill="url(#paint14_linear)"/>
<path d="M11.459 7.24253L15.5099 12.0005L14.4051 18.3963L20.1186 15.6465L26.0357 18.9218L25.023 12.2785L29.2276 6.99504H23.0592L20.1186 1.31018L17.1053 6.9334L11.459 7.24253Z" fill="url(#paint15_linear)"/>
<defs>
<linearGradient id="paint0_linear" x1="19.9309" y1="0" x2="19.9309" y2="20.2627" gradientUnits="userSpaceOnUse">
<stop stop-color="white"/>
<stop offset="1" stop-color="white" stop-opacity="0"/>
</linearGradient>
<linearGradient id="paint1_linear" x1="19.9309" y1="0" x2="19.9309" y2="20.2627" gradientUnits="userSpaceOnUse">
<stop stop-color="#E5E4E2"/>
<stop offset="1" stop-color="white" stop-opacity="0"/>
</linearGradient>
<linearGradient id="paint2_linear" x1="14.1438" y1="0" x2="14.1438" y2="5.64824" gradientUnits="userSpaceOnUse">
<stop stop-color="white"/>
<stop offset="1" stop-color="white" stop-opacity="0"/>
</linearGradient>
<linearGradient id="paint3_linear" x1="14.1438" y1="0" x2="14.1438" y2="5.64824" gradientUnits="userSpaceOnUse">
<stop stop-color="#E5E4E2"/>
<stop offset="1" stop-color="white" stop-opacity="0"/>
</linearGradient>
<linearGradient id="paint4_linear" x1="11.6546" y1="0" x2="11.6546" y2="5.64824" gradientUnits="userSpaceOnUse">
<stop stop-color="white"/>
<stop offset="1" stop-color="white" stop-opacity="0"/>
</linearGradient>
<linearGradient id="paint5_linear" x1="11.6546" y1="0" x2="11.6546" y2="5.64824" gradientUnits="userSpaceOnUse">
<stop stop-color="#E5E4E2"/>
<stop offset="1" stop-color="white" stop-opacity="0"/>
</linearGradient>
<linearGradient id="paint6_linear" x1="16.668" y1="0" x2="16.668" y2="5.64824" gradientUnits="userSpaceOnUse">
<stop stop-color="white"/>
<stop offset="1" stop-color="white" stop-opacity="0"/>
</linearGradient>
<linearGradient id="paint7_linear" x1="16.668" y1="0" x2="16.668" y2="5.64824" gradientUnits="userSpaceOnUse">
<stop stop-color="#E5E4E2"/>
<stop offset="1" stop-color="white" stop-opacity="0"/>
</linearGradient>
<linearGradient id="paint8_linear" x1="10.1452" y1="6.61182" x2="10.1452" y2="20.2608" gradientUnits="userSpaceOnUse">
<stop stop-color="white"/>
<stop offset="1" stop-color="white" stop-opacity="0"/>
</linearGradient>
<linearGradient id="paint9_linear" x1="10.1452" y1="6.61182" x2="10.1452" y2="20.2608" gradientUnits="userSpaceOnUse">
<stop stop-color="#E5E4E2"/>
<stop offset="1" stop-color="white" stop-opacity="0"/>
</linearGradient>
<linearGradient id="paint10_linear" x1="7.31687" y1="6.61182" x2="7.31687" y2="20.2608" gradientUnits="userSpaceOnUse">
<stop stop-color="white"/>
<stop offset="1" stop-color="white" stop-opacity="0"/>
</linearGradient>
<linearGradient id="paint11_linear" x1="7.31687" y1="6.61182" x2="7.31687" y2="20.2608" gradientUnits="userSpaceOnUse">
<stop stop-color="#E5E4E2"/>
<stop offset="1" stop-color="white" stop-opacity="0"/>
</linearGradient>
<linearGradient id="paint12_linear" x1="4.49208" y1="6.61182" x2="4.49208" y2="20.2608" gradientUnits="userSpaceOnUse">
<stop stop-color="white"/>
<stop offset="1" stop-color="white" stop-opacity="0"/>
</linearGradient>
<linearGradient id="paint13_linear" x1="4.49208" y1="6.61182" x2="4.49208" y2="20.2608" gradientUnits="userSpaceOnUse">
<stop stop-color="#E5E4E2"/>
<stop offset="1" stop-color="white" stop-opacity="0"/>
</linearGradient>
<linearGradient id="paint14_linear" x1="20.3433" y1="1.31018" x2="20.3433" y2="18.9218" gradientUnits="userSpaceOnUse">
<stop stop-color="white"/>
<stop offset="1" stop-color="white" stop-opacity="0"/>
</linearGradient>
<linearGradient id="paint15_linear" x1="20.3433" y1="1.31018" x2="20.3433" y2="18.9218" gradientUnits="userSpaceOnUse">
<stop stop-color="#E5E4E2"/>
<stop offset="1" stop-color="white" stop-opacity="0"/>
</linearGradient>
</defs>
</svg>
