<svg width="25" height="25" viewBox="0 0 19 18" fill="none" xmlns="http://www.w3.org/2000/svg">
<path d="M4.75 5.7417H0V16.9993H4.74583V5.7417H4.75Z" fill="#B3A25D"/>
<path d="M12.05 0C11.3791 0 10.6791 0.481353 10.2958 1.27493C10.2916 1.28361 10.2916 1.28794 10.2875 1.29662C10.075 1.89939 9.71246 2.69731 9.09163 3.50824C8.07079 4.83955 6.86663 5.52905 6.14579 5.86296C6.08329 5.89332 6.04163 5.95837 6.04163 6.03209V16.817C6.07496 16.8734 6.13329 16.9514 6.22079 17.0035C6.29996 17.0468 6.37913 17.0598 6.45413 17.0598C6.52079 17.0598 6.57913 17.0512 6.62496 17.0425C6.68329 17.0338 6.74579 17.0295 6.80413 17.0295C6.98746 17.0295 7.17079 17.0598 7.35413 17.0598C7.36663 17.0598 7.37496 17.0598 7.38746 17.0598C8.05413 17.0425 11.1916 17.0035 12.4958 16.9991C12.6708 16.9991 12.8416 16.9991 13.0041 16.9991C13.0625 16.9991 13.125 16.9991 13.1833 16.9991C13.8833 16.9991 14.5541 16.9991 15.5375 16.9558C16.2958 16.9254 16.675 16.9081 16.7875 16.869C18.6583 16.2272 19.2958 12.294 18.7375 9.54466C18.5958 8.84649 18.2875 7.41977 17.2875 6.98612C17.0291 6.87337 16.7958 6.86036 16.65 6.86036C16.6166 6.86036 16.5875 6.86036 16.5625 6.86036C16.175 6.86904 15.7125 6.87771 15.1791 6.87771C14.2416 6.87771 13.0833 6.8647 11.7166 6.83868C11.5583 6.83434 11.4833 6.6392 11.5958 6.52211C12.2666 5.82827 13.025 4.81787 13.4375 3.4562C13.6625 2.71466 13.9166 1.83434 13.4958 1.01474C13.4125 0.858629 13.0291 0.164787 12.3 0.0303555C12.2166 0.00433638 12.1333 0 12.05 0Z" fill="#B3A25D"/>
</svg>
