<svg width="33" height="33" viewBox="0 0 33 33" fill="none" xmlns="http://www.w3.org/2000/svg">
<path d="M8.14698 14.472V25.6923H5.10878V14.472H8.14698ZM9.83486 12.7855H3.4209V27.3787H9.82924V12.7855H9.83486Z" fill="#B6B7AD"/>
<path d="M19.6922 7.02903C19.7091 7.02903 19.7203 7.02903 19.7316 7.03466C19.8666 7.05714 20.0523 7.26513 20.1536 7.45064C20.3786 7.87225 20.2042 8.51309 19.9566 9.31133C19.5741 10.5143 18.882 11.6161 17.8918 12.5942C17.3404 13.1395 17.1716 13.9602 17.4586 14.6798C17.7455 15.3993 18.4375 15.8771 19.214 15.8884C21.2338 15.9221 22.7248 15.939 23.9176 15.939C24.6771 15.939 25.3016 15.9333 25.8305 15.9165C25.8474 15.9165 25.8755 15.9165 25.898 15.9165C25.9599 15.9165 26.0387 15.9221 26.1118 15.9502C26.2806 16.0233 26.4775 16.2706 26.6407 16.6248C26.8714 17.1251 27.0008 17.7322 27.0683 18.0582C27.3946 19.6041 27.3665 21.5323 26.9895 23.0894C26.6238 24.624 26.0499 25.3661 25.6392 25.5684C25.4085 25.5853 24.8853 25.6078 24.3283 25.6303C22.9836 25.6865 22.044 25.6865 21.2169 25.6865H21.0988H20.9806C20.7556 25.6865 20.5249 25.6865 20.2886 25.6865C18.4601 25.6921 14.2291 25.7483 13.357 25.7652H13.3458C13.3233 25.7652 13.2951 25.7652 13.2614 25.7596V14.0614C14.7129 13.28 16.0014 12.212 17.0141 10.9415C17.7905 9.96341 18.415 8.87286 18.8595 7.69798C19.1014 7.25951 19.4615 7.02903 19.6922 7.02903ZM19.6922 5.34261C18.7864 5.34261 17.8412 5.96659 17.3235 6.99531C17.3179 7.00655 17.3179 7.01217 17.3123 7.02341C17.0253 7.80479 16.5359 8.83913 15.6975 9.89033C14.3191 11.6161 12.6931 12.5099 11.7198 12.9428C11.6354 12.9821 11.5791 13.0664 11.5791 13.162V27.1424C11.6241 27.2155 11.7029 27.3167 11.821 27.3841C11.9279 27.4404 12.0348 27.4572 12.1361 27.4572C12.2261 27.4572 12.3049 27.446 12.3668 27.4347C12.4455 27.4235 12.5299 27.4179 12.6087 27.4179C12.8563 27.4179 13.1038 27.4572 13.3514 27.4572C13.3683 27.4572 13.3795 27.4572 13.3964 27.4572C14.2966 27.4347 18.5332 27.3841 20.2942 27.3785C20.5305 27.3785 20.7612 27.3785 20.9806 27.3785C21.0594 27.3785 21.1438 27.3785 21.2226 27.3785C22.1678 27.3785 23.0736 27.3785 24.4014 27.3223C25.4254 27.283 25.9374 27.2605 26.0893 27.2099C28.6155 26.3779 29.4763 21.2793 28.7224 17.7153C28.5311 16.8103 28.1148 14.9608 26.7645 14.3987C26.4156 14.2525 26.1006 14.2357 25.9036 14.2357C25.8586 14.2357 25.8192 14.2357 25.7855 14.2357C25.2622 14.2469 24.6377 14.2582 23.9176 14.2582C22.6516 14.2582 21.0875 14.2413 19.2421 14.2076C19.0283 14.2019 18.927 13.949 19.0789 13.7972C19.9848 12.8978 21.0088 11.588 21.5658 9.82287C21.8696 8.86161 22.2128 7.72047 21.6445 6.65802C21.532 6.45565 21.0144 5.55623 20.0298 5.38196C19.9173 5.34823 19.8047 5.34261 19.6922 5.34261Z" fill="#B6B7AD"/>
</svg>
