<svg width="9" height="14" viewBox="0 0 9 14" fill="none" xmlns="http://www.w3.org/2000/svg">
<path d="M7.71582 6.87597C7.71881 6.867 7.76663 6.77136 7.80548 6.69365C8.08045 6.13475 8.21793 5.8538 8.23885 5.80598C8.23885 5.80598 8.40623 5.41146 8.40623 4.70311C8.40623 2.65878 6.74745 1 4.70311 1C2.65878 1 1 2.65878 1 4.70311C1 5.44433 1.21818 6.13474 1.59178 6.71158C2.62889 8.80673 3.666 10.9049 4.70012 13C6.44259 9.47024 7.54844 7.21669 7.71582 6.87597Z" fill="#B6B7AD" stroke="#B6B7AD" stroke-width="0.8" stroke-miterlimit="10"/>
<path d="M4.70572 6.12286C5.56901 6.12286 6.26885 5.42302 6.26885 4.55972C6.26885 3.69642 5.56901 2.99658 4.70572 2.99658C3.84242 2.99658 3.14258 3.69642 3.14258 4.55972C3.14258 5.42302 3.84242 6.12286 4.70572 6.12286Z" stroke="#B6B7AD" stroke-width="0.8" stroke-miterlimit="10"/>
<circle cx="4.75" cy="4.75" r="1.75" fill="white"/>
</svg>
