<svg width="19" height="17" viewBox="0 0 19 17" fill="none" xmlns="http://www.w3.org/2000/svg">
<path d="M7.65284 7.934C9.55132 7.934 11.0903 6.39497 11.0903 4.49649C11.0903 2.59801 9.55132 1.05898 7.65284 1.05898C5.75436 1.05898 4.21533 2.59801 4.21533 4.49649C4.21533 6.39497 5.75436 7.934 7.65284 7.934Z" stroke="black" stroke-miterlimit="10"/>
<path d="M9.10083 15.0589C6.25708 15.045 3.41333 15.0311 0.56958 15.0172V9.80541C0.573052 9.35055 0.72583 8.9061 1.00014 8.55194C1.57305 7.81235 2.43069 7.73249 2.68069 7.72555H2.69458C5.7675 7.70472 8.83694 7.68041 11.9099 7.65958C11.6668 7.99985 11.4237 8.34013 11.1807 8.68388C10.8543 8.68041 10.3508 8.67694 9.73625 8.67694C8.61125 8.67694 8.21194 8.6943 7.71541 8.6943C6.28486 8.69777 4.07652 8.58319 2.705 8.77069C2.53139 8.79499 2.08694 8.85402 1.82305 9.1943C1.6425 9.42694 1.61125 9.68041 1.61125 9.81583V13.979C4.44111 13.9686 7.27097 13.9617 10.1008 13.9512C9.7675 14.3193 9.43416 14.6874 9.10083 15.0589Z" fill="black"/>
<path d="M10.2083 15.0485C9.75347 15.0519 9.29861 15.0519 8.84375 15.0554C11.7639 12.1561 14.684 9.2568 17.6076 6.35749L18.3403 7.10055C15.625 9.74985 12.9167 12.3992 10.2083 15.0485Z" fill="black"/>
<path d="M11.0558 12.045C10.8093 12.2777 10.5593 12.5068 10.3127 12.7395C10.3127 11.6457 10.3127 10.552 10.3127 9.45472C10.3127 8.45472 11.1252 7.64221 12.1252 7.64221C12.594 7.64568 13.0593 7.64916 13.528 7.65263C13.8822 7.6561 14.0523 7.6561 14.2815 7.6561C14.7676 7.65957 15.1669 7.65957 15.4308 7.65957C15.1912 7.89569 14.9516 8.1318 14.712 8.36791C14.2502 8.3818 13.8752 8.3818 13.6148 8.37486C13.3579 8.37138 13.0176 8.36097 12.5245 8.36791C12.2815 8.37138 12.1634 8.37833 12.1218 8.37833C11.5315 8.37833 11.0523 8.8575 11.0523 9.44778V12.045H11.0558Z" fill="black"/>
<path d="M17.6287 14.5243C17.8335 14.7674 17.6599 15.1389 17.3439 15.1354C16.4377 15.125 15.5731 15.1181 14.7051 15.1077C13.8682 15.1007 13.0314 15.0903 12.1634 15.0833C12.1113 15.0833 12.0662 15.0382 12.0662 14.9861L12.0731 14.4722C12.0731 14.4202 12.1182 14.375 12.1703 14.375C13.0419 14.382 13.8752 14.3577 14.712 14.3646C15.2884 14.3715 15.8682 14.375 16.4585 14.382C16.5314 14.382 16.5801 14.3021 16.5453 14.2396C16.5002 14.1563 16.4585 14.0695 16.4203 13.9861C16.1634 13.4202 16.0314 12.816 16.028 12.1841V10.2674C16.028 10.2396 16.0384 10.2153 16.0592 10.198C16.2398 10.0244 16.4169 9.85075 16.5974 9.68062C16.6599 9.62159 16.7606 9.66325 16.7606 9.75006C16.7641 10.5626 16.7675 11.3716 16.771 12.1841C16.7745 12.7084 16.8856 13.2118 17.0974 13.6806C17.2259 13.9827 17.4099 14.2674 17.6287 14.5243Z" fill="black"/>
<path d="M13.8195 16.8125H13.2536C12.5174 16.8125 11.9167 16.2187 11.9167 15.4861V14.3402L15.1563 14.375V15.4861C15.1563 16.2187 14.5556 16.8125 13.8195 16.8125ZM12.9619 15.3854V15.4895C12.9619 15.6458 13.0938 15.7743 13.257 15.7743H13.823C13.9862 15.7743 14.1181 15.6458 14.1181 15.4895V15.3854H12.9619Z" fill="black"/>
<path d="M13.4688 7.84379C13.9195 7.84379 14.2848 7.47847 14.2848 7.02782C14.2848 6.57717 13.9195 6.21185 13.4688 6.21185C13.0182 6.21185 12.6528 6.57717 12.6528 7.02782C12.6528 7.47847 13.0182 7.84379 13.4688 7.84379Z" stroke="black" stroke-miterlimit="10"/>
</svg>
