<svg width="36" height="27" viewBox="0 0 36 27" fill="none" xmlns="http://www.w3.org/2000/svg">
<path d="M31.8547 0.399994H3.29531C1.47603 0.399994 0 1.85012 0 3.63749V23.0625C0 24.8499 1.47603 26.3 3.29531 26.3H31.8547C33.674 26.3 35.15 24.8499 35.15 23.0625V3.63749C35.15 1.85012 33.674 0.399994 31.8547 0.399994ZM3.29531 2.55833H31.8547C32.4588 2.55833 32.9531 3.04395 32.9531 3.63749V6.42984C31.4496 7.67762 29.3008 9.39755 22.6141 14.6113C21.4539 15.5151 19.1677 17.6936 17.575 17.6667C15.9823 17.6936 13.6893 15.5151 12.5359 14.6113C5.84918 9.39755 3.70036 7.67762 2.19687 6.42984V3.63749C2.19687 3.04395 2.69117 2.55833 3.29531 2.55833ZM31.8547 24.1417H3.29531C2.69117 24.1417 2.19687 23.656 2.19687 23.0625V9.23567C3.76215 10.4969 6.23363 12.4462 11.1697 16.2975C12.5771 17.4036 15.0623 19.8385 17.575 19.825C20.0739 19.8452 22.5386 17.4306 23.9803 16.2975C28.9164 12.4462 31.3878 10.4969 32.9531 9.23567V23.0625C32.9531 23.656 32.4588 24.1417 31.8547 24.1417Z" fill="#B6B7AD"/>
</svg>
