<svg width="20" height="22" viewBox="0 0 20 22" fill="none" xmlns="http://www.w3.org/2000/svg">
<path d="M6.65714 2.22351C4.81816 3.32857 3.31226 4.23959 3.31226 4.25235C3.31226 4.26511 4.82234 5.18031 6.6655 6.28537L10.0187 8.29727V6.94339V5.58951L10.4658 5.61481C13.1485 5.77937 15.5357 7.60559 16.4003 10.1576C16.679 10.9758 16.7422 11.3764 16.7422 12.3508C16.7422 13.0889 16.7294 13.2787 16.6451 13.6585C16.0588 16.3957 14.0639 18.3909 11.3264 18.9772C10.9467 19.0614 10.7571 19.0742 10.0187 19.0742C9.04436 19.0742 8.64374 19.0108 7.82534 18.7325C5.27356 17.8679 3.44712 15.4805 3.28256 12.7978L3.25748 12.3508H1.90778H0.557861L0.587341 12.8022C0.663241 13.9959 0.912061 15.0546 1.35074 16.0837C2.52774 18.8254 4.96578 20.8668 7.88452 21.5459C9.2384 21.8581 10.7991 21.8581 12.1532 21.5459C15.3799 20.795 17.995 18.3867 18.9989 15.2442C19.3234 14.2362 19.4418 13.4517 19.4418 12.3508C19.4418 11.2499 19.3236 10.4654 18.9989 9.45733C17.9022 6.03237 14.9368 3.53097 11.3684 3.01221C11.1238 2.97855 10.7232 2.93631 10.4744 2.91937L10.0187 2.88989L10.0104 1.55713L9.99761 0.219971L6.65714 2.22351Z" fill="black"/>
</svg>
