<svg width="18" height="11" viewBox="0 0 18 11" fill="none" xmlns="http://www.w3.org/2000/svg">
<path d="M5.25001 4.40876C4.8084 4.40876 4.45313 4.66253 4.45313 4.97796C4.45313 5.29339 4.8084 5.54715 5.25001 5.54715C5.69161 5.54715 6.04688 5.29339 6.04688 4.97796C6.04688 4.66253 5.69161 4.40876 5.25001 4.40876ZM9.50001 4.40876C9.0584 4.40876 8.70313 4.66253 8.70313 4.97796C8.70313 5.29339 9.0584 5.54715 9.50001 5.54715C9.94161 5.54715 10.2969 5.29339 10.2969 4.97796C10.2969 4.66253 9.94161 4.40876 9.50001 4.40876ZM13.75 4.40876C13.3084 4.40876 12.9531 4.66253 12.9531 4.97796C12.9531 5.29339 13.3084 5.54715 13.75 5.54715C14.1916 5.54715 14.5469 5.29339 14.5469 4.97796C14.5469 4.66253 14.1916 4.40876 13.75 4.40876ZM9.50001 0.0449219C4.80508 0.0449219 1.00001 2.25293 1.00001 4.97796C1.00001 6.10686 1.66075 7.1409 2.75645 7.97335C2.26173 8.90778 1.23243 9.69992 1.21583 9.7094C0.996686 9.87542 0.93692 10.1173 1.06309 10.326C1.18926 10.5347 1.47813 10.6699 1.79688 10.6699C3.83887 10.6699 5.44922 10.0604 6.41544 9.57185C7.37501 9.78767 8.41094 9.91099 9.50001 9.91099C14.1949 9.91099 18 7.70299 18 4.97796C18 2.25293 14.1949 0.0449219 9.50001 0.0449219ZM9.50001 9.15207C8.56036 9.15207 7.63067 9.05008 6.73751 8.84849L6.23282 8.73465L5.80118 8.95285C5.03751 9.33943 3.8588 9.79004 2.39454 9.89202C2.79297 9.5339 3.38399 8.93387 3.74922 8.24135L3.98497 7.79785L3.53008 7.45159C2.57051 6.72586 2.06251 5.8697 2.06251 4.97796C2.06251 2.67746 5.39942 0.80385 9.50001 0.80385C13.6006 0.80385 16.9375 2.67746 16.9375 4.97796C16.9375 7.27846 13.6006 9.15207 9.50001 9.15207Z" fill="#B3A25D"/>
</svg>
