<svg width="22" height="18" viewBox="0 0 22 18" fill="none" xmlns="http://www.w3.org/2000/svg">
<path d="M14.696 14.5728C13.508 15.4044 12.1198 15.8224 10.6986 15.8026C10.5116 15.8004 10.3246 15.7894 10.1398 15.774C10.065 15.7674 9.988 15.7542 9.9132 15.7454C9.768 15.7256 9.6228 15.7058 9.482 15.6794C9.394 15.6618 9.3104 15.6398 9.2246 15.62C9.086 15.587 8.9474 15.554 8.8132 15.5144C8.7472 15.4946 8.6834 15.4726 8.6196 15.4506C8.4634 15.3978 8.3072 15.345 8.1576 15.2812C8.1224 15.268 8.0894 15.2504 8.0564 15.2372C7.8804 15.1602 7.7044 15.0766 7.5372 14.9864C7.5284 14.982 7.5218 14.9798 7.513 14.9732C6.941 14.6586 6.4196 14.267 5.9598 13.8094C5.9532 13.8028 5.9444 13.794 5.9378 13.7852C5.7948 13.6422 5.6606 13.4926 5.5308 13.3364C5.5044 13.3034 5.478 13.2682 5.4494 13.233C4.5166 12.0648 3.9534 10.5886 3.9534 8.9804H5.7508L2.8754 4.6684L0 8.9826H1.7974C1.7974 10.8724 2.387 12.6258 3.388 14.0734C3.4012 14.0932 3.4078 14.1152 3.4232 14.135C3.5266 14.2824 3.6432 14.421 3.7532 14.5596C3.795 14.6124 3.8346 14.6674 3.8764 14.718C4.0414 14.9182 4.2152 15.103 4.3934 15.2878C4.411 15.3054 4.4264 15.323 4.444 15.3406C5.0446 15.9412 5.7244 16.4472 6.4636 16.8542C6.4834 16.8652 6.5032 16.8784 6.523 16.8894C6.7364 17.0038 6.9542 17.1072 7.1764 17.204C7.2314 17.2282 7.2864 17.2546 7.3414 17.2788C7.5306 17.358 7.7264 17.4262 7.9222 17.4922C8.0146 17.523 8.107 17.556 8.2016 17.5846C8.3732 17.6352 8.5492 17.6792 8.7252 17.7188C8.8418 17.7452 8.9584 17.776 9.0772 17.798C9.1278 17.809 9.174 17.8244 9.2224 17.831C9.3896 17.8618 9.5568 17.8772 9.724 17.897C9.7834 17.9036 9.8428 17.9146 9.9044 17.9212C10.2036 17.9498 10.5028 17.9696 10.802 17.9696C12.628 17.9696 14.41 17.4108 15.939 16.3416C16.4252 15.9984 16.544 15.3274 16.203 14.839C15.8554 14.3484 15.1844 14.2318 14.696 14.5728ZM19.7648 8.9826C19.7648 7.0972 19.1774 5.3504 18.1808 3.9028C18.1654 3.8786 18.1566 3.8522 18.1412 3.8302C18.018 3.6542 17.8816 3.4892 17.7474 3.3242C17.732 3.3044 17.7166 3.2824 17.7012 3.2626C16.7882 2.156 15.6442 1.3024 14.3484 0.7436C14.3132 0.7282 14.278 0.7106 14.2406 0.6952C14.0338 0.6094 13.8226 0.5346 13.607 0.4642C13.53 0.44 13.4552 0.4114 13.376 0.3872C13.1912 0.3322 13.002 0.286 12.8106 0.242C12.705 0.2178 12.6016 0.1914 12.4938 0.1694C12.441 0.1584 12.3926 0.143 12.3398 0.1342C12.1968 0.11 12.056 0.0990001 11.913 0.0814001C11.814 0.0682001 11.7194 0.0528 11.6182 0.044C11.3784 0.022 11.143 0.0110001 10.9054 0.00660007C10.8636 0.00660007 10.8196 0 10.7778 0C10.7712 0 10.7624 0.00219997 10.7558 0.00219997C8.932 0.00439997 7.1522 0.5544 5.6276 1.6236C5.1392 1.9646 5.0226 2.6356 5.3636 3.124C5.7046 3.6124 6.3778 3.729 6.864 3.388C8.0432 2.563 9.4182 2.145 10.8284 2.156C11.0308 2.1582 11.231 2.167 11.429 2.1868C11.4906 2.1934 11.55 2.2022 11.6116 2.2088C11.7744 2.2286 11.935 2.2506 12.0934 2.2836C12.1638 2.2968 12.232 2.3166 12.3002 2.332C12.4564 2.3672 12.6104 2.4046 12.7622 2.4508C12.8106 2.4662 12.8568 2.4838 12.9052 2.4992C13.079 2.5564 13.2484 2.6158 13.4178 2.6862C13.4354 2.6928 13.453 2.7016 13.4684 2.7082C14.4738 3.1394 15.3538 3.806 16.0424 4.6376C16.0468 4.642 16.0512 4.6508 16.0556 4.6552C17.0236 5.8322 17.6066 7.3392 17.6066 8.9804H15.8092L18.6846 13.2924L21.56 8.9804H19.7648V8.9826Z" fill="black"/>
</svg>
