<svg width="11" height="18" viewBox="0 0 11 18" fill="none" xmlns="http://www.w3.org/2000/svg">
<path d="M5.5073 0.160156C4.15469 2.25469 3.19583 3.87932 2.57239 4.96484C2.45572 5.16883 2.60521 4.92477 1.71197 6.53483C0.687486 8.38166 0.173422 9.31055 0.0676929 10.8696C0.0130052 11.6455 -0.118246 13.4522 1.0776 15.157C1.21249 15.3501 2.6526 17.3608 5.03698 17.594C5.38698 17.6304 5.64948 17.6158 5.7224 17.6085C8.0047 17.4665 9.43387 15.4521 9.63439 15.1534C10.8266 13.4194 10.6917 11.5617 10.6443 10.8659C10.5349 9.3069 10.0208 8.37802 9.00001 6.53119C8.59897 5.8063 8.29272 5.2344 8.1396 4.9612L5.5073 0.160156ZM8.74116 14.5232C8.73022 14.5414 8.71199 14.5669 8.68647 14.6033C8.52605 14.8364 7.38491 16.4356 5.6823 16.5339C5.6349 16.5376 5.56928 16.5376 5.48907 16.5376C5.49636 11.7839 5.50365 7.02659 5.51094 2.27291C5.92657 3.08522 6.27657 3.75911 6.52813 4.24723C6.93282 5.03041 7.08959 5.32546 7.17709 5.4821C7.50157 6.08678 7.78959 6.60768 8.0448 7.06666C9.02189 8.82607 9.46668 9.62746 9.55783 10.9461C9.587 11.4415 9.73647 13.037 8.74116 14.5232Z" fill="#B3A25D"/>
</svg>
