<svg width="9" height="9" viewBox="0 0 9 9" fill="none" xmlns="http://www.w3.org/2000/svg">
<path d="M8.30983 6.24322C8.30983 6.0989 8.30983 5.95233 8.30983 5.80576C8.30983 5.6682 8.31209 5.5329 8.31209 5.3976V5.31868V2.01512C8.31209 1.51677 7.90809 1.11313 7.40931 1.11313H1.58639C1.08761 1.11313 0.683615 1.51677 0.683615 2.01512V5.31868C0.683615 5.55771 0.778407 5.78546 0.949935 5.95459C1.19594 6.20038 1.50063 6.22067 1.58865 6.22067C2.88414 6.22518 4.35341 6.22293 5.42545 6.22067C5.89716 6.22067 6.37111 6.22067 6.84282 6.22067C6.74351 6.44617 6.6442 6.67393 6.5449 6.89943C6.1725 6.89943 5.79785 6.89717 5.42545 6.89717C4.80705 6.89717 4.05549 6.89943 3.28136 6.89943C2.71486 6.89943 2.13483 6.89943 1.58639 6.89717C1.39004 6.89717 0.888997 6.84982 0.471463 6.4349C0.171289 6.13498 0.00878906 5.74036 0.00878906 5.31868V2.01512C0.00878906 1.1447 0.71747 0.43663 1.58865 0.43663H7.41157C8.28275 0.43663 8.99143 1.1447 8.99143 2.01512V5.39535C9.00271 5.58251 8.9982 5.85988 8.90115 6.17783C8.84247 6.3695 8.76573 6.5251 8.69351 6.64461" fill="#B6B7AD"/>
<path d="M8.94401 8.45086L6.06641 6.59049C6.3237 6.46646 6.58325 6.34244 6.84054 6.22067C7.32352 6.55441 7.80651 6.88815 8.2895 7.22189C8.29401 6.73932 8.30078 6.2545 8.30529 5.77193C8.53325 5.74261 8.75894 5.7133 8.98689 5.68398C8.97335 6.60853 8.95755 7.53082 8.94401 8.45086Z" fill="#B6B7AD"/>
</svg>
