<svg width="12" height="11" viewBox="0 0 12 11" fill="none" xmlns="http://www.w3.org/2000/svg">
<path d="M10.3459 1.40517V6.25235H9.03581V1.40517H10.3459ZM11.075 0.676636H8.30664V6.98089H11.075V0.676636Z" fill="#B6B7AD"/>
<path d="M6.78744 1.37112C6.79716 1.37112 6.80931 1.37112 6.82389 1.37355V6.42958C6.19681 6.76713 5.64021 7.22854 5.20271 7.77737C4.8673 8.19992 4.59751 8.67103 4.40549 9.17858C4.30098 9.36557 4.14542 9.46757 4.04577 9.46757C4.03848 9.46757 4.03362 9.46757 4.02632 9.46514C3.96799 9.45542 3.88778 9.36557 3.84403 9.28543C3.74681 9.1033 3.82216 8.82646 3.9291 8.48162C4.09438 7.96193 4.39334 7.48595 4.82112 7.0634C5.05931 6.82784 5.13223 6.47329 5.00827 6.16245C4.88431 5.85161 4.58535 5.64519 4.24994 5.64033C3.37737 5.62576 2.73327 5.61848 2.21799 5.61848C1.88987 5.61848 1.62007 5.6209 1.3916 5.62819C1.38431 5.62819 1.37216 5.62819 1.36244 5.62819C1.3357 5.62819 1.30167 5.62576 1.27007 5.61362C1.19716 5.58205 1.11209 5.4752 1.0416 5.32221C0.941949 5.10607 0.886046 4.8438 0.85688 4.70295C0.715907 4.03513 0.72806 3.20217 0.890907 2.52949C1.04889 1.86652 1.29681 1.54597 1.47424 1.45854C1.57389 1.45126 1.79994 1.44155 2.04056 1.43183C2.62146 1.40755 3.02737 1.40755 3.38466 1.40755H3.4357H3.48674C3.58396 1.40755 3.68362 1.40755 3.7857 1.40755C4.57563 1.40512 6.40341 1.38083 6.78014 1.37355L6.78744 1.37112ZM6.78744 0.642586C6.78014 0.642586 6.77528 0.642586 6.76799 0.642586C6.3791 0.6523 4.54889 0.674155 3.78813 0.676584C3.68605 0.676584 3.58639 0.676584 3.4916 0.676584C3.45757 0.676584 3.42112 0.676584 3.38709 0.676584C2.97876 0.676584 2.58744 0.676584 2.01382 0.700868C1.57146 0.717867 1.35028 0.727581 1.28466 0.749437C0.190907 1.11128 -0.178537 3.31145 0.144727 4.85351C0.227365 5.24449 0.407227 6.04345 0.99056 6.2863C1.14125 6.34944 1.27737 6.35672 1.36244 6.35672C1.38188 6.35672 1.39889 6.35672 1.41348 6.35672C1.63952 6.35187 1.90931 6.34701 2.22042 6.34701C2.7673 6.34701 3.44299 6.3543 4.24021 6.36887C4.33258 6.37129 4.37633 6.48058 4.3107 6.54614C3.91938 6.93469 3.47702 7.50052 3.23639 8.26306C3.10514 8.67832 2.95688 9.17129 3.20237 9.63027C3.25098 9.7177 3.47459 10.1062 3.89994 10.1815C3.94855 10.1888 3.99473 10.1937 4.04334 10.1937C4.43466 10.1937 4.84299 9.92411 5.0666 9.47971C5.06903 9.47485 5.06903 9.47242 5.07146 9.46757C5.19542 9.13001 5.40688 8.68318 5.76903 8.22906C6.36452 7.48352 7.06695 7.0974 7.48744 6.91041C7.5239 6.89341 7.5482 6.85698 7.5482 6.8157V0.778579C7.52876 0.747009 7.49473 0.703297 7.44369 0.674156C7.39751 0.649871 7.35133 0.642586 7.30758 0.642586C7.26869 0.642586 7.23466 0.647443 7.20792 0.652299C7.17389 0.657156 7.13744 0.659585 7.10341 0.659585C7.00133 0.659585 6.89438 0.642586 6.78744 0.642586Z" fill="#B6B7AD"/>
</svg>
