<svg width="15" height="16" viewBox="0 0 15 16" fill="none" xmlns="http://www.w3.org/2000/svg">
<path d="M11.6964 8.85529C11.6999 8.84483 11.7557 8.73325 11.8011 8.64259C12.1219 7.99054 12.2822 7.66276 12.3067 7.60697C12.3067 7.60697 12.5019 7.1467 12.5019 6.3203C12.5019 3.93524 10.5667 2 8.18163 2C5.79657 2 3.86133 3.93524 3.86133 6.3203C3.86133 7.18506 4.11587 7.99053 4.55174 8.66351C5.7617 11.1078 6.97166 13.5557 8.17814 16C10.211 11.8819 11.5012 9.2528 11.6964 8.85529Z" fill="#B3A25D"/>
<path d="M8.1845 7.97667C9.19168 7.97667 10.0082 7.16019 10.0082 6.15301C10.0082 5.14583 9.19168 4.32935 8.1845 4.32935C7.17732 4.32935 6.36084 5.14583 6.36084 6.15301C6.36084 7.16019 7.17732 7.97667 8.1845 7.97667Z" stroke="#B6B7AD" stroke-width="0.8" stroke-miterlimit="10"/>
<circle cx="8.23649" cy="6.37492" r="2.04167" fill="white"/>
</svg>
