<svg width="20" height="21" viewBox="0 0 20 21" fill="none" xmlns="http://www.w3.org/2000/svg">
<path d="M14.9478 8.74663V16.6494H5.05192V8.74663H14.9478ZM15.9894 7.70496H4.01025V17.6911H15.9894V7.70496Z" fill="black"/>
<path d="M8.14221 13.198C8.8364 13.198 9.39916 12.6352 9.39916 11.941C9.39916 11.2468 8.8364 10.6841 8.14221 10.6841C7.44801 10.6841 6.88525 11.2468 6.88525 11.941C6.88525 12.6352 7.44801 13.198 8.14221 13.198Z" fill="black"/>
<path d="M8.66625 12.8682C8.31555 12.8682 7.96485 12.8682 7.61068 12.8717C7.65929 13.139 7.70096 13.5175 7.6454 13.9654C7.57596 14.5314 7.38846 14.9689 7.24609 15.2363C7.79818 15.2363 8.35374 15.2397 8.90583 15.2397C8.79125 14.9411 8.6593 14.5175 8.61763 13.9967C8.57944 13.5453 8.61763 13.1564 8.66625 12.8682Z" fill="black"/>
<path d="M12.0309 13.198C12.7251 13.198 13.2878 12.6352 13.2878 11.941C13.2878 11.2468 12.7251 10.6841 12.0309 10.6841C11.3367 10.6841 10.7739 11.2468 10.7739 11.941C10.7739 12.6352 11.3367 13.198 12.0309 13.198Z" fill="black"/>
<path d="M12.5554 12.8682C12.2047 12.8682 11.854 12.8682 11.4998 12.8717C11.5484 13.139 11.5901 13.5175 11.5346 13.9654C11.4651 14.5314 11.2776 14.9689 11.1353 15.2363C11.6873 15.2363 12.2429 15.2397 12.795 15.2397C12.6804 14.9411 12.5484 14.5175 12.5068 13.9967C12.4686 13.5453 12.5068 13.1564 12.5554 12.8682Z" fill="black"/>
<path d="M13.4096 8.18408H6.51025V3.98269C6.51025 3.13894 7.19428 2.45491 8.03803 2.45491H11.8818C12.7255 2.45491 13.4096 3.13894 13.4096 3.98269V8.18408Z" stroke="black" stroke-miterlimit="10" stroke-linejoin="round"/>
</svg>
