<svg width="23" height="26" viewBox="0 0 23 26" fill="none" xmlns="http://www.w3.org/2000/svg">
<path d="M12.8351 10.8553C12.8386 10.8448 12.8944 10.7333 12.9397 10.6426C13.2605 9.99054 13.4209 9.66276 13.4453 9.60697C13.4453 9.60697 13.6406 9.1467 13.6406 8.3203C13.6406 5.93524 11.7054 4 9.3203 4C6.93524 4 5 5.93524 5 8.3203C5 9.18506 5.25455 9.99053 5.69041 10.6635C6.90037 13.1078 8.11034 15.5557 9.31681 18C11.3497 13.8819 12.6399 11.2528 12.8351 10.8553Z" fill="#B3A25D"/>
<path d="M9.32342 9.97667C10.3306 9.97667 11.1471 9.16019 11.1471 8.15301C11.1471 7.14583 10.3306 6.32935 9.32342 6.32935C8.31624 6.32935 7.49976 7.14583 7.49976 8.15301C7.49976 9.16019 8.31624 9.97667 9.32342 9.97667Z" stroke="#B3A25D" stroke-width="0.8" stroke-miterlimit="10"/>
<path d="M9.37492 10.4166C10.5025 10.4166 11.4166 9.5025 11.4166 8.37492C11.4166 7.24734 10.5025 6.33325 9.37492 6.33325C8.24734 6.33325 7.33325 7.24734 7.33325 8.37492C7.33325 9.5025 8.24734 10.4166 9.37492 10.4166Z" fill="white"/>
</svg>
