<svg width="23" height="24" viewBox="0 0 23 24" fill="none" xmlns="http://www.w3.org/2000/svg">
<path d="M10.079 11.7007L8.8811 15.5721" stroke="#B3A25D" stroke-miterlimit="10"/>
<path d="M12.5547 11.7007L13.7526 15.5721" stroke="#B3A25D" stroke-miterlimit="10"/>
<path d="M14.8671 11.1376L14.8514 11.2579L14.8926 11.372L17.8828 19.6516L17.7422 19.716L17.7416 19.7162C15.7398 20.6361 13.5804 21.1216 11.3944 21.1438H11.243C11.2429 21.1438 11.2429 21.1438 11.2428 21.1438C9.00744 21.143 6.79608 20.657 4.74938 19.7159L4.74818 19.7153L4.60352 19.6493L7.72675 11.3745L7.77195 11.2548L7.75406 11.1281L6.81061 4.44401L7.43648 4.33044L7.4494 4.32809L7.46218 4.32508L8.73891 4.02344L8.77373 4.15026L8.77401 4.15127C8.86291 4.47243 9.16666 5.36309 10.0034 5.86252C10.9014 6.39887 11.9929 6.25453 12.8333 5.58116L12.8423 5.57394L12.851 5.5663C13.4234 5.0625 13.6551 4.42193 13.7347 4.14526L13.7691 4.02574L15.2703 4.3352L15.2654 4.36523L15.7388 4.44462L14.8671 11.1376ZM9.95988 6.21186L9.95939 6.21157C9.34738 5.84623 8.98356 5.2742 8.77604 4.79959L8.60851 4.41644L8.20177 4.51358L7.50459 4.68009L7.06208 4.78578L7.12564 5.23627L7.91067 10.7999L7.97123 11.2291L8.40466 11.2301L14.2106 11.243L14.6505 11.244L14.7075 10.8077L15.4382 5.20696L15.4983 4.74632L15.0433 4.65256L14.2878 4.49687L13.8972 4.41636L13.7319 4.77939C13.5277 5.22769 13.169 5.78405 12.5612 6.16528L12.5591 6.16663C12.1538 6.42372 11.6902 6.5583 11.2192 6.55759H11.2178C10.9895 6.55792 10.7622 6.52752 10.5413 6.46717L10.4236 6.42701C10.2627 6.37213 10.1073 6.30008 9.95988 6.21186ZM5.37039 19.6151C7.28635 20.4038 9.33116 20.7994 11.3922 20.7796C13.358 20.7605 15.3031 20.3643 17.1302 19.6113L17.5726 19.429L17.4099 18.979L14.8648 11.9372L14.7458 11.6079L14.3957 11.6071L8.2268 11.5934L7.88029 11.5926L7.75791 11.9168L5.09295 18.9762L4.9215 19.4303L5.37039 19.6151Z" fill="#231F20" stroke="#B3A25D"/>
</svg>
