<svg width="24" height="23" viewBox="0 0 24 23" fill="none" xmlns="http://www.w3.org/2000/svg">
<path d="M9.16234 4.02148C6.97484 5.31013 4.7915 6.59877 2.604 7.88741L4.104 11.3065L7.66234 9.57102C7.53317 13.0699 7.404 16.5688 7.27484 20.0637C9.02484 20.0637 10.7748 20.0637 12.5248 20.0637" stroke="#B3A25D" stroke-miterlimit="10"/>
<path d="M15.0665 4.1731C17.1791 5.40987 19.2874 6.64664 21.3999 7.88741L19.8999 11.3065L16.3416 9.57101C16.5541 13.0539 16.7666 16.5329 16.9791 20.0158C15.2915 20.0317 13.5999 20.0477 11.9124 20.0636" stroke="#B3A25D" stroke-miterlimit="10"/>
<path d="M8.4458 4.1731C8.55413 4.34066 9.75413 6.15193 11.9875 6.21577C14.3374 6.28359 15.6583 4.35263 15.7416 4.22496" stroke="#B3A25D" stroke-miterlimit="10"/>
</svg>
