<svg width="22" height="21" viewBox="0 0 22 21" fill="none" xmlns="http://www.w3.org/2000/svg">
<path d="M8.56975 3.44287L11.1066 11.6953V16.4305C10.9974 16.7963 10.7812 17.1248 10.4833 17.3776C10.1086 17.6992 9.70259 17.8296 9.43867 17.9119C8.10874 18.3261 6.59739 18.0616 6.09589 17.9603C6.21506 15.6049 6.33448 13.2494 6.45416 10.8939C5.97647 8.84613 5.49891 6.79833 5.02148 4.75052L8.56975 3.44287Z" stroke="#B3A25D" stroke-miterlimit="10"/>
<path d="M4.9111 4.60327L1.44189 17.9603L3.60217 17.9363L6.14936 9.83461" stroke="#B3A25D" stroke-miterlimit="10"/>
<path d="M13.6786 3.44287C12.833 6.19367 11.9875 8.94448 11.1421 11.6953V16.4305C11.2509 16.7963 11.4671 17.1249 11.765 17.3776C12.1397 17.6992 12.5457 17.8296 12.8097 17.9119C14.1396 18.3261 15.6509 18.0616 16.1524 17.9603C16.0333 15.6049 15.914 13.2494 15.7946 10.8939C16.272 8.84613 16.749 6.79833 17.2257 4.75052L13.6786 3.44287Z" stroke="#B3A25D" stroke-miterlimit="10"/>
<path d="M17.3373 4.60327L20.8065 17.9603L18.6462 17.9363L16.0979 9.83461" stroke="#B3A25D" stroke-miterlimit="10"/>
<path d="M8.9397 3.26913L13.3202 3.26221" stroke="#B3A25D" stroke-miterlimit="10"/>
</svg>
