<svg width="22" height="22" viewBox="0 0 22 22" fill="none" xmlns="http://www.w3.org/2000/svg">
<path d="M2.75 18.4663H19.25" stroke="#B3A25D" stroke-miterlimit="10" stroke-linejoin="round"/>
<path d="M16.5 12.9709H5.5V18.1227H16.5V12.9709Z" stroke="#B3A25D" stroke-miterlimit="10"/>
<path d="M16.5 10.2234H5.5V12.971H16.5V10.2234Z" stroke="#B3A25D" stroke-miterlimit="10"/>
<path d="M8.29199 10.2233V6.44531" stroke="#B3A25D" stroke-miterlimit="10"/>
<path d="M11.042 10.2233V6.44531" stroke="#B3A25D" stroke-miterlimit="10"/>
<path d="M13.792 10.2233V6.44531" stroke="#B3A25D" stroke-miterlimit="10"/>
<path d="M8.47949 5.07168C8.47949 5.1745 8.39595 5.25859 8.29199 5.25859C8.18803 5.25859 8.10449 5.1745 8.10449 5.07168C8.10449 4.96886 8.18803 4.88477 8.29199 4.88477C8.39595 4.88477 8.47949 4.96886 8.47949 5.07168Z" fill="#B3A25D" stroke="#B3A25D"/>
<path d="M11.2295 5.07168C11.2295 5.1745 11.146 5.25859 11.042 5.25859C10.938 5.25859 10.8545 5.1745 10.8545 5.07168C10.8545 4.96886 10.938 4.88477 11.042 4.88477C11.146 4.88477 11.2295 4.96886 11.2295 5.07168Z" fill="#B3A25D" stroke="#B3A25D"/>
<path d="M13.9795 5.07168C13.9795 5.1745 13.896 5.25859 13.792 5.25859C13.688 5.25859 13.6045 5.1745 13.6045 5.07168C13.6045 4.96886 13.688 4.88477 13.792 4.88477C13.896 4.88477 13.9795 4.96886 13.9795 5.07168Z" fill="#B3A25D" stroke="#B3A25D"/>
</svg>
